Augmented Norvrandt-Regular.ufo
<glyph name="exclam" format="2">
  <advance width="285"/>
  <unicode hex="0021"/>
  <anchor x="126" y="227" name="bottom"/>
  <anchor x="71" y="186" name="bottomSerif-length"/>
  <anchor x="126" y="687.07926" name="top"/>
  <anchor x="35" y="629.86168" name="topSerif"/>
  <anchor x="266.6" y="337.1" name="tail"/>
  <outline>
    <component base="period"/>
    <contour>
      <point x="181" y="262" type="curve"/>
      <point x="181" y="685" type="line"/>
      <point x="181" y="696"/>
      <point x="178" y="717"/>
      <point x="172" y="720" type="curve" smooth="yes"/>
      <point x="164" y="724"/>
      <point x="25" y="640"/>
      <point x="25" y="630" type="curve" smooth="yes"/>
      <point x="25" y="618"/>
      <point x="71" y="636"/>
      <point x="71" y="577" type="curve" smooth="yes"/>
      <point x="71" y="227" type="line"/>
      <point x="71" y="224"/>
      <point x="71" y="192"/>
      <point x="71" y="192" type="curve" smooth="yes"/>
      <point x="71" y="192"/>
      <point x="181" y="262"/>
    </contour>
    <contour>
      <point x="71" y="224" type="curve"/>
      <point x="71" y="189" type="line"/>
      <point x="96" y="189"/>
      <point x="233" y="283"/>
      <point x="274" y="334" type="curve" smooth="yes"/>
      <point x="282" y="345"/>
      <point x="278" y="351"/>
      <point x="263" y="341" type="curve" smooth="yes"/>
      <point x="208" y="307"/>
      <point x="171" y="283"/>
    </contour>
  </outline>
</glyph>
<glyph name="numbersign" format="2">
  <advance width="600"/>
  <unicode hex="0023"/>
  <outline>
    <contour>
      <point x="257" y="650" type="curve" smooth="yes"/>
      <point x="73" y="-8" type="line" smooth="yes"/>
      <point x="69" y="-21"/>
      <point x="135" y="-11"/>
      <point x="136" y="-8" type="curve" smooth="yes"/>
      <point x="320" y="650" type="line" smooth="yes"/>
      <point x="323" y="662"/>
      <point x="258" y="653"/>
    </contour>
    <contour>
      <point x="434" y="650" type="curve" smooth="yes"/>
      <point x="250" y="-8" type="line" smooth="yes"/>
      <point x="246" y="-21"/>
      <point x="312" y="-11"/>
      <point x="313" y="-8" type="curve" smooth="yes"/>
      <point x="497" y="650" type="line" smooth="yes"/>
      <point x="500" y="662"/>
      <point x="435" y="653"/>
    </contour>
    <contour>
      <point x="517" y="524" type="curve" smooth="yes"/>
      <point x="170" y="490" type="line"/>
      <point x="142" y="487"/>
      <point x="82" y="424"/>
      <point x="93" y="425" type="curve" smooth="yes"/>
      <point x="485" y="465" type="line" smooth="yes"/>
      <point x="497" y="466"/>
      <point x="547" y="507"/>
      <point x="559" y="523" type="curve" smooth="yes"/>
      <point x="564" y="530"/>
      <point x="539" y="526"/>
    </contour>
    <contour>
      <point x="468" y="283" type="curve" smooth="yes"/>
      <point x="121" y="249" type="line"/>
      <point x="93" y="246"/>
      <point x="33" y="183"/>
      <point x="44" y="184" type="curve" smooth="yes"/>
      <point x="436" y="224" type="line" smooth="yes"/>
      <point x="448" y="225"/>
      <point x="498" y="266"/>
      <point x="510" y="282" type="curve" smooth="yes"/>
      <point x="515" y="289"/>
      <point x="490" y="285"/>
    </contour>
  </outline>
</glyph>
<glyph name="dollar" format="2">
  <advance width="540"/>
  <unicode hex="0024"/>
  <anchor x="187" y="2" name="bottom"/>
  <anchor x="140.2" y="-24.2" name="bottomSerif-length"/>
  <anchor x="187" y="384.17657" name="top"/>
  <anchor x="132" y="309.54545" name="topSerif"/>
  <outline>
    <contour>
      <point x="268" y="648" type="curve" smooth="yes"/>
      <point x="154" y="648"/>
      <point x="64" y="583"/>
      <point x="33" y="514" type="curve" smooth="yes"/>
      <point x="19" y="481"/>
      <point x="32" y="480"/>
      <point x="51" y="508" type="curve" smooth="yes"/>
      <point x="87" y="559"/>
      <point x="159" y="595"/>
      <point x="235" y="595" type="curve" smooth="yes"/>
      <point x="352" y="595"/>
      <point x="393" y="508"/>
      <point x="393" y="402" type="curve" smooth="yes"/>
      <point x="393" y="246"/>
      <point x="303" y="206"/>
      <point x="227" y="206" type="curve"/>
      <point x="227" y="159" type="line"/>
      <point x="306" y="159"/>
      <point x="503" y="207"/>
      <point x="503" y="412" type="curve" smooth="yes"/>
      <point x="503" y="559"/>
      <point x="402" y="648"/>
    </contour>
    <contour>
      <point x="303" y="368" type="curve"/>
      <point x="83" y="368" type="line"/>
      <point x="77" y="368"/>
      <point x="43" y="323"/>
      <point x="43" y="315" type="curve" smooth="yes"/>
      <point x="43" y="309"/>
      <point x="66" y="313"/>
      <point x="104" y="313" type="curve"/>
      <point x="281" y="313" type="line"/>
      <point x="293" y="313"/>
      <point x="333" y="352"/>
      <point x="345" y="368" type="curve" smooth="yes"/>
      <point x="350" y="375"/>
      <point x="316" y="368"/>
    </contour>
    <contour>
      <point x="242" y="33" type="curve"/>
      <point x="242" y="292" type="line"/>
      <point x="242" y="307"/>
      <point x="242" y="327"/>
      <point x="242" y="327" type="curve" smooth="yes"/>
      <point x="242" y="327"/>
      <point x="132" y="327"/>
      <point x="132" y="327" type="curve" smooth="yes"/>
      <point x="132" y="317"/>
      <point x="132" y="292"/>
      <point x="132" y="292" type="curve" smooth="yes"/>
      <point x="132" y="-3" type="line"/>
      <point x="132" y="-16"/>
      <point x="122" y="-34"/>
      <point x="129" y="-34" type="curve" smooth="yes"/>
      <point x="136" y="-34"/>
      <point x="242" y="9"/>
    </contour>
  </outline>
</glyph>
<glyph name="ampersand" format="2">
  <advance width="670"/>
  <unicode hex="0026"/>
  <outline>
    <contour>
      <point x="181" y="302" type="curve"/>
      <point x="181" y="545" type="line"/>
      <point x="181" y="556"/>
      <point x="178" y="577"/>
      <point x="172" y="580" type="curve" smooth="yes"/>
      <point x="164" y="584"/>
      <point x="25" y="500"/>
      <point x="25" y="490" type="curve" smooth="yes"/>
      <point x="25" y="478"/>
      <point x="71" y="496"/>
      <point x="71" y="437" type="curve" smooth="yes"/>
      <point x="71" y="215" type="line" smooth="yes"/>
      <point x="71" y="179"/>
      <point x="57" y="158"/>
      <point x="71" y="158" type="curve" smooth="yes"/>
      <point x="84" y="158"/>
      <point x="173" y="235"/>
      <point x="220" y="316" type="curve"/>
      <point x="220" y="161"/>
      <point x="214" y="143"/>
      <point x="220" y="143" type="curve" smooth="yes"/>
      <point x="235" y="143"/>
      <point x="304" y="153"/>
      <point x="372" y="193" type="curve" smooth="yes"/>
      <point x="432" y="228"/>
      <point x="483" y="277"/>
      <point x="483" y="318" type="curve" smooth="yes"/>
      <point x="483" y="685" type="line" smooth="yes"/>
      <point x="483" y="696"/>
      <point x="480" y="717"/>
      <point x="474" y="720" type="curve" smooth="yes"/>
      <point x="466" y="724"/>
      <point x="327" y="640"/>
      <point x="327" y="630" type="curve" smooth="yes"/>
      <point x="327" y="618"/>
      <point x="373" y="636"/>
      <point x="373" y="577" type="curve" smooth="yes"/>
      <point x="373" y="280" type="line"/>
      <point x="373" y="225"/>
      <point x="341" y="193"/>
      <point x="330" y="193" type="curve"/>
      <point x="330" y="413" type="line" smooth="yes"/>
      <point x="330" y="428"/>
      <point x="319" y="435"/>
      <point x="311" y="435" type="curve" smooth="yes"/>
      <point x="286" y="435"/>
      <point x="264" y="397"/>
    </contour>
    <contour>
      <point x="642" y="441" type="curve" smooth="yes"/>
      <point x="642" y="494"/>
      <point x="639" y="518"/>
      <point x="631" y="518" type="curve" smooth="yes"/>
      <point x="620" y="518"/>
      <point x="583" y="469"/>
      <point x="532" y="413" type="curve" smooth="yes"/>
      <point x="502" y="380"/>
      <point x="476" y="350"/>
      <point x="450" y="336" type="curve"/>
      <point x="460" y="316" type="line"/>
      <point x="488" y="338"/>
      <point x="518" y="369"/>
      <point x="529" y="369" type="curve" smooth="yes"/>
      <point x="552" y="369"/>
      <point x="554" y="215"/>
      <point x="448" y="110" type="curve" smooth="yes"/>
      <point x="345" y="9"/>
      <point x="198" y="-43"/>
      <point x="198" y="-53" type="curve" smooth="yes"/>
      <point x="199" y="-67"/>
      <point x="497" y="14"/>
      <point x="592" y="169" type="curve" smooth="yes"/>
      <point x="639" y="246"/>
      <point x="642" y="388"/>
    </contour>
  </outline>
</glyph>
<glyph name="parenleft" format="2">
  <advance width="400"/>
  <unicode hex="0028"/>
  <outline>
    <component base="_part.paren" xOffset="179" yOffset="320" identifier="9B53F76C"/>
    <contour>
      <point x="356" y="-54" type="curve" smooth="yes"/>
      <point x="365" y="-59"/>
      <point x="369" y="-56"/>
      <point x="363" y="-46" type="curve" smooth="yes"/>
      <point x="337" y="-6"/>
      <point x="289" y="105"/>
      <point x="289" y="320" type="curve"/>
      <point x="179" y="320" type="line"/>
      <point x="179" y="89"/>
      <point x="301" y="-26"/>
    </contour>
  </outline>
</glyph>
<glyph name="parenright" format="2">
  <advance width="400"/>
  <unicode hex="0029"/>
  <outline>
    <contour>
      <point x="44" y="694" type="curve" smooth="yes"/>
      <point x="35" y="699"/>
      <point x="31" y="696"/>
      <point x="37" y="686" type="curve" smooth="yes"/>
      <point x="63" y="646"/>
      <point x="111" y="535"/>
      <point x="111" y="320" type="curve"/>
      <point x="221" y="320" type="line"/>
      <point x="221" y="551"/>
      <point x="99" y="666"/>
    </contour>
    <component base="_part.paren" xScale="-1" yScale="-1" xOffset="221" yOffset="320" identifier="9D40454F"/>
  </outline>
</glyph>
<glyph name="comma" format="2">
  <advance width="260"/>
  <unicode hex="002C"/>
  <outline>
    <contour>
      <point x="53" y="71" type="curve" smooth="yes"/>
      <point x="53" y="62"/>
      <point x="97" y="9"/>
      <point x="139" y="0" type="curve"/>
      <point x="131" y="-16"/>
      <point x="102" y="-56"/>
      <point x="81" y="-79" type="curve" smooth="yes"/>
      <point x="69" y="-92"/>
      <point x="84" y="-94"/>
      <point x="94" y="-88" type="curve" smooth="yes"/>
      <point x="181" y="-36"/>
      <point x="208" y="49"/>
      <point x="208" y="76" type="curve" smooth="yes"/>
      <point x="208" y="89"/>
      <point x="185" y="86"/>
      <point x="166" y="101" type="curve" smooth="yes"/>
      <point x="157" y="107"/>
      <point x="123" y="140"/>
      <point x="118" y="140" type="curve" smooth="yes"/>
      <point x="106" y="140"/>
      <point x="53" y="83"/>
    </contour>
  </outline>
</glyph>
<glyph name="hyphen" format="2">
  <advance width="370"/>
  <unicode hex="002D"/>
  <outline>
    <contour>
      <point x="321" y="290" type="curve" smooth="yes"/>
      <point x="95" y="267" type="line"/>
      <point x="67" y="264"/>
      <point x="7" y="211"/>
      <point x="18" y="212" type="curve" smooth="yes"/>
      <point x="289" y="241" type="line" smooth="yes"/>
      <point x="301" y="242"/>
      <point x="351" y="273"/>
      <point x="363" y="289" type="curve" smooth="yes"/>
      <point x="368" y="296"/>
      <point x="343" y="292"/>
    </contour>
  </outline>
</glyph>
<glyph name="period" format="2">
  <advance width="260"/>
  <unicode hex="002E"/>
  <outline>
    <contour>
      <point x="45" y="63" type="curve" smooth="yes"/>
      <point x="45" y="27"/>
      <point x="123" y="-19"/>
      <point x="134" y="-19" type="curve" smooth="yes"/>
      <point x="145" y="-19"/>
      <point x="216" y="38"/>
      <point x="216" y="71" type="curve" smooth="yes"/>
      <point x="216" y="75"/>
      <point x="189" y="88"/>
      <point x="169" y="105" type="curve" smooth="yes"/>
      <point x="149" y="123"/>
      <point x="137" y="137"/>
      <point x="132" y="137" type="curve" smooth="yes"/>
      <point x="120" y="137"/>
      <point x="45" y="75"/>
    </contour>
  </outline>
</glyph>
<glyph name="slash" format="2">
  <advance width="550"/>
  <unicode hex="002F"/>
  <outline>
    <contour>
      <point x="424" y="720" type="curve" smooth="yes"/>
      <point x="63" y="-84" type="line" smooth="yes"/>
      <point x="57" y="-98"/>
      <point x="125" y="-87"/>
      <point x="126" y="-84" type="curve" smooth="yes"/>
      <point x="487" y="720" type="line" smooth="yes"/>
      <point x="493" y="734"/>
      <point x="426" y="724"/>
    </contour>
  </outline>
</glyph>
<glyph name="zero" format="2">
  <advance width="650"/>
  <unicode hex="0030"/>
  <outline>
    <contour>
      <point x="326" y="-37" type="curve" smooth="yes"/>
      <point x="503" y="-37"/>
      <point x="619" y="95"/>
      <point x="619" y="326" type="curve" smooth="yes"/>
      <point x="619" y="557"/>
      <point x="503" y="689"/>
      <point x="326" y="689" type="curve" smooth="yes"/>
      <point x="149" y="689"/>
      <point x="33" y="557"/>
      <point x="33" y="326" type="curve" smooth="yes"/>
      <point x="33" y="95"/>
      <point x="149" y="-37"/>
    </contour>
    <contour>
      <point x="326" y="16" type="curve" smooth="yes"/>
      <point x="194" y="16"/>
      <point x="152" y="121"/>
      <point x="152" y="326" type="curve" smooth="yes"/>
      <point x="152" y="531"/>
      <point x="194" y="636"/>
      <point x="326" y="636" type="curve" smooth="yes"/>
      <point x="458" y="636"/>
      <point x="500" y="531"/>
      <point x="500" y="326" type="curve" smooth="yes"/>
      <point x="500" y="121"/>
      <point x="458" y="16"/>
    </contour>
  </outline>
</glyph>
<glyph name="one" format="2">
  <advance width="390"/>
  <unicode hex="0031"/>
  <anchor x="120" y="0" name="bottom"/>
  <anchor x="65" y="-41" name="bottomSerif-length"/>
  <anchor x="120" y="640" name="top"/>
  <anchor x="29" y="623" name="topSerif"/>
  <outline>
    <contour>
      <point x="175" y="35" type="curve"/>
      <point x="175" y="678" type="line"/>
      <point x="175" y="689"/>
      <point x="172" y="710"/>
      <point x="166" y="713" type="curve" smooth="yes"/>
      <point x="158" y="717"/>
      <point x="19" y="633"/>
      <point x="19" y="623" type="curve" smooth="yes"/>
      <point x="19" y="611"/>
      <point x="65" y="629"/>
      <point x="65" y="570" type="curve" smooth="yes"/>
      <point x="65" y="0" type="line"/>
      <point x="65" y="-3"/>
      <point x="65" y="-35"/>
      <point x="65" y="-35" type="curve" smooth="yes"/>
      <point x="65" y="-35"/>
      <point x="175" y="35"/>
    </contour>
    <contour>
      <point x="65" y="60" type="curve"/>
      <point x="65" y="-35" type="line"/>
      <point x="123" y="-35"/>
      <point x="359" y="209"/>
      <point x="370" y="241" type="curve" smooth="yes"/>
      <point x="373" y="251"/>
      <point x="371" y="264"/>
      <point x="356" y="253" type="curve" smooth="yes"/>
      <point x="275" y="194"/>
      <point x="163" y="106"/>
    </contour>
  </outline>
</glyph>
<glyph name="two" format="2">
  <advance width="500"/>
  <unicode hex="0032"/>
  <anchor x="418" y="0" name="bottom"/>
  <anchor x="371.2" y="-26.2" name="bottomSerif-length"/>
  <anchor x="418" y="364.56731" name="top"/>
  <anchor x="363" y="286" name="topSerif"/>
  <outline>
    <contour>
      <point x="175" y="35" type="curve"/>
      <point x="175" y="678" type="line"/>
      <point x="175" y="689"/>
      <point x="172" y="710"/>
      <point x="166" y="713" type="curve" smooth="yes"/>
      <point x="158" y="717"/>
      <point x="19" y="633"/>
      <point x="19" y="623" type="curve" smooth="yes"/>
      <point x="19" y="611"/>
      <point x="65" y="629"/>
      <point x="65" y="570" type="curve" smooth="yes"/>
      <point x="65" y="0" type="line"/>
      <point x="65" y="-3"/>
      <point x="65" y="-35"/>
      <point x="65" y="-35" type="curve" smooth="yes"/>
      <point x="65" y="-35"/>
      <point x="175" y="35"/>
    </contour>
    <contour>
      <point x="175" y="89" type="curve"/>
      <point x="65" y="60" type="line"/>
      <point x="65" y="-35" type="line"/>
      <point x="75" y="-35"/>
      <point x="158" y="18"/>
      <point x="175" y="35" type="curve" smooth="yes"/>
      <point x="271" y="131"/>
      <point x="344" y="216"/>
      <point x="363" y="237" type="curve"/>
      <point x="473" y="338" type="line"/>
      <point x="473" y="348"/>
      <point x="469" y="357"/>
      <point x="462" y="357" type="curve" smooth="yes"/>
      <point x="455" y="357"/>
      <point x="375" y="293"/>
      <point x="329" y="268" type="curve"/>
      <point x="311" y="233"/>
      <point x="235" y="145"/>
    </contour>
    <contour>
      <point x="473" y="31" type="curve"/>
      <point x="473" y="303" type="line"/>
      <point x="473" y="314"/>
      <point x="473" y="332"/>
      <point x="473" y="338" type="curve" smooth="yes"/>
      <point x="473" y="338"/>
      <point x="363" y="268"/>
      <point x="363" y="268" type="curve" smooth="yes"/>
      <point x="363" y="258"/>
      <point x="363" y="244"/>
      <point x="363" y="244" type="curve" smooth="yes"/>
      <point x="363" y="-5" type="line"/>
      <point x="363" y="-18"/>
      <point x="353" y="-36"/>
      <point x="360" y="-36" type="curve" smooth="yes"/>
      <point x="367" y="-36"/>
      <point x="473" y="7"/>
    </contour>
  </outline>
</glyph>
<glyph name="three" format="2">
  <advance width="490"/>
  <unicode hex="0033"/>
  <anchor x="408" y="0" name="bottom"/>
  <anchor x="361.2" y="-26.2" name="bottomSerif-length"/>
  <anchor x="408" y="623.65384" name="top"/>
  <anchor x="353" y="603" name="topSerif"/>
  <outline>
    <contour>
      <point x="175" y="134" type="curve"/>
      <point x="175" y="678" type="line"/>
      <point x="175" y="689"/>
      <point x="172" y="710"/>
      <point x="166" y="713" type="curve" smooth="yes"/>
      <point x="158" y="717"/>
      <point x="19" y="633"/>
      <point x="19" y="623" type="curve" smooth="yes"/>
      <point x="19" y="611"/>
      <point x="65" y="629"/>
      <point x="65" y="570" type="curve" smooth="yes"/>
      <point x="65" y="99" type="line"/>
      <point x="65" y="96"/>
      <point x="65" y="64"/>
      <point x="65" y="64" type="curve" smooth="yes"/>
      <point x="65" y="64"/>
      <point x="175" y="134"/>
    </contour>
    <contour>
      <point x="175" y="188" type="curve"/>
      <point x="65" y="159" type="line"/>
      <point x="65" y="64" type="line"/>
      <point x="75" y="64"/>
      <point x="158" y="119"/>
      <point x="175" y="134" type="curve" smooth="yes"/>
      <point x="252" y="203"/>
      <point x="360" y="305"/>
      <point x="379" y="326" type="curve"/>
      <point x="363" y="372" type="line"/>
      <point x="345" y="337"/>
      <point x="235" y="244"/>
    </contour>
    <contour>
      <point x="463" y="31" type="curve"/>
      <point x="463" y="620" type="line"/>
      <point x="463" y="631"/>
      <point x="463" y="649"/>
      <point x="463" y="655" type="curve" smooth="yes"/>
      <point x="463" y="655"/>
      <point x="353" y="585"/>
      <point x="353" y="585" type="curve" smooth="yes"/>
      <point x="353" y="575"/>
      <point x="353" y="561"/>
      <point x="353" y="561" type="curve" smooth="yes"/>
      <point x="353" y="-5" type="line"/>
      <point x="353" y="-18"/>
      <point x="343" y="-36"/>
      <point x="350" y="-36" type="curve" smooth="yes"/>
      <point x="357" y="-36"/>
      <point x="463" y="7"/>
    </contour>
    <contour>
      <point x="164" y="429" type="curve"/>
      <point x="164" y="378" type="line"/>
      <point x="225" y="431"/>
      <point x="305" y="490"/>
      <point x="353" y="561" type="curve"/>
      <point x="463" y="655" type="line"/>
      <point x="463" y="665"/>
      <point x="459" y="674"/>
      <point x="452" y="674" type="curve" smooth="yes"/>
      <point x="445" y="674"/>
      <point x="368" y="624"/>
      <point x="334" y="601" type="curve"/>
      <point x="316" y="566"/>
      <point x="216" y="468"/>
    </contour>
  </outline>
</glyph>
<glyph name="four" format="2">
  <advance width="560"/>
  <unicode hex="0034"/>
  <anchor x="477" y="0" name="bottom"/>
  <anchor x="430.2" y="-26.2" name="bottomSerif-length"/>
  <anchor x="477" y="640" name="top"/>
  <anchor x="422" y="623" name="topSerif"/>
  <outline>
    <contour>
      <point x="140" y="670" type="curve" smooth="yes"/>
      <point x="134" y="670"/>
      <point x="21" y="611"/>
      <point x="21" y="599" type="curve" smooth="yes"/>
      <point x="21" y="591"/>
      <point x="209" y="435"/>
      <point x="226" y="435" type="curve" smooth="yes"/>
      <point x="254" y="435"/>
      <point x="329" y="504"/>
      <point x="422" y="575" type="curve"/>
      <point x="532" y="675" type="line"/>
      <point x="532" y="689"/>
      <point x="526" y="697"/>
      <point x="521" y="697" type="curve" smooth="yes"/>
      <point x="511" y="697"/>
      <point x="344" y="561"/>
      <point x="289" y="529" type="curve"/>
      <point x="243" y="554"/>
      <point x="146" y="670"/>
    </contour>
    <contour>
      <point x="532" y="31" type="curve"/>
      <point x="532" y="640" type="line"/>
      <point x="532" y="651"/>
      <point x="532" y="669"/>
      <point x="532" y="675" type="curve" smooth="yes"/>
      <point x="532" y="675"/>
      <point x="422" y="605"/>
      <point x="422" y="605" type="curve" smooth="yes"/>
      <point x="422" y="595"/>
      <point x="422" y="581"/>
      <point x="422" y="581" type="curve" smooth="yes"/>
      <point x="422" y="-5" type="line"/>
      <point x="422" y="-18"/>
      <point x="412" y="-36"/>
      <point x="419" y="-36" type="curve" smooth="yes"/>
      <point x="426" y="-36"/>
      <point x="532" y="7"/>
    </contour>
  </outline>
</glyph>
<glyph name="five" format="2">
  <advance width="570"/>
  <unicode hex="0035"/>
  <anchor x="98" y="0" name="bottom"/>
  <anchor x="51.2" y="-26.2" name="bottomSerif-length"/>
  <anchor x="98" y="632.37179" name="top"/>
  <anchor x="43" y="613.66667" name="topSerif"/>
  <outline>
    <contour>
      <point x="153" y="670" type="curve" smooth="yes"/>
      <point x="147" y="670"/>
      <point x="27" y="606"/>
      <point x="27" y="603" type="curve" smooth="yes"/>
      <point x="27" y="597"/>
      <point x="43" y="589"/>
      <point x="43" y="576" type="curve"/>
      <point x="153" y="539" type="line"/>
      <point x="202" y="480"/>
      <point x="243" y="425"/>
      <point x="258" y="425" type="curve" smooth="yes"/>
      <point x="278" y="425"/>
      <point x="355" y="503"/>
      <point x="435" y="554" type="curve"/>
      <point x="545" y="644" type="line"/>
      <point x="545" y="658"/>
      <point x="539" y="666"/>
      <point x="534" y="666" type="curve" smooth="yes"/>
      <point x="524" y="666"/>
      <point x="385" y="559"/>
      <point x="316" y="523" type="curve"/>
      <point x="253" y="580"/>
      <point x="166" y="670"/>
    </contour>
    <contour>
      <point x="545" y="31" type="curve"/>
      <point x="545" y="609" type="line"/>
      <point x="545" y="620"/>
      <point x="545" y="638"/>
      <point x="545" y="644" type="curve" smooth="yes"/>
      <point x="545" y="644"/>
      <point x="435" y="574"/>
      <point x="435" y="574" type="curve" smooth="yes"/>
      <point x="435" y="564"/>
      <point x="435" y="550"/>
      <point x="435" y="550" type="curve" smooth="yes"/>
      <point x="435" y="-5" type="line"/>
      <point x="435" y="-18"/>
      <point x="425" y="-36"/>
      <point x="432" y="-36" type="curve" smooth="yes"/>
      <point x="439" y="-36"/>
      <point x="545" y="7"/>
    </contour>
    <contour>
      <point x="153" y="31" type="curve"/>
      <point x="153" y="631" type="line"/>
      <point x="153" y="642"/>
      <point x="153" y="660"/>
      <point x="153" y="666" type="curve" smooth="yes"/>
      <point x="153" y="666"/>
      <point x="43" y="596"/>
      <point x="43" y="596" type="curve" smooth="yes"/>
      <point x="43" y="586"/>
      <point x="43" y="572"/>
      <point x="43" y="572" type="curve" smooth="yes"/>
      <point x="43" y="-5" type="line"/>
      <point x="43" y="-18"/>
      <point x="33" y="-36"/>
      <point x="40" y="-36" type="curve" smooth="yes"/>
      <point x="47" y="-36"/>
      <point x="153" y="7"/>
    </contour>
  </outline>
</glyph>
<glyph name="six" format="2">
  <advance width="570"/>
  <unicode hex="0036"/>
  <anchor x="292" y="147" name="bottom"/>
  <anchor x="245.2" y="120.8" name="bottomSerif-length"/>
  <anchor x="292" y="536.90385" name="top"/>
  <anchor x="237" y="464" name="topSerif"/>
  <outline>
    <contour>
      <point x="153" y="670" type="curve" smooth="yes"/>
      <point x="147" y="670"/>
      <point x="27" y="606"/>
      <point x="27" y="603" type="curve" smooth="yes"/>
      <point x="27" y="597"/>
      <point x="43" y="589"/>
      <point x="43" y="576" type="curve"/>
      <point x="153" y="539" type="line"/>
      <point x="187" y="509"/>
      <point x="225" y="472"/>
      <point x="237" y="449" type="curve"/>
      <point x="347" y="495" type="line"/>
      <point x="364" y="509"/>
      <point x="404" y="534"/>
      <point x="435" y="554" type="curve"/>
      <point x="545" y="644" type="line"/>
      <point x="545" y="658"/>
      <point x="539" y="666"/>
      <point x="534" y="666" type="curve" smooth="yes"/>
      <point x="524" y="666"/>
      <point x="390" y="580"/>
      <point x="304" y="522" type="curve"/>
      <point x="238" y="588"/>
      <point x="166" y="670"/>
    </contour>
    <contour>
      <point x="545" y="31" type="curve"/>
      <point x="545" y="609" type="line"/>
      <point x="545" y="620"/>
      <point x="545" y="638"/>
      <point x="545" y="644" type="curve" smooth="yes"/>
      <point x="545" y="644"/>
      <point x="435" y="574"/>
      <point x="435" y="574" type="curve" smooth="yes"/>
      <point x="435" y="564"/>
      <point x="435" y="550"/>
      <point x="435" y="550" type="curve" smooth="yes"/>
      <point x="435" y="-5" type="line"/>
      <point x="435" y="-18"/>
      <point x="425" y="-36"/>
      <point x="432" y="-36" type="curve" smooth="yes"/>
      <point x="439" y="-36"/>
      <point x="545" y="7"/>
    </contour>
    <contour>
      <point x="153" y="31" type="curve"/>
      <point x="153" y="631" type="line"/>
      <point x="153" y="642"/>
      <point x="153" y="660"/>
      <point x="153" y="666" type="curve" smooth="yes"/>
      <point x="153" y="666"/>
      <point x="43" y="596"/>
      <point x="43" y="596" type="curve" smooth="yes"/>
      <point x="43" y="586"/>
      <point x="43" y="572"/>
      <point x="43" y="572" type="curve" smooth="yes"/>
      <point x="43" y="-5" type="line"/>
      <point x="43" y="-18"/>
      <point x="33" y="-36"/>
      <point x="40" y="-36" type="curve" smooth="yes"/>
      <point x="47" y="-36"/>
      <point x="153" y="7"/>
    </contour>
    <contour>
      <point x="347" y="178" type="curve"/>
      <point x="347" y="471" type="line"/>
      <point x="347" y="483"/>
      <point x="347" y="501"/>
      <point x="347" y="506" type="curve" smooth="yes"/>
      <point x="347" y="506"/>
      <point x="237" y="457"/>
      <point x="237" y="457" type="curve" smooth="yes"/>
      <point x="237" y="447"/>
      <point x="237" y="429"/>
      <point x="237" y="429" type="curve" smooth="yes"/>
      <point x="237" y="142" type="line"/>
      <point x="237" y="129"/>
      <point x="227" y="111"/>
      <point x="234" y="111" type="curve" smooth="yes"/>
      <point x="241" y="111"/>
      <point x="347" y="154"/>
    </contour>
  </outline>
</glyph>
<glyph name="seven" format="2">
  <advance width="580"/>
  <unicode hex="0037"/>
  <anchor x="118" y="0" name="bottom"/>
  <anchor x="71.2" y="-26.2" name="bottomSerif-length"/>
  <anchor x="118" y="640" name="top"/>
  <anchor x="27" y="623" name="topSerif"/>
  <outline>
    <contour>
      <point x="171" y="247" type="curve"/>
      <point x="165" y="103" type="line"/>
      <point x="185" y="91"/>
      <point x="285" y="-29"/>
      <point x="310" y="-29" type="curve" smooth="yes"/>
      <point x="329" y="-29"/>
      <point x="561" y="173"/>
      <point x="561" y="185" type="curve" smooth="yes"/>
      <point x="561" y="207"/>
      <point x="391" y="363"/>
      <point x="361" y="363" type="curve" smooth="yes"/>
      <point x="349" y="363"/>
      <point x="251" y="297"/>
      <point x="251" y="289" type="curve" smooth="yes"/>
      <point x="251" y="277"/>
      <point x="423" y="180"/>
      <point x="464" y="96" type="curve"/>
      <point x="473" y="134" type="line"/>
      <point x="428" y="94"/>
      <point x="373" y="63"/>
      <point x="361" y="63" type="curve" smooth="yes"/>
      <point x="349" y="63"/>
      <point x="198" y="219"/>
    </contour>
    <contour>
      <point x="173" y="31" type="curve"/>
      <point x="173" y="678" type="line"/>
      <point x="173" y="689"/>
      <point x="170" y="710"/>
      <point x="164" y="713" type="curve" smooth="yes"/>
      <point x="156" y="717"/>
      <point x="17" y="633"/>
      <point x="17" y="623" type="curve" smooth="yes"/>
      <point x="17" y="611"/>
      <point x="63" y="629"/>
      <point x="63" y="570" type="curve" smooth="yes"/>
      <point x="63" y="-5" type="line"/>
      <point x="63" y="-18"/>
      <point x="53" y="-36"/>
      <point x="60" y="-36" type="curve" smooth="yes"/>
      <point x="67" y="-36"/>
      <point x="173" y="7"/>
    </contour>
  </outline>
</glyph>
<glyph name="eight" format="2">
  <advance width="580"/>
  <unicode hex="0038"/>
  <anchor x="118" y="0" name="bottom"/>
  <anchor x="71.2" y="-26.2" name="bottomSerif-length"/>
  <anchor x="118" y="640" name="top"/>
  <anchor x="27" y="623" name="topSerif"/>
  <outline>
    <contour>
      <point x="171" y="247" type="curve"/>
      <point x="165" y="103" type="line"/>
      <point x="185" y="91"/>
      <point x="285" y="-29"/>
      <point x="310" y="-29" type="curve" smooth="yes"/>
      <point x="329" y="-29"/>
      <point x="561" y="173"/>
      <point x="561" y="185" type="curve" smooth="yes"/>
      <point x="561" y="207"/>
      <point x="208" y="499"/>
      <point x="160" y="529" type="curve"/>
      <point x="161" y="404" type="line"/>
      <point x="222" y="360"/>
      <point x="423" y="180"/>
      <point x="464" y="96" type="curve"/>
      <point x="473" y="134" type="line"/>
      <point x="428" y="94"/>
      <point x="373" y="63"/>
      <point x="361" y="63" type="curve" smooth="yes"/>
      <point x="349" y="63"/>
      <point x="198" y="219"/>
    </contour>
    <contour>
      <point x="173" y="31" type="curve"/>
      <point x="173" y="678" type="line"/>
      <point x="173" y="689"/>
      <point x="170" y="710"/>
      <point x="164" y="713" type="curve" smooth="yes"/>
      <point x="156" y="717"/>
      <point x="17" y="633"/>
      <point x="17" y="623" type="curve" smooth="yes"/>
      <point x="17" y="611"/>
      <point x="63" y="629"/>
      <point x="63" y="570" type="curve" smooth="yes"/>
      <point x="63" y="-5" type="line"/>
      <point x="63" y="-18"/>
      <point x="53" y="-36"/>
      <point x="60" y="-36" type="curve" smooth="yes"/>
      <point x="67" y="-36"/>
      <point x="173" y="7"/>
    </contour>
    <contour>
      <point x="314" y="393" type="curve"/>
      <point x="321" y="356" type="line"/>
      <point x="438" y="438"/>
      <point x="493" y="496"/>
      <point x="493" y="508" type="curve" smooth="yes"/>
      <point x="493" y="530"/>
      <point x="332" y="694"/>
      <point x="302" y="694" type="curve" smooth="yes"/>
      <point x="290" y="694"/>
      <point x="198" y="634"/>
      <point x="198" y="626" type="curve" smooth="yes"/>
      <point x="198" y="614"/>
      <point x="355" y="508"/>
      <point x="396" y="419" type="curve"/>
      <point x="390" y="454" type="line"/>
      <point x="373" y="433"/>
      <point x="336" y="408"/>
    </contour>
  </outline>
</glyph>
<glyph name="nine" format="2">
  <advance width="610"/>
  <unicode hex="0039"/>
  <anchor x="118" y="0" name="bottom"/>
  <anchor x="71.2" y="-26.2" name="bottomSerif-length"/>
  <anchor x="118" y="640" name="top"/>
  <anchor x="27" y="623" name="topSerif"/>
  <outline>
    <contour>
      <point x="399" y="375" type="curve"/>
      <point x="399" y="507" type="line"/>
      <point x="399" y="518"/>
      <point x="396" y="539"/>
      <point x="390" y="542" type="curve" smooth="yes"/>
      <point x="382" y="546"/>
      <point x="243" y="462"/>
      <point x="243" y="452" type="curve" smooth="yes"/>
      <point x="243" y="440"/>
      <point x="289" y="458"/>
      <point x="289" y="399" type="curve" smooth="yes"/>
      <point x="289" y="339" type="line"/>
      <point x="289" y="326"/>
      <point x="279" y="308"/>
      <point x="286" y="308" type="curve" smooth="yes"/>
      <point x="293" y="308"/>
      <point x="399" y="351"/>
    </contour>
    <contour>
      <point x="575" y="668" type="curve" smooth="yes"/>
      <point x="566" y="668"/>
      <point x="429" y="585"/>
      <point x="385" y="550" type="curve"/>
      <point x="335" y="526"/>
      <point x="243" y="462"/>
      <point x="243" y="452" type="curve"/>
      <point x="378" y="526" type="line"/>
      <point x="404" y="550"/>
      <point x="474" y="586"/>
      <point x="474" y="507" type="curve"/>
      <point x="584" y="644" type="line"/>
      <point x="584" y="660"/>
      <point x="581" y="668"/>
    </contour>
    <contour>
      <point x="584" y="161" type="curve"/>
      <point x="584" y="609" type="line"/>
      <point x="584" y="620"/>
      <point x="584" y="638"/>
      <point x="584" y="644" type="curve" smooth="yes"/>
      <point x="584" y="644"/>
      <point x="474" y="574"/>
      <point x="474" y="574" type="curve" smooth="yes"/>
      <point x="474" y="564"/>
      <point x="474" y="550"/>
      <point x="474" y="550" type="curve" smooth="yes"/>
      <point x="474" y="126" type="line"/>
      <point x="474" y="123"/>
      <point x="474" y="91"/>
      <point x="474" y="91" type="curve" smooth="yes"/>
      <point x="474" y="91"/>
      <point x="584" y="161"/>
    </contour>
    <contour>
      <point x="173" y="31" type="curve"/>
      <point x="173" y="678" type="line"/>
      <point x="173" y="689"/>
      <point x="170" y="710"/>
      <point x="164" y="713" type="curve" smooth="yes"/>
      <point x="156" y="717"/>
      <point x="17" y="633"/>
      <point x="17" y="623" type="curve" smooth="yes"/>
      <point x="17" y="611"/>
      <point x="63" y="629"/>
      <point x="63" y="570" type="curve" smooth="yes"/>
      <point x="63" y="-5" type="line"/>
      <point x="63" y="-18"/>
      <point x="53" y="-36"/>
      <point x="60" y="-36" type="curve" smooth="yes"/>
      <point x="67" y="-36"/>
      <point x="173" y="7"/>
    </contour>
    <contour>
      <point x="165" y="251" type="curve"/>
      <point x="165" y="103" type="line"/>
      <point x="229" y="53"/>
      <point x="283" y="-35"/>
      <point x="309" y="-35" type="curve" smooth="yes"/>
      <point x="320" y="-35"/>
      <point x="584" y="145"/>
      <point x="584" y="161" type="curve"/>
      <point x="474" y="108" type="line"/>
      <point x="457" y="93"/>
      <point x="415" y="66"/>
      <point x="382" y="51" type="curve"/>
      <point x="283" y="135"/>
      <point x="234" y="182"/>
    </contour>
  </outline>
</glyph>
<glyph name="question" format="2">
  <advance width="460"/>
  <unicode hex="003F"/>
  <anchor x="392.4" y="360.15" name="tail"/>
  <outline>
    <contour>
      <point x="166" y="325" type="curve" smooth="yes"/>
      <point x="166" y="185" type="line"/>
      <point x="276" y="255" type="line"/>
      <point x="276" y="356" type="line"/>
      <point x="361" y="405"/>
      <point x="428" y="455"/>
      <point x="428" y="555" type="curve" smooth="yes"/>
      <point x="428" y="686"/>
      <point x="311" y="716"/>
      <point x="238" y="716" type="curve" smooth="yes"/>
      <point x="130" y="716"/>
      <point x="63" y="651"/>
      <point x="29" y="590" type="curve" smooth="yes"/>
      <point x="10" y="557"/>
      <point x="41" y="576"/>
      <point x="54" y="591" type="curve" smooth="yes"/>
      <point x="108" y="651"/>
      <point x="144" y="665"/>
      <point x="188" y="665" type="curve" smooth="yes"/>
      <point x="271" y="665"/>
      <point x="309" y="614"/>
      <point x="309" y="550" type="curve" smooth="yes"/>
      <point x="309" y="425"/>
      <point x="166" y="353"/>
    </contour>
    <component base="period" xOffset="90"/>
    <contour>
      <point x="166" y="219" type="curve"/>
      <point x="166" y="184" type="line"/>
      <point x="205" y="184"/>
      <point x="358" y="296"/>
      <point x="399" y="359" type="curve" smooth="yes"/>
      <point x="406" y="370"/>
      <point x="403" y="377"/>
      <point x="389" y="365" type="curve" smooth="yes"/>
      <point x="318" y="301"/>
      <point x="256" y="266"/>
    </contour>
  </outline>
</glyph>
<glyph name="at" format="2">
  <advance width="680"/>
  <unicode hex="0040"/>
  <outline>
    <contour>
      <point x="369" y="181" type="curve" smooth="yes"/>
      <point x="369" y="501" type="line"/>
      <point x="369" y="512"/>
      <point x="366" y="536"/>
      <point x="351" y="536" type="curve" smooth="yes"/>
      <point x="301" y="536"/>
      <point x="37" y="284"/>
      <point x="37" y="125" type="curve" smooth="yes"/>
      <point x="37" y="25"/>
      <point x="140" y="-73"/>
      <point x="299" y="-73" type="curve" smooth="yes"/>
      <point x="513" y="-73"/>
      <point x="642" y="105"/>
      <point x="642" y="345" type="curve" smooth="yes"/>
      <point x="642" y="524"/>
      <point x="570" y="729"/>
      <point x="393" y="729" type="curve" smooth="yes"/>
      <point x="222" y="729"/>
      <point x="11" y="536"/>
      <point x="11" y="412" type="curve" smooth="yes"/>
      <point x="11" y="342"/>
      <point x="77" y="353"/>
      <point x="77" y="437" type="curve" smooth="yes"/>
      <point x="77" y="554"/>
      <point x="205" y="681"/>
      <point x="335" y="681" type="curve" smooth="yes"/>
      <point x="514" y="681"/>
      <point x="533" y="443"/>
      <point x="533" y="337" type="curve" smooth="yes"/>
      <point x="533" y="76"/>
      <point x="417" y="-20"/>
      <point x="292" y="-20" type="curve" smooth="yes"/>
      <point x="188" y="-20"/>
      <point x="152" y="46"/>
      <point x="152" y="180" type="curve" smooth="yes"/>
      <point x="152" y="285"/>
      <point x="174" y="350"/>
      <point x="253" y="431" type="curve"/>
      <point x="257" y="424"/>
      <point x="259" y="415"/>
      <point x="259" y="393" type="curve" smooth="yes"/>
      <point x="259" y="145" type="line" smooth="yes"/>
      <point x="259" y="132"/>
      <point x="249" y="114"/>
      <point x="254" y="114" type="curve" smooth="yes"/>
      <point x="263" y="114"/>
      <point x="369" y="157"/>
    </contour>
  </outline>
</glyph>
<glyph name="A" format="2">
  <advance width="650"/>
  <unicode hex="0041"/>
  <anchor x="345" y="0" name="bottom"/>
  <anchor x="393" y="-4" name="ogonek"/>
  <anchor x="473" y="640" name="top"/>
  <anchor x="308.9" y="300.1" name="bottomSerif-length"/>
  <anchor x="260" y="608.5" name="topSerif"/>
  <outline>
    <contour>
      <point x="303" y="599" type="curve"/>
      <point x="276" y="607" type="line"/>
      <point x="199" y="380"/>
      <point x="178" y="332"/>
      <point x="38" y="23" type="curve"/>
      <point x="100" y="106" type="line"/>
      <point x="182" y="236"/>
      <point x="273" y="466"/>
    </contour>
    <contour>
      <point x="21" y="-3" type="curve" smooth="yes"/>
      <point x="38" y="-3"/>
      <point x="84" y="50"/>
      <point x="102" y="67" type="curve" smooth="yes"/>
      <point x="120" y="84"/>
      <point x="204" y="167"/>
      <point x="221" y="167" type="curve" smooth="yes"/>
      <point x="238" y="167"/>
      <point x="372" y="-31"/>
      <point x="396" y="-31" type="curve" smooth="yes"/>
      <point x="420" y="-31"/>
      <point x="628" y="160"/>
      <point x="628" y="178" type="curve"/>
      <point x="518" y="119" type="line"/>
      <point x="518" y="106"/>
      <point x="475" y="81"/>
      <point x="468" y="81" type="curve" smooth="yes"/>
      <point x="456" y="81"/>
      <point x="323" y="270"/>
      <point x="303" y="270" type="curve" smooth="yes"/>
      <point x="283" y="270"/>
      <point x="116" y="127"/>
      <point x="100" y="115" type="curve" smooth="yes"/>
      <point x="84" y="103"/>
      <point x="6" y="-3"/>
    </contour>
    <contour>
      <point x="628" y="177" type="curve"/>
      <point x="628" y="665" type="line"/>
      <point x="628" y="676"/>
      <point x="625" y="697"/>
      <point x="619" y="700" type="curve" smooth="yes"/>
      <point x="611" y="704"/>
      <point x="472" y="620"/>
      <point x="472" y="610" type="curve" smooth="yes"/>
      <point x="472" y="598"/>
      <point x="518" y="616"/>
      <point x="518" y="557" type="curve" smooth="yes"/>
      <point x="518" y="142" type="line"/>
      <point x="518" y="139"/>
      <point x="518" y="107"/>
      <point x="518" y="107" type="curve" smooth="yes"/>
      <point x="518" y="107"/>
      <point x="628" y="177"/>
    </contour>
    <contour>
      <point x="416" y="362" type="curve"/>
      <point x="416" y="664" type="line"/>
      <point x="416" y="675"/>
      <point x="413" y="696"/>
      <point x="407" y="699" type="curve" smooth="yes"/>
      <point x="399" y="703"/>
      <point x="250" y="619"/>
      <point x="250" y="609" type="curve" smooth="yes"/>
      <point x="250" y="594"/>
      <point x="306" y="617"/>
      <point x="306" y="556" type="curve" smooth="yes"/>
      <point x="306" y="326" type="line"/>
      <point x="306" y="310"/>
      <point x="289" y="290"/>
      <point x="298" y="290" type="curve" smooth="yes"/>
      <point x="305" y="290"/>
      <point x="416" y="335"/>
    </contour>
  </outline>
</glyph>
<glyph name="B" format="2">
  <advance width="600"/>
  <unicode hex="0042"/>
  <anchor x="317" y="0" name="bottom"/>
  <anchor x="329" y="640" name="top"/>
  <anchor x="450" y="3" name="bottomSerif-length"/>
  <anchor x="427" y="623.0606" name="topSerif"/>
  <anchor x="76" y="11" name="left"/>
  <anchor x="482.06062" y="11" name="right"/>
  <anchor x="514.06062" y="35" name="rightSerif-length"/>
  <outline>
    <contour>
      <point x="103" y="357" type="line"/>
      <point x="103" y="302" type="line"/>
      <point x="213" y="302" type="line"/>
      <point x="213" y="357" type="line"/>
    </contour>
    <contour>
      <point x="213" y="0" type="curve"/>
      <point x="213" y="678" type="line"/>
      <point x="213" y="689"/>
      <point x="210" y="710"/>
      <point x="204" y="713" type="curve" smooth="yes"/>
      <point x="196" y="717"/>
      <point x="57" y="633"/>
      <point x="57" y="623" type="curve" smooth="yes"/>
      <point x="57" y="611"/>
      <point x="103" y="629"/>
      <point x="103" y="570" type="curve" smooth="yes"/>
      <point x="103" y="35" type="line"/>
      <point x="103" y="32"/>
      <point x="103" y="0"/>
      <point x="103" y="0" type="curve" smooth="yes"/>
      <point x="103" y="0"/>
      <point x="213" y="0"/>
    </contour>
    <contour>
      <point x="573" y="79" type="curve"/>
      <point x="573" y="678" type="line"/>
      <point x="573" y="689"/>
      <point x="570" y="710"/>
      <point x="564" y="713" type="curve" smooth="yes"/>
      <point x="556" y="717"/>
      <point x="417" y="633"/>
      <point x="417" y="623" type="curve" smooth="yes"/>
      <point x="417" y="611"/>
      <point x="463" y="629"/>
      <point x="463" y="570" type="curve" smooth="yes"/>
      <point x="463" y="44" type="line"/>
      <point x="463" y="17"/>
      <point x="427" y="-6"/>
      <point x="440" y="-6" type="curve" smooth="yes"/>
      <point x="448" y="-6"/>
      <point x="573" y="44"/>
    </contour>
    <contour>
      <point x="475" y="357" type="curve"/>
      <point x="203" y="357" type="line"/>
      <point x="203" y="357"/>
      <point x="157" y="357"/>
      <point x="157" y="357" type="curve" smooth="yes"/>
      <point x="157" y="357"/>
      <point x="157" y="302"/>
      <point x="157" y="302" type="curve"/>
      <point x="485" y="302" type="line"/>
      <point x="485" y="302"/>
      <point x="485" y="357"/>
      <point x="485" y="357" type="curve" smooth="yes"/>
      <point x="485" y="357"/>
      <point x="475" y="357"/>
    </contour>
    <contour>
      <point x="482" y="39" type="curve"/>
      <point x="122" y="39" type="line"/>
      <point x="114" y="39"/>
      <point x="112" y="48"/>
      <point x="105" y="48" type="curve" smooth="yes"/>
      <point x="98" y="48"/>
      <point x="7" y="-16"/>
      <point x="27" y="-16" type="curve"/>
      <point x="450" y="-16" type="line"/>
      <point x="462" y="-16"/>
      <point x="512" y="19"/>
      <point x="524" y="35" type="curve" smooth="yes"/>
      <point x="529" y="42"/>
      <point x="495" y="39"/>
    </contour>
  </outline>
</glyph>
<glyph name="C" format="2">
  <advance width="680"/>
  <unicode hex="0043"/>
  <anchor x="352" y="0" name="ogonek"/>
  <anchor x="366" y="640" name="top"/>
  <outline>
    <contour>
      <point x="68" y="615" type="curve" smooth="yes"/>
      <point x="68" y="603"/>
      <point x="108" y="607"/>
      <point x="108" y="556" type="curve" smooth="yes"/>
      <point x="108" y="525"/>
      <point x="123" y="496"/>
      <point x="137" y="496" type="curve" smooth="yes"/>
      <point x="166" y="496"/>
      <point x="179" y="626"/>
      <point x="333" y="626" type="curve" smooth="yes"/>
      <point x="472" y="626"/>
      <point x="523" y="521"/>
      <point x="523" y="327" type="curve" smooth="yes"/>
      <point x="523" y="131"/>
      <point x="471" y="16"/>
      <point x="352" y="16" type="curve" smooth="yes"/>
      <point x="239" y="16"/>
      <point x="199" y="118"/>
      <point x="194" y="294" type="curve"/>
      <point x="551" y="294" type="line"/>
      <point x="551" y="349" type="line"/>
      <point x="194" y="349" type="line"/>
      <point x="123" y="349"/>
      <point x="59" y="357"/>
      <point x="50" y="347" type="curve" smooth="yes"/>
      <point x="41" y="337"/>
      <point x="81" y="304"/>
      <point x="81" y="219" type="curve" smooth="yes"/>
      <point x="81" y="81"/>
      <point x="188" y="-37"/>
      <point x="352" y="-37" type="curve" smooth="yes"/>
      <point x="526" y="-37"/>
      <point x="642" y="95"/>
      <point x="642" y="326" type="curve" smooth="yes"/>
      <point x="642" y="557"/>
      <point x="526" y="679"/>
      <point x="393" y="679" type="curve" smooth="yes"/>
      <point x="331" y="679"/>
      <point x="256" y="652"/>
      <point x="223" y="630" type="curve"/>
      <point x="223" y="665"/>
      <point x="217" y="702"/>
      <point x="209" y="702" type="curve" smooth="yes"/>
      <point x="201" y="702"/>
      <point x="68" y="625"/>
    </contour>
  </outline>
</glyph>
<glyph name="D" format="2">
  <advance width="640"/>
  <unicode hex="0044"/>
  <anchor x="350" y="0" name="bottom"/>
  <anchor x="408" y="640" name="top"/>
  <anchor x="259" y="628" name="left"/>
  <anchor x="543" y="628" name="right"/>
  <anchor x="575" y="652" name="rightSerif-length"/>
  <anchor x="509.9" y="-29.9" name="bottomSerif-length"/>
  <anchor x="471" y="623" name="topSerif"/>
  <outline>
    <contour>
      <point x="297" y="369" type="curve" smooth="yes"/>
      <point x="297" y="678" type="line"/>
      <point x="297" y="689"/>
      <point x="294" y="710"/>
      <point x="288" y="713" type="curve" smooth="yes"/>
      <point x="280" y="717"/>
      <point x="141" y="633"/>
      <point x="141" y="623" type="curve" smooth="yes"/>
      <point x="141" y="611"/>
      <point x="187" y="629"/>
      <point x="187" y="570" type="curve" smooth="yes"/>
      <point x="187" y="336" type="line" smooth="yes"/>
      <point x="187" y="318"/>
      <point x="188" y="295"/>
      <point x="164" y="279" type="curve" smooth="yes"/>
      <point x="148" y="268"/>
      <point x="43" y="217"/>
      <point x="43" y="209" type="curve" smooth="yes"/>
      <point x="43" y="197"/>
      <point x="89" y="215"/>
      <point x="89" y="156" type="curve" smooth="yes"/>
      <point x="89" y="-4" type="line" smooth="yes"/>
      <point x="89" y="-20"/>
      <point x="72" y="-40"/>
      <point x="81" y="-40" type="curve" smooth="yes"/>
      <point x="88" y="-40"/>
      <point x="199" y="5"/>
      <point x="199" y="32" type="curve" smooth="yes"/>
      <point x="199" y="109"/>
      <point x="199" y="173"/>
      <point x="199" y="250" type="curve" smooth="yes"/>
      <point x="199" y="261"/>
      <point x="192" y="278"/>
      <point x="187" y="281" type="curve"/>
      <point x="234" y="305"/>
      <point x="297" y="337"/>
    </contour>
    <contour>
      <point x="406" y="56" type="curve"/>
      <point x="196" y="56" type="line"/>
      <point x="196" y="56"/>
      <point x="172" y="56"/>
      <point x="172" y="56" type="curve" smooth="yes"/>
      <point x="172" y="56"/>
      <point x="101" y="1"/>
      <point x="101" y="1" type="curve"/>
      <point x="378" y="1" type="line"/>
      <point x="391" y="1"/>
      <point x="443" y="45"/>
      <point x="454" y="60" type="curve" smooth="yes"/>
      <point x="459" y="67"/>
      <point x="421" y="56"/>
    </contour>
    <contour>
      <point x="533" y="656" type="curve"/>
      <point x="305" y="656" type="line"/>
      <point x="305" y="656"/>
      <point x="259" y="656"/>
      <point x="259" y="656" type="curve" smooth="yes"/>
      <point x="259" y="656"/>
      <point x="259" y="601"/>
      <point x="259" y="601" type="curve"/>
      <point x="543" y="601" type="line"/>
      <point x="543" y="601"/>
      <point x="543" y="656"/>
      <point x="543" y="656" type="curve" smooth="yes"/>
      <point x="543" y="656"/>
      <point x="533" y="656"/>
    </contour>
    <contour>
      <point x="617" y="32" type="curve"/>
      <point x="617" y="678" type="line"/>
      <point x="617" y="689"/>
      <point x="614" y="710"/>
      <point x="608" y="713" type="curve" smooth="yes"/>
      <point x="600" y="717"/>
      <point x="461" y="633"/>
      <point x="461" y="623" type="curve" smooth="yes"/>
      <point x="461" y="611"/>
      <point x="507" y="629"/>
      <point x="507" y="570" type="curve" smooth="yes"/>
      <point x="507" y="-4" type="line"/>
      <point x="507" y="-20"/>
      <point x="490" y="-40"/>
      <point x="499" y="-40" type="curve" smooth="yes"/>
      <point x="506" y="-40"/>
      <point x="617" y="5"/>
    </contour>
  </outline>
</glyph>
<glyph name="E" format="2">
  <advance width="640"/>
  <unicode hex="0045"/>
  <anchor x="504" y="36" name="ogonek"/>
  <anchor x="368" y="630" name="top"/>
  <anchor x="344" y="0" name="bottom"/>
  <anchor x="291.9" y="-29.9" name="bottomSerif-length"/>
  <anchor x="289" y="359" name="topSerif"/>
  <anchor x="350" y="31" name="left"/>
  <anchor x="527.27273" y="31" name="right"/>
  <anchor x="559.27273" y="55" name="rightSerif-length"/>
  <outline>
    <contour>
      <point x="270" y="361" type="curve"/>
      <point x="256" y="328"/>
      <point x="188" y="239"/>
      <point x="126" y="154" type="curve" smooth="yes"/>
      <point x="114" y="138"/>
      <point x="72" y="136"/>
      <point x="72" y="118" type="curve" smooth="yes"/>
      <point x="72" y="84"/>
      <point x="59" y="72"/>
      <point x="67" y="72" type="curve" smooth="yes"/>
      <point x="82" y="72"/>
      <point x="176" y="138"/>
      <point x="182" y="149" type="curve" smooth="yes"/>
      <point x="236" y="249"/>
      <point x="265" y="285"/>
      <point x="289" y="317" type="curve"/>
      <point x="330" y="361"/>
      <point x="370" y="365"/>
      <point x="399" y="411" type="curve"/>
      <point x="399" y="492"/>
      <point x="370" y="429"/>
    </contour>
    <contour>
      <point x="617" y="93" type="curve"/>
      <point x="617" y="679" type="line"/>
      <point x="617" y="690"/>
      <point x="614" y="711"/>
      <point x="608" y="714" type="curve" smooth="yes"/>
      <point x="600" y="718"/>
      <point x="461" y="634"/>
      <point x="461" y="624" type="curve" smooth="yes"/>
      <point x="461" y="612"/>
      <point x="507" y="630"/>
      <point x="507" y="571" type="curve" smooth="yes"/>
      <point x="507" y="58" type="line"/>
      <point x="507" y="31"/>
      <point x="471" y="8"/>
      <point x="484" y="8" type="curve" smooth="yes"/>
      <point x="492" y="8"/>
      <point x="617" y="58"/>
    </contour>
    <contour>
      <point x="182" y="149" type="curve"/>
      <point x="182" y="678" type="line"/>
      <point x="182" y="689"/>
      <point x="179" y="710"/>
      <point x="173" y="713" type="curve" smooth="yes"/>
      <point x="165" y="717"/>
      <point x="26" y="633"/>
      <point x="26" y="623" type="curve" smooth="yes"/>
      <point x="26" y="611"/>
      <point x="72" y="629"/>
      <point x="72" y="570" type="curve" smooth="yes"/>
      <point x="72" y="114" type="line"/>
      <point x="72" y="111"/>
      <point x="72" y="79"/>
      <point x="72" y="79" type="curve" smooth="yes"/>
      <point x="72" y="79"/>
      <point x="182" y="149"/>
    </contour>
    <contour>
      <point x="527" y="59" type="curve"/>
      <point x="396" y="59" type="line"/>
      <point x="396" y="59"/>
      <point x="372" y="59"/>
      <point x="372" y="59" type="curve" smooth="yes"/>
      <point x="372" y="59"/>
      <point x="301" y="4"/>
      <point x="301" y="4" type="curve"/>
      <point x="495" y="4" type="line"/>
      <point x="507" y="4"/>
      <point x="557" y="39"/>
      <point x="569" y="55" type="curve" smooth="yes"/>
      <point x="574" y="62"/>
      <point x="540" y="59"/>
    </contour>
    <contour>
      <point x="399" y="32" type="curve"/>
      <point x="399" y="376" type="line"/>
      <point x="399" y="387"/>
      <point x="399" y="405"/>
      <point x="399" y="411" type="curve" smooth="yes"/>
      <point x="399" y="411"/>
      <point x="289" y="341"/>
      <point x="289" y="341" type="curve" smooth="yes"/>
      <point x="289" y="331"/>
      <point x="289" y="317"/>
      <point x="289" y="317" type="curve" smooth="yes"/>
      <point x="289" y="-4" type="line"/>
      <point x="289" y="-20"/>
      <point x="272" y="-40"/>
      <point x="281" y="-40" type="curve" smooth="yes"/>
      <point x="288" y="-40"/>
      <point x="399" y="5"/>
    </contour>
  </outline>
</glyph>
<glyph name="F" format="2">
  <advance width="640"/>
  <unicode hex="0046"/>
  <anchor x="149" y="-11" name="bottom"/>
  <anchor x="102.2" y="-37.2" name="bottomSerif-length"/>
  <anchor x="149" y="322.18766" name="top"/>
  <anchor x="94" y="236.60607" name="topSerif"/>
  <anchor x="152" y="614" name="left"/>
  <anchor x="523.21211" y="614" name="right"/>
  <anchor x="555.21211" y="638" name="rightSerif-length"/>
  <outline>
    <contour>
      <point x="164" y="667" type="curve" smooth="yes"/>
      <point x="149" y="667"/>
      <point x="27" y="597"/>
      <point x="27" y="584" type="curve" smooth="yes"/>
      <point x="27" y="570"/>
      <point x="232" y="473"/>
      <point x="232" y="369" type="curve" smooth="yes"/>
      <point x="232" y="273"/>
      <point x="55" y="250"/>
      <point x="55" y="238" type="curve" smooth="yes"/>
      <point x="55" y="217"/>
      <point x="176" y="158"/>
      <point x="192" y="158" type="curve" smooth="yes"/>
      <point x="215" y="158"/>
      <point x="292" y="297"/>
      <point x="292" y="387" type="curve" smooth="yes"/>
      <point x="292" y="498"/>
      <point x="176" y="667"/>
    </contour>
    <contour>
      <point x="575" y="409" type="curve"/>
      <point x="575" y="672" type="line"/>
      <point x="575" y="683"/>
      <point x="572" y="704"/>
      <point x="566" y="707" type="curve" smooth="yes"/>
      <point x="558" y="711"/>
      <point x="419" y="627"/>
      <point x="419" y="617" type="curve" smooth="yes"/>
      <point x="419" y="605"/>
      <point x="465" y="623"/>
      <point x="465" y="564" type="curve" smooth="yes"/>
      <point x="465" y="374" type="line"/>
      <point x="465" y="353"/>
      <point x="442" y="333"/>
      <point x="452" y="333" type="curve" smooth="yes"/>
      <point x="459" y="333"/>
      <point x="575" y="379"/>
    </contour>
    <contour>
      <point x="370" y="39" type="curve"/>
      <point x="210" y="39" type="line"/>
      <point x="210" y="39"/>
      <point x="186" y="39"/>
      <point x="186" y="39" type="curve" smooth="yes"/>
      <point x="186" y="39"/>
      <point x="115" y="-16"/>
      <point x="115" y="-16" type="curve"/>
      <point x="462" y="-16" type="line"/>
      <point x="492" y="-16"/>
      <point x="628" y="309"/>
      <point x="616" y="309" type="curve" smooth="yes"/>
      <point x="592" y="309"/>
      <point x="451" y="39"/>
    </contour>
    <contour>
      <point x="204" y="20" type="curve"/>
      <point x="204" y="254" type="line"/>
      <point x="204" y="265"/>
      <point x="204" y="283"/>
      <point x="204" y="289" type="curve" smooth="yes"/>
      <point x="204" y="289"/>
      <point x="94" y="219"/>
      <point x="94" y="219" type="curve" smooth="yes"/>
      <point x="94" y="209"/>
      <point x="94" y="195"/>
      <point x="94" y="195" type="curve" smooth="yes"/>
      <point x="94" y="-16" type="line"/>
      <point x="94" y="-29"/>
      <point x="84" y="-47"/>
      <point x="91" y="-47" type="curve" smooth="yes"/>
      <point x="98" y="-47"/>
      <point x="204" y="-4"/>
    </contour>
    <contour>
      <point x="513" y="642" type="curve"/>
      <point x="198" y="642" type="line"/>
      <point x="198" y="642"/>
      <point x="152" y="642"/>
      <point x="152" y="642" type="curve" smooth="yes"/>
      <point x="152" y="642"/>
      <point x="152" y="587"/>
      <point x="152" y="587" type="curve"/>
      <point x="523" y="587" type="line"/>
      <point x="523" y="587"/>
      <point x="523" y="642"/>
      <point x="523" y="642" type="curve" smooth="yes"/>
      <point x="523" y="642"/>
      <point x="513" y="642"/>
    </contour>
  </outline>
</glyph>
<glyph name="G" format="2">
  <advance width="650"/>
  <unicode hex="0047"/>
  <anchor x="384" y="0" name="bottom"/>
  <anchor x="391" y="697" name="top"/>
  <anchor x="523.2" y="-34.2" name="bottomSerif-length"/>
  <anchor x="515" y="496" name="topSerif"/>
  <outline>
    <contour>
      <point x="412" y="705" type="curve" smooth="yes"/>
      <point x="345" y="705"/>
      <point x="38" y="590"/>
      <point x="38" y="324" type="curve" smooth="yes"/>
      <point x="38" y="103"/>
      <point x="286" y="-13"/>
      <point x="321" y="-13" type="curve" smooth="yes"/>
      <point x="332" y="-13"/>
      <point x="428" y="49"/>
      <point x="428" y="57" type="curve" smooth="yes"/>
      <point x="428" y="72"/>
      <point x="154" y="153"/>
      <point x="154" y="382" type="curve" smooth="yes"/>
      <point x="154" y="570"/>
      <point x="349" y="656"/>
      <point x="391" y="678" type="curve" smooth="yes"/>
      <point x="428" y="697"/>
      <point x="428" y="705"/>
    </contour>
    <contour>
      <point x="428" y="57" type="curve"/>
      <point x="428" y="435" type="line"/>
      <point x="428" y="446"/>
      <point x="425" y="467"/>
      <point x="419" y="470" type="curve" smooth="yes"/>
      <point x="411" y="474"/>
      <point x="272" y="390"/>
      <point x="272" y="380" type="curve" smooth="yes"/>
      <point x="272" y="368"/>
      <point x="318" y="386"/>
      <point x="318" y="327" type="curve" smooth="yes"/>
      <point x="318" y="22" type="line"/>
      <point x="318" y="19"/>
      <point x="318" y="-13"/>
      <point x="318" y="-13" type="curve" smooth="yes"/>
      <point x="318" y="-13"/>
      <point x="428" y="57"/>
    </contour>
    <contour>
      <point x="616" y="595" type="curve" smooth="yes"/>
      <point x="592" y="595"/>
      <point x="475" y="516"/>
      <point x="414" y="472" type="curve"/>
      <point x="358" y="448"/>
      <point x="272" y="390"/>
      <point x="272" y="379" type="curve"/>
      <point x="325" y="379" type="line"/>
      <point x="442" y="463"/>
      <point x="515" y="532"/>
      <point x="515" y="452" type="curve" smooth="yes"/>
      <point x="515" y="404"/>
      <point x="625" y="506"/>
      <point x="625" y="539" type="curve" smooth="yes"/>
      <point x="625" y="572"/>
      <point x="627" y="595"/>
    </contour>
    <contour>
      <point x="625" y="23" type="curve"/>
      <point x="625" y="513" type="line"/>
      <point x="625" y="524"/>
      <point x="625" y="542"/>
      <point x="625" y="548" type="curve" smooth="yes"/>
      <point x="625" y="548"/>
      <point x="515" y="478"/>
      <point x="515" y="478" type="curve" smooth="yes"/>
      <point x="515" y="468"/>
      <point x="515" y="454"/>
      <point x="515" y="454" type="curve" smooth="yes"/>
      <point x="515" y="-13" type="line"/>
      <point x="515" y="-26"/>
      <point x="505" y="-44"/>
      <point x="512" y="-44" type="curve" smooth="yes"/>
      <point x="519" y="-44"/>
      <point x="625" y="-1"/>
    </contour>
  </outline>
</glyph>
<glyph name="H" format="2">
  <advance width="630"/>
  <unicode hex="0048"/>
  <anchor x="306" y="0" name="bottom"/>
  <anchor x="336" y="640" name="top"/>
  <anchor x="76.2" y="-26.2" name="bottomSerif-length"/>
  <anchor x="32" y="623" name="topSerif"/>
  <outline>
    <contour>
      <point x="605" y="546" type="curve" smooth="yes"/>
      <point x="605" y="597"/>
      <point x="605" y="659"/>
      <point x="605" y="665" type="curve" smooth="yes"/>
      <point x="605" y="687"/>
      <point x="526" y="652"/>
      <point x="478" y="652" type="curve" smooth="yes"/>
      <point x="137" y="652" type="line"/>
      <point x="137" y="597" type="line"/>
      <point x="495" y="597" type="line"/>
      <point x="495" y="438"/>
      <point x="505" y="274"/>
      <point x="385" y="154" type="curve"/>
      <point x="385" y="435" type="line" smooth="yes"/>
      <point x="385" y="446"/>
      <point x="382" y="467"/>
      <point x="376" y="470" type="curve" smooth="yes"/>
      <point x="368" y="474"/>
      <point x="229" y="390"/>
      <point x="229" y="380" type="curve" smooth="yes"/>
      <point x="229" y="368"/>
      <point x="275" y="386"/>
      <point x="275" y="327" type="curve" smooth="yes"/>
      <point x="275" y="99" type="line" smooth="yes"/>
      <point x="275" y="54"/>
      <point x="262" y="25"/>
      <point x="270" y="25" type="curve" smooth="yes"/>
      <point x="305" y="25"/>
      <point x="605" y="176"/>
    </contour>
    <contour>
      <point x="178" y="31" type="curve"/>
      <point x="178" y="678" type="line"/>
      <point x="178" y="689"/>
      <point x="175" y="710"/>
      <point x="169" y="713" type="curve" smooth="yes"/>
      <point x="161" y="717"/>
      <point x="22" y="633"/>
      <point x="22" y="623" type="curve" smooth="yes"/>
      <point x="22" y="611"/>
      <point x="68" y="629"/>
      <point x="68" y="570" type="curve" smooth="yes"/>
      <point x="68" y="-5" type="line"/>
      <point x="68" y="-18"/>
      <point x="58" y="-36"/>
      <point x="65" y="-36" type="curve" smooth="yes"/>
      <point x="72" y="-36"/>
      <point x="178" y="7"/>
    </contour>
  </outline>
</glyph>
<glyph name="I" format="2">
  <advance width="620"/>
  <unicode hex="0049"/>
  <anchor x="336" y="0" name="bottom"/>
  <anchor x="440" y="12" name="ogonek"/>
  <anchor x="365" y="629" name="top"/>
  <anchor x="128" y="11" name="left"/>
  <anchor x="438.60605" y="11" name="right"/>
  <anchor x="586.19979" y="219.09373" name="rightSerif-length"/>
  <anchor x="82.2" y="-38.2" name="bottomSerif-length"/>
  <anchor x="38" y="300" name="topSerif"/>
  <outline>
    <contour>
      <point x="406" y="39" type="curve"/>
      <point x="174" y="39" type="line"/>
      <point x="174" y="39"/>
      <point x="150" y="39"/>
      <point x="150" y="39" type="curve" smooth="yes"/>
      <point x="150" y="39"/>
      <point x="79" y="-16"/>
      <point x="79" y="-16" type="curve"/>
      <point x="463" y="-16" type="line"/>
      <point x="488" y="-16"/>
      <point x="599" y="226"/>
      <point x="594" y="231" type="curve" smooth="yes"/>
      <point x="578" y="233"/>
      <point x="468" y="39"/>
    </contour>
    <contour>
      <point x="411" y="43" type="curve"/>
      <point x="411" y="663" type="line"/>
      <point x="411" y="674"/>
      <point x="408" y="695"/>
      <point x="402" y="698" type="curve" smooth="yes"/>
      <point x="394" y="702"/>
      <point x="255" y="618"/>
      <point x="255" y="608" type="curve" smooth="yes"/>
      <point x="255" y="596"/>
      <point x="301" y="614"/>
      <point x="301" y="555" type="curve" smooth="yes"/>
      <point x="301" y="8" type="line"/>
      <point x="301" y="-17"/>
      <point x="269" y="-39"/>
      <point x="281" y="-39" type="curve" smooth="yes"/>
      <point x="289" y="-39"/>
      <point x="411" y="10"/>
    </contour>
    <contour>
      <point x="184" y="19" type="curve"/>
      <point x="184" y="355" type="line"/>
      <point x="184" y="366"/>
      <point x="181" y="387"/>
      <point x="175" y="390" type="curve" smooth="yes"/>
      <point x="167" y="394"/>
      <point x="28" y="310"/>
      <point x="28" y="300" type="curve" smooth="yes"/>
      <point x="28" y="288"/>
      <point x="74" y="306"/>
      <point x="74" y="247" type="curve" smooth="yes"/>
      <point x="74" y="-17" type="line"/>
      <point x="74" y="-30"/>
      <point x="64" y="-48"/>
      <point x="71" y="-48" type="curve" smooth="yes"/>
      <point x="78" y="-48"/>
      <point x="184" y="-5"/>
    </contour>
    <contour>
      <point x="342" y="210" type="line"/>
      <point x="342" y="201" type="line"/>
      <point x="352" y="201" type="line"/>
      <point x="352" y="210" type="line"/>
    </contour>
  </outline>
</glyph>
<glyph name="J" format="2">
  <advance width="620"/>
  <unicode hex="004A"/>
  <anchor x="339" y="640" name="top"/>
  <anchor x="121" y="6" name="left"/>
  <anchor x="525.63634" y="6" name="right"/>
  <anchor x="557.63634" y="30" name="rightSerif-length"/>
  <anchor x="537" y="-21" name="bottom"/>
  <anchor x="490.2" y="-47.2" name="bottomSerif-length"/>
  <anchor x="446" y="530.66667" name="topSerif"/>
  <outline>
    <contour>
      <point x="516" y="34" type="curve"/>
      <point x="167" y="34" type="line"/>
      <point x="167" y="34"/>
      <point x="139" y="34"/>
      <point x="139" y="34" type="curve" smooth="yes"/>
      <point x="139" y="34"/>
      <point x="82" y="-21"/>
      <point x="82" y="-21" type="curve"/>
      <point x="526" y="-21" type="line"/>
      <point x="526" y="-21"/>
      <point x="526" y="34"/>
      <point x="526" y="34" type="curve" smooth="yes"/>
      <point x="526" y="34"/>
      <point x="516" y="34"/>
    </contour>
    <contour>
      <point x="44" y="500" type="curve" smooth="yes"/>
      <point x="44" y="488"/>
      <point x="90" y="506"/>
      <point x="90" y="447" type="curve" smooth="yes"/>
      <point x="90" y="345" type="line" smooth="yes"/>
      <point x="90" y="262"/>
      <point x="59" y="143"/>
      <point x="32" y="91" type="curve" smooth="yes"/>
      <point x="28" y="84"/>
      <point x="34" y="82"/>
      <point x="39" y="88" type="curve" smooth="yes"/>
      <point x="108" y="168"/>
      <point x="200" y="318"/>
      <point x="200" y="358" type="curve" smooth="yes"/>
      <point x="200" y="518" type="line" smooth="yes"/>
      <point x="200" y="524"/>
      <point x="198" y="560"/>
      <point x="198" y="578" type="curve"/>
      <point x="242" y="600"/>
      <point x="257" y="596"/>
      <point x="257" y="451" type="curve" smooth="yes"/>
      <point x="257" y="451"/>
      <point x="257" y="369"/>
      <point x="257" y="278" type="curve" smooth="yes"/>
      <point x="257" y="205"/>
      <point x="80" y="-6"/>
      <point x="62" y="-30" type="curve" smooth="yes"/>
      <point x="51" y="-45"/>
      <point x="59" y="-45"/>
      <point x="68" y="-39" type="curve" smooth="yes"/>
      <point x="129" y="0"/>
      <point x="367" y="199"/>
      <point x="367" y="300" type="curve" smooth="yes"/>
      <point x="367" y="650" type="line" smooth="yes"/>
      <point x="367" y="661"/>
      <point x="364" y="682"/>
      <point x="358" y="685" type="curve" smooth="yes"/>
      <point x="339" y="693"/>
      <point x="266" y="640"/>
      <point x="174" y="581" type="curve"/>
      <point x="145" y="571"/>
      <point x="44" y="510"/>
    </contour>
    <contour>
      <point x="592" y="10" type="curve"/>
      <point x="592" y="586" type="line"/>
      <point x="592" y="597"/>
      <point x="589" y="618"/>
      <point x="583" y="621" type="curve" smooth="yes"/>
      <point x="575" y="625"/>
      <point x="436" y="541"/>
      <point x="436" y="531" type="curve" smooth="yes"/>
      <point x="436" y="519"/>
      <point x="482" y="537"/>
      <point x="482" y="478" type="curve" smooth="yes"/>
      <point x="482" y="-26" type="line"/>
      <point x="482" y="-39"/>
      <point x="472" y="-57"/>
      <point x="479" y="-57" type="curve" smooth="yes"/>
      <point x="486" y="-57"/>
      <point x="592" y="-14"/>
    </contour>
  </outline>
</glyph>
<glyph name="K" format="2">
  <advance width="645"/>
  <unicode hex="004B"/>
  <anchor x="294" y="0" name="bottom"/>
  <anchor x="24.11865" y="6.76207" name="bottomSerif-length"/>
  <anchor x="134" y="466.90385" name="top"/>
  <anchor x="79" y="394" name="topSerif"/>
  <anchor x="165" y="627" name="left"/>
  <anchor x="498.27273" y="627" name="right"/>
  <anchor x="530.27273" y="651" name="rightSerif-length"/>
  <anchor x="629" y="108" name="tail"/>
  <outline>
    <contour>
      <point x="549" y="35" type="curve"/>
      <point x="549" y="678" type="line"/>
      <point x="549" y="689"/>
      <point x="546" y="710"/>
      <point x="540" y="713" type="curve" smooth="yes"/>
      <point x="532" y="717"/>
      <point x="393" y="633"/>
      <point x="393" y="623" type="curve" smooth="yes"/>
      <point x="393" y="611"/>
      <point x="439" y="629"/>
      <point x="439" y="570" type="curve" smooth="yes"/>
      <point x="439" y="0" type="line"/>
      <point x="439" y="-3"/>
      <point x="439" y="-35"/>
      <point x="439" y="-35" type="curve" smooth="yes"/>
      <point x="439" y="-35"/>
      <point x="549" y="35"/>
    </contour>
    <contour>
      <point x="488" y="655" type="curve"/>
      <point x="211" y="655" type="line"/>
      <point x="201" y="655"/>
      <point x="188" y="678"/>
      <point x="183" y="678" type="curve" smooth="yes"/>
      <point x="169" y="678"/>
      <point x="44" y="600"/>
      <point x="81" y="600" type="curve"/>
      <point x="498" y="600" type="line"/>
      <point x="498" y="600"/>
      <point x="498" y="655"/>
      <point x="498" y="655" type="curve" smooth="yes"/>
      <point x="498" y="655"/>
      <point x="488" y="655"/>
    </contour>
    <contour>
      <point x="189" y="119" type="curve"/>
      <point x="189" y="411" type="line"/>
      <point x="189" y="422"/>
      <point x="189" y="440"/>
      <point x="189" y="446" type="curve" smooth="yes"/>
      <point x="189" y="446"/>
      <point x="79" y="376"/>
      <point x="79" y="376" type="curve" smooth="yes"/>
      <point x="79" y="366"/>
      <point x="79" y="352"/>
      <point x="79" y="352" type="curve" smooth="yes"/>
      <point x="79" y="86" type="line"/>
      <point x="79" y="33"/>
      <point x="-8" y="0"/>
      <point x="16" y="0" type="curve" smooth="yes"/>
      <point x="27" y="0"/>
      <point x="189" y="64"/>
    </contour>
    <contour>
      <point x="454" y="495" type="curve"/>
      <point x="454" y="536" type="line"/>
      <point x="418" y="536"/>
      <point x="79" y="455"/>
      <point x="79" y="410" type="curve" smooth="yes"/>
      <point x="79" y="355" type="line"/>
      <point x="115" y="371"/>
      <point x="189" y="347"/>
      <point x="189" y="373" type="curve" smooth="yes"/>
      <point x="189" y="433"/>
      <point x="418" y="495"/>
    </contour>
    <contour>
      <point x="439" y="0" type="curve"/>
      <point x="439" y="-35" type="line"/>
      <point x="461" y="-35"/>
      <point x="595" y="56"/>
      <point x="636" y="104" type="curve" smooth="yes"/>
      <point x="645" y="115"/>
      <point x="641" y="121"/>
      <point x="625" y="112" type="curve" smooth="yes"/>
      <point x="573" y="83"/>
      <point x="541" y="61"/>
    </contour>
  </outline>
</glyph>
<glyph name="L" format="2">
  <advance width="470"/>
  <unicode hex="004C"/>
  <anchor x="222" y="0" name="bottom"/>
  <anchor x="232" y="650" name="top"/>
  <anchor x="264" y="-41" name="bottomSerif-length"/>
  <anchor x="228" y="623" name="topSerif"/>
  <anchor x="454" y="108" name="tail"/>
  <outline>
    <contour>
      <point x="108" y="520" type="line"/>
      <point x="108" y="470" type="line"/>
      <point x="140" y="470" type="line"/>
      <point x="140" y="520" type="line"/>
    </contour>
    <contour>
      <point x="180" y="35" type="curve"/>
      <point x="180" y="678" type="line"/>
      <point x="180" y="689"/>
      <point x="177" y="710"/>
      <point x="171" y="713" type="curve" smooth="yes"/>
      <point x="163" y="717"/>
      <point x="24" y="633"/>
      <point x="24" y="623" type="curve" smooth="yes"/>
      <point x="24" y="611"/>
      <point x="70" y="629"/>
      <point x="70" y="570" type="curve" smooth="yes"/>
      <point x="70" y="0" type="line"/>
      <point x="70" y="-3"/>
      <point x="70" y="-35"/>
      <point x="70" y="-35" type="curve" smooth="yes"/>
      <point x="70" y="-35"/>
      <point x="180" y="35"/>
    </contour>
    <contour>
      <point x="374" y="35" type="curve"/>
      <point x="374" y="678" type="line"/>
      <point x="374" y="689"/>
      <point x="371" y="710"/>
      <point x="365" y="713" type="curve" smooth="yes"/>
      <point x="357" y="717"/>
      <point x="218" y="633"/>
      <point x="218" y="623" type="curve" smooth="yes"/>
      <point x="218" y="611"/>
      <point x="264" y="629"/>
      <point x="264" y="570" type="curve" smooth="yes"/>
      <point x="264" y="0" type="line"/>
      <point x="264" y="-3"/>
      <point x="264" y="-35"/>
      <point x="264" y="-35" type="curve" smooth="yes"/>
      <point x="264" y="-35"/>
      <point x="374" y="35"/>
    </contour>
    <contour>
      <point x="70" y="0" type="curve"/>
      <point x="70" y="-35" type="line"/>
      <point x="99" y="-35"/>
      <point x="241" y="65"/>
      <point x="281" y="118" type="curve" smooth="yes"/>
      <point x="289" y="129"/>
      <point x="286" y="136"/>
      <point x="271" y="126" type="curve" smooth="yes"/>
      <point x="211" y="82"/>
      <point x="167" y="56"/>
    </contour>
    <contour>
      <point x="264" y="0" type="curve"/>
      <point x="264" y="-35" type="line"/>
      <point x="286" y="-35"/>
      <point x="420" y="56"/>
      <point x="461" y="104" type="curve" smooth="yes"/>
      <point x="470" y="115"/>
      <point x="466" y="121"/>
      <point x="450" y="112" type="curve" smooth="yes"/>
      <point x="398" y="83"/>
      <point x="366" y="61"/>
    </contour>
  </outline>
</glyph>
<glyph name="M" format="2">
  <advance width="620"/>
  <unicode hex="004D"/>
  <anchor x="326" y="0" name="bottom"/>
  <anchor x="358" y="572" name="top"/>
  <anchor x="90" y="11" name="left"/>
  <anchor x="505.99998" y="11" name="right"/>
  <anchor x="538" y="35" name="rightSerif-length"/>
  <anchor x="491.2" y="-26.2" name="bottomSerif-length"/>
  <anchor x="483" y="505.66666" name="topSerif"/>
  <outline>
    <contour>
      <point x="496" y="39" type="curve"/>
      <point x="136" y="39" type="line"/>
      <point x="136" y="39"/>
      <point x="90" y="39"/>
      <point x="90" y="39" type="curve" smooth="yes"/>
      <point x="90" y="39"/>
      <point x="90" y="-16"/>
      <point x="90" y="-16" type="curve"/>
      <point x="506" y="-16" type="line"/>
      <point x="506" y="-16"/>
      <point x="506" y="39"/>
      <point x="506" y="39" type="curve" smooth="yes"/>
      <point x="506" y="39"/>
      <point x="496" y="39"/>
    </contour>
    <contour>
      <point x="408" y="103" type="curve"/>
      <point x="408" y="453" type="line"/>
      <point x="408" y="464"/>
      <point x="405" y="485"/>
      <point x="399" y="488" type="curve" smooth="yes"/>
      <point x="391" y="492"/>
      <point x="252" y="408"/>
      <point x="252" y="398" type="curve" smooth="yes"/>
      <point x="252" y="386"/>
      <point x="298" y="404"/>
      <point x="298" y="345" type="curve" smooth="yes"/>
      <point x="298" y="70" type="line"/>
      <point x="298" y="26"/>
      <point x="231" y="-3"/>
      <point x="250" y="-3" type="curve" smooth="yes"/>
      <point x="260" y="-3"/>
      <point x="408" y="56"/>
    </contour>
    <contour>
      <point x="584" y="614" type="curve" smooth="yes"/>
      <point x="575" y="614"/>
      <point x="436" y="529"/>
      <point x="392" y="494" type="curve"/>
      <point x="324" y="455"/>
      <point x="252" y="408"/>
      <point x="252" y="398" type="curve"/>
      <point x="385" y="472" type="line"/>
      <point x="392" y="480"/>
      <point x="483" y="543"/>
      <point x="483" y="464" type="curve" smooth="yes"/>
      <point x="483" y="416"/>
      <point x="593" y="525"/>
      <point x="593" y="558" type="curve" smooth="yes"/>
      <point x="593" y="591"/>
      <point x="590" y="614"/>
    </contour>
    <contour>
      <point x="182" y="31" type="curve"/>
      <point x="182" y="678" type="line"/>
      <point x="182" y="689"/>
      <point x="179" y="710"/>
      <point x="173" y="713" type="curve" smooth="yes"/>
      <point x="165" y="717"/>
      <point x="26" y="633"/>
      <point x="26" y="623" type="curve" smooth="yes"/>
      <point x="26" y="611"/>
      <point x="72" y="629"/>
      <point x="72" y="570" type="curve" smooth="yes"/>
      <point x="72" y="-5" type="line"/>
      <point x="72" y="-18"/>
      <point x="62" y="-36"/>
      <point x="69" y="-36" type="curve" smooth="yes"/>
      <point x="76" y="-36"/>
      <point x="182" y="7"/>
    </contour>
    <contour>
      <point x="593" y="31" type="curve"/>
      <point x="593" y="523" type="line"/>
      <point x="593" y="534"/>
      <point x="593" y="552"/>
      <point x="593" y="558" type="curve" smooth="yes"/>
      <point x="593" y="558"/>
      <point x="483" y="488"/>
      <point x="483" y="488" type="curve" smooth="yes"/>
      <point x="483" y="478"/>
      <point x="483" y="464"/>
      <point x="483" y="464" type="curve" smooth="yes"/>
      <point x="483" y="-5" type="line"/>
      <point x="483" y="-18"/>
      <point x="473" y="-36"/>
      <point x="480" y="-36" type="curve" smooth="yes"/>
      <point x="487" y="-36"/>
      <point x="593" y="7"/>
    </contour>
  </outline>
</glyph>
<glyph name="N" format="2">
  <advance width="630"/>
  <unicode hex="004E"/>
  <anchor x="318" y="0" name="bottom"/>
  <anchor x="348" y="627" name="top"/>
  <anchor x="72" y="-6" name="bottomSerif-length"/>
  <anchor x="36" y="623" name="topSerif"/>
  <anchor x="287" y="11" name="left"/>
  <anchor x="518.45456" y="11" name="right"/>
  <anchor x="550.45456" y="35" name="rightSerif-length"/>
  <outline>
    <contour>
      <point x="503" y="538" type="curve"/>
      <point x="497" y="608" type="line"/>
      <point x="368" y="441"/>
      <point x="274" y="313"/>
      <point x="167" y="122" type="curve"/>
      <point x="72" y="42" type="line"/>
      <point x="72" y="8"/>
      <point x="59" y="-11"/>
      <point x="68" y="-11" type="curve" smooth="yes"/>
      <point x="80" y="-11"/>
      <point x="158" y="32"/>
      <point x="182" y="70" type="curve" smooth="yes"/>
      <point x="306" y="263"/>
      <point x="407" y="411"/>
    </contour>
    <contour>
      <point x="605" y="71" type="curve"/>
      <point x="605" y="678" type="line"/>
      <point x="605" y="689"/>
      <point x="602" y="710"/>
      <point x="596" y="713" type="curve" smooth="yes"/>
      <point x="588" y="717"/>
      <point x="449" y="633"/>
      <point x="449" y="623" type="curve" smooth="yes"/>
      <point x="449" y="611"/>
      <point x="495" y="629"/>
      <point x="495" y="570" type="curve" smooth="yes"/>
      <point x="495" y="36" type="line"/>
      <point x="495" y="9"/>
      <point x="459" y="-14"/>
      <point x="472" y="-14" type="curve" smooth="yes"/>
      <point x="480" y="-14"/>
      <point x="605" y="36"/>
    </contour>
    <contour>
      <point x="518" y="39" type="curve"/>
      <point x="333" y="39" type="line"/>
      <point x="323" y="39"/>
      <point x="310" y="62"/>
      <point x="305" y="62" type="curve" smooth="yes"/>
      <point x="291" y="62"/>
      <point x="166" y="-16"/>
      <point x="203" y="-16" type="curve"/>
      <point x="486" y="-16" type="line"/>
      <point x="498" y="-16"/>
      <point x="548" y="19"/>
      <point x="560" y="35" type="curve" smooth="yes"/>
      <point x="565" y="42"/>
      <point x="531" y="39"/>
    </contour>
    <contour>
      <point x="182" y="70" type="curve"/>
      <point x="182" y="678" type="line"/>
      <point x="182" y="689"/>
      <point x="179" y="710"/>
      <point x="173" y="713" type="curve" smooth="yes"/>
      <point x="165" y="717"/>
      <point x="26" y="633"/>
      <point x="26" y="623" type="curve" smooth="yes"/>
      <point x="26" y="611"/>
      <point x="72" y="629"/>
      <point x="72" y="570" type="curve" smooth="yes"/>
      <point x="72" y="35" type="line"/>
      <point x="72" y="32"/>
      <point x="72" y="0"/>
      <point x="72" y="0" type="curve" smooth="yes"/>
      <point x="72" y="0"/>
      <point x="182" y="70"/>
    </contour>
  </outline>
</glyph>
<glyph name="O" format="2">
  <advance width="650"/>
  <unicode hex="004F"/>
  <anchor x="326" y="-18" name="bottom"/>
  <anchor x="326" y="640" name="top"/>
  <anchor x="131" y="307" name="left"/>
  <anchor x="523" y="307" name="right"/>
  <anchor x="555" y="331" name="rightSerif-length"/>
  <outline>
    <contour>
      <point x="326" y="-37" type="curve" smooth="yes"/>
      <point x="503" y="-37"/>
      <point x="619" y="95"/>
      <point x="619" y="326" type="curve" smooth="yes"/>
      <point x="619" y="557"/>
      <point x="503" y="689"/>
      <point x="326" y="689" type="curve" smooth="yes"/>
      <point x="149" y="689"/>
      <point x="33" y="557"/>
      <point x="33" y="326" type="curve" smooth="yes"/>
      <point x="33" y="95"/>
      <point x="149" y="-37"/>
    </contour>
    <contour>
      <point x="326" y="16" type="curve" smooth="yes"/>
      <point x="204" y="16"/>
      <point x="152" y="131"/>
      <point x="152" y="326" type="curve" smooth="yes"/>
      <point x="152" y="521"/>
      <point x="204" y="636"/>
      <point x="326" y="636" type="curve" smooth="yes"/>
      <point x="448" y="636"/>
      <point x="500" y="521"/>
      <point x="500" y="326" type="curve" smooth="yes"/>
      <point x="500" y="131"/>
      <point x="448" y="16"/>
    </contour>
    <contour>
      <point x="513" y="335" type="curve"/>
      <point x="177" y="335" type="line"/>
      <point x="177" y="335"/>
      <point x="131" y="335"/>
      <point x="131" y="335" type="curve" smooth="yes"/>
      <point x="131" y="335"/>
      <point x="131" y="280"/>
      <point x="131" y="280" type="curve"/>
      <point x="523" y="280" type="line"/>
      <point x="523" y="280"/>
      <point x="523" y="335"/>
      <point x="523" y="335" type="curve" smooth="yes"/>
      <point x="523" y="335"/>
      <point x="513" y="335"/>
    </contour>
  </outline>
</glyph>
<glyph name="P" format="2">
  <advance width="620"/>
  <unicode hex="0050"/>
  <anchor x="530" y="693" name="tail"/>
  <anchor x="126" y="0" name="bottom"/>
  <anchor x="68.6" y="-33.6" name="bottomSerif-length"/>
  <anchor x="126" y="640" name="top"/>
  <anchor x="35" y="623" name="topSerif"/>
  <anchor x="130" y="11" name="left"/>
  <anchor x="537.84847" y="11" name="right"/>
  <anchor x="574.70847" y="42.74" name="rightSerif-length"/>
  <outline>
    <contour>
      <point x="534" y="697" type="curve" smooth="yes"/>
      <point x="467" y="645"/>
      <point x="343" y="574"/>
      <point x="343" y="560" type="curve" smooth="yes"/>
      <point x="343" y="540"/>
      <point x="509" y="415"/>
      <point x="509" y="322" type="curve" smooth="yes"/>
      <point x="509" y="259"/>
      <point x="456" y="224"/>
      <point x="412" y="224" type="curve" smooth="yes"/>
      <point x="301" y="224"/>
      <point x="181" y="273"/>
      <point x="181" y="329" type="curve"/>
      <point x="116" y="234" type="line"/>
      <point x="110" y="191"/>
      <point x="260" y="160"/>
      <point x="379" y="160" type="curve" smooth="yes"/>
      <point x="458" y="160"/>
      <point x="601" y="287"/>
      <point x="601" y="372" type="curve" smooth="yes"/>
      <point x="601" y="428"/>
      <point x="510" y="580"/>
      <point x="462" y="611" type="curve"/>
      <point x="476" y="620"/>
      <point x="526" y="658"/>
      <point x="545" y="689" type="curve" smooth="yes"/>
      <point x="554" y="704"/>
      <point x="549" y="709"/>
    </contour>
    <contour>
      <point x="181" y="33" type="curve"/>
      <point x="181" y="678" type="line"/>
      <point x="181" y="689"/>
      <point x="178" y="710"/>
      <point x="172" y="713" type="curve" smooth="yes"/>
      <point x="164" y="717"/>
      <point x="25" y="633"/>
      <point x="25" y="623" type="curve" smooth="yes"/>
      <point x="25" y="611"/>
      <point x="71" y="629"/>
      <point x="71" y="570" type="curve" smooth="yes"/>
      <point x="71" y="-2" type="line"/>
      <point x="71" y="-23"/>
      <point x="48" y="-43"/>
      <point x="58" y="-43" type="curve" smooth="yes"/>
      <point x="65" y="-43"/>
      <point x="181" y="3"/>
    </contour>
    <contour>
      <point x="536" y="39" type="curve"/>
      <point x="176" y="39" type="line"/>
      <point x="176" y="39"/>
      <point x="152" y="39"/>
      <point x="152" y="39" type="curve" smooth="yes"/>
      <point x="152" y="39"/>
      <point x="81" y="-16"/>
      <point x="81" y="-16" type="curve"/>
      <point x="508" y="-16" type="line"/>
      <point x="521" y="-16"/>
      <point x="573" y="28"/>
      <point x="585" y="43" type="curve" smooth="yes"/>
      <point x="589" y="50"/>
      <point x="552" y="39"/>
    </contour>
  </outline>
</glyph>
<glyph name="Q" format="2">
  <advance width="640"/>
  <unicode hex="0051"/>
  <anchor x="146" y="616" name="left"/>
  <anchor x="542" y="616" name="right"/>
  <anchor x="574" y="640" name="rightSerif-length"/>
  <anchor x="560" y="0" name="bottom"/>
  <anchor x="507.9" y="-29.9" name="bottomSerif-length"/>
  <anchor x="560" y="640" name="top"/>
  <anchor x="469" y="623" name="topSerif"/>
  <outline>
    <contour>
      <point x="42" y="561" type="curve" smooth="yes"/>
      <point x="42" y="552"/>
      <point x="117" y="482"/>
      <point x="165" y="442" type="curve"/>
      <point x="110" y="377"/>
      <point x="60" y="302"/>
      <point x="60" y="228" type="curve" smooth="yes"/>
      <point x="60" y="113"/>
      <point x="182" y="11"/>
      <point x="307" y="11" type="curve" smooth="yes"/>
      <point x="420" y="11"/>
      <point x="535" y="95"/>
      <point x="543" y="114" type="curve"/>
      <point x="505" y="165" type="line"/>
      <point x="505" y="101"/>
      <point x="422" y="81"/>
      <point x="368" y="81" type="curve" smooth="yes"/>
      <point x="261" y="81"/>
      <point x="176" y="158"/>
      <point x="176" y="292" type="curve" smooth="yes"/>
      <point x="176" y="449"/>
      <point x="293" y="473"/>
      <point x="293" y="486" type="curve" smooth="yes"/>
      <point x="293" y="504"/>
      <point x="123" y="592"/>
      <point x="168" y="644" type="curve"/>
      <point x="143" y="644"/>
      <point x="42" y="573"/>
    </contour>
    <contour>
      <point x="542" y="644" type="curve"/>
      <point x="192" y="644" type="line"/>
      <point x="192" y="644"/>
      <point x="168" y="644"/>
      <point x="168" y="644" type="curve" smooth="yes"/>
      <point x="168" y="644"/>
      <point x="97" y="589"/>
      <point x="97" y="589" type="curve"/>
      <point x="510" y="589" type="line"/>
      <point x="510" y="589"/>
      <point x="584" y="644"/>
      <point x="584" y="644" type="curve" smooth="yes"/>
      <point x="584" y="644"/>
      <point x="555" y="644"/>
    </contour>
    <contour>
      <point x="615" y="32" type="curve"/>
      <point x="615" y="678" type="line"/>
      <point x="615" y="689"/>
      <point x="612" y="710"/>
      <point x="606" y="713" type="curve" smooth="yes"/>
      <point x="598" y="717"/>
      <point x="459" y="633"/>
      <point x="459" y="623" type="curve" smooth="yes"/>
      <point x="459" y="611"/>
      <point x="505" y="629"/>
      <point x="505" y="570" type="curve" smooth="yes"/>
      <point x="505" y="-4" type="line"/>
      <point x="505" y="-20"/>
      <point x="488" y="-40"/>
      <point x="497" y="-40" type="curve" smooth="yes"/>
      <point x="504" y="-40"/>
      <point x="615" y="5"/>
    </contour>
  </outline>
</glyph>
<glyph name="R" format="2">
  <advance width="610"/>
  <unicode hex="0052"/>
  <anchor x="314" y="0" name="bottom"/>
  <anchor x="324" y="640" name="top"/>
  <anchor x="116" y="11" name="left"/>
  <anchor x="491.75759" y="11" name="right"/>
  <anchor x="523.75759" y="35" name="rightSerif-length"/>
  <outline>
    <contour>
      <point x="463" y="691" type="line"/>
      <point x="463" y="707"/>
      <point x="435" y="698"/>
      <point x="395" y="685" type="curve" smooth="yes"/>
      <point x="280" y="647"/>
      <point x="84" y="540"/>
      <point x="63" y="317" type="curve" smooth="yes"/>
      <point x="53" y="210" type="line" smooth="yes"/>
      <point x="49" y="169"/>
      <point x="30" y="139"/>
      <point x="40" y="139" type="curve" smooth="yes"/>
      <point x="50" y="139"/>
      <point x="173" y="203"/>
      <point x="173" y="258" type="curve" smooth="yes"/>
      <point x="173" y="350" type="line" smooth="yes"/>
      <point x="173" y="482"/>
      <point x="249" y="590"/>
      <point x="378" y="640" type="curve" smooth="yes"/>
      <point x="463" y="675" type="line"/>
    </contour>
    <contour>
      <point x="492" y="39" type="curve"/>
      <point x="162" y="39" type="line"/>
      <point x="152" y="39"/>
      <point x="142" y="59"/>
      <point x="137" y="59" type="curve" smooth="yes"/>
      <point x="124" y="59"/>
      <point x="8" y="-16"/>
      <point x="41" y="-16" type="curve"/>
      <point x="460" y="-16" type="line"/>
      <point x="472" y="-16"/>
      <point x="522" y="19"/>
      <point x="534" y="35" type="curve" smooth="yes"/>
      <point x="539" y="42"/>
      <point x="505" y="39"/>
    </contour>
    <contour>
      <point x="463" y="340" type="curve"/>
      <point x="463" y="648" type="line"/>
      <point x="463" y="683" type="line"/>
      <point x="353" y="634" type="line"/>
      <point x="353" y="607" type="line"/>
      <point x="353" y="239" type="line" smooth="yes"/>
      <point x="353" y="226"/>
      <point x="343" y="208"/>
      <point x="351" y="208" type="curve" smooth="yes"/>
      <point x="357" y="208"/>
      <point x="427" y="239"/>
      <point x="456" y="270" type="curve" smooth="yes"/>
      <point x="466" y="280"/>
      <point x="475" y="277"/>
      <point x="475" y="234" type="curve" smooth="yes"/>
      <point x="475" y="35" type="line" smooth="yes"/>
      <point x="475" y="8"/>
      <point x="443" y="-9"/>
      <point x="456" y="-9" type="curve" smooth="yes"/>
      <point x="464" y="-9"/>
      <point x="585" y="35"/>
      <point x="585" y="70" type="curve" smooth="yes"/>
      <point x="585" y="342" type="line" smooth="yes"/>
      <point x="585" y="353"/>
      <point x="582" y="374"/>
      <point x="576" y="377" type="curve" smooth="yes"/>
      <point x="571" y="380"/>
      <point x="491" y="317"/>
      <point x="456" y="298" type="curve"/>
      <point x="459" y="304"/>
      <point x="463" y="322"/>
    </contour>
  </outline>
</glyph>
<glyph name="S" format="2">
  <advance width="640"/>
  <unicode hex="0053"/>
  <anchor x="315" y="0" name="bottom"/>
  <anchor x="513" y="0" name="ogonek"/>
  <anchor x="334" y="630" name="top"/>
  <anchor x="475.9" y="338.1" name="bottomSerif-length"/>
  <anchor x="457" y="622.57576" name="topSerif"/>
  <anchor x="157" y="616" name="left"/>
  <anchor x="508.57576" y="616" name="right"/>
  <anchor x="540.57576" y="640" name="rightSerif-length"/>
  <outline>
    <contour>
      <point x="183" y="32" type="curve"/>
      <point x="183" y="678" type="line"/>
      <point x="183" y="689"/>
      <point x="180" y="710"/>
      <point x="174" y="713" type="curve" smooth="yes"/>
      <point x="166" y="717"/>
      <point x="27" y="633"/>
      <point x="27" y="623" type="curve" smooth="yes"/>
      <point x="27" y="611"/>
      <point x="73" y="629"/>
      <point x="73" y="570" type="curve" smooth="yes"/>
      <point x="73" y="-4" type="line"/>
      <point x="73" y="-20"/>
      <point x="56" y="-40"/>
      <point x="65" y="-40" type="curve" smooth="yes"/>
      <point x="72" y="-40"/>
      <point x="183" y="5"/>
    </contour>
    <contour>
      <point x="569" y="39" type="curve"/>
      <point x="372" y="39" type="line"/>
      <point x="372" y="39"/>
      <point x="348" y="39"/>
      <point x="348" y="39" type="curve" smooth="yes"/>
      <point x="348" y="39"/>
      <point x="277" y="-16"/>
      <point x="277" y="-16" type="curve"/>
      <point x="540" y="-16" type="line"/>
      <point x="552" y="-16"/>
      <point x="604" y="25"/>
      <point x="615" y="40" type="curve" smooth="yes"/>
      <point x="620" y="47"/>
      <point x="583" y="39"/>
    </contour>
    <contour>
      <point x="383" y="43" type="curve"/>
      <point x="383" y="482" type="line"/>
      <point x="383" y="493"/>
      <point x="380" y="514"/>
      <point x="374" y="517" type="curve" smooth="yes"/>
      <point x="366" y="521"/>
      <point x="247" y="437"/>
      <point x="247" y="427" type="curve" smooth="yes"/>
      <point x="247" y="420"/>
      <point x="273" y="429"/>
      <point x="273" y="374" type="curve" smooth="yes"/>
      <point x="273" y="7" type="line"/>
      <point x="273" y="-6"/>
      <point x="263" y="-24"/>
      <point x="270" y="-24" type="curve" smooth="yes"/>
      <point x="277" y="-24"/>
      <point x="383" y="19"/>
    </contour>
    <contour>
      <point x="583" y="400" type="curve"/>
      <point x="583" y="678" type="line"/>
      <point x="583" y="689"/>
      <point x="580" y="710"/>
      <point x="574" y="713" type="curve" smooth="yes"/>
      <point x="566" y="717"/>
      <point x="447" y="633"/>
      <point x="447" y="623" type="curve" smooth="yes"/>
      <point x="447" y="616"/>
      <point x="473" y="625"/>
      <point x="473" y="570" type="curve" smooth="yes"/>
      <point x="473" y="364" type="line"/>
      <point x="473" y="348"/>
      <point x="456" y="328"/>
      <point x="465" y="328" type="curve" smooth="yes"/>
      <point x="472" y="328"/>
      <point x="583" y="373"/>
    </contour>
    <contour>
      <point x="509" y="644" type="curve"/>
      <point x="203" y="644" type="line"/>
      <point x="203" y="644"/>
      <point x="179" y="644"/>
      <point x="179" y="644" type="curve" smooth="yes"/>
      <point x="179" y="644"/>
      <point x="108" y="589"/>
      <point x="108" y="589" type="curve"/>
      <point x="477" y="589" type="line"/>
      <point x="477" y="589"/>
      <point x="551" y="644"/>
      <point x="551" y="644" type="curve" smooth="yes"/>
      <point x="551" y="644"/>
      <point x="522" y="644"/>
    </contour>
  </outline>
</glyph>
<glyph name="T" format="2">
  <advance width="580"/>
  <unicode hex="0054"/>
  <anchor x="274" y="-2" name="bottom"/>
  <anchor x="430" y="12" name="ogonek"/>
  <anchor x="321" y="620" name="top"/>
  <anchor x="135" y="621" name="left"/>
  <anchor x="505.99998" y="621" name="right"/>
  <anchor x="538" y="645" name="rightSerif-length"/>
  <anchor x="64" y="170" name="bottomSerif-length"/>
  <anchor x="36" y="622.60606" name="topSerif"/>
  <outline>
    <contour>
      <point x="470" y="418" type="curve"/>
      <point x="456" y="456" type="line"/>
      <point x="334" y="393"/>
      <point x="233" y="323"/>
      <point x="64" y="241" type="curve"/>
      <point x="64" y="176" type="line"/>
      <point x="64" y="150"/>
      <point x="293" y="328"/>
    </contour>
    <contour>
      <point x="469" y="39" type="curve"/>
      <point x="173" y="39" type="line"/>
      <point x="163" y="39"/>
      <point x="150" y="62"/>
      <point x="145" y="62" type="curve" smooth="yes"/>
      <point x="131" y="62"/>
      <point x="6" y="-16"/>
      <point x="43" y="-16" type="curve"/>
      <point x="437" y="-16" type="line"/>
      <point x="449" y="-16"/>
      <point x="499" y="19"/>
      <point x="511" y="35" type="curve" smooth="yes"/>
      <point x="516" y="42"/>
      <point x="482" y="39"/>
    </contour>
    <contour>
      <point x="554" y="71" type="curve"/>
      <point x="554" y="678" type="line"/>
      <point x="554" y="689"/>
      <point x="551" y="710"/>
      <point x="545" y="713" type="curve" smooth="yes"/>
      <point x="537" y="717"/>
      <point x="406" y="633"/>
      <point x="406" y="623" type="curve" smooth="yes"/>
      <point x="406" y="613"/>
      <point x="444" y="627"/>
      <point x="444" y="570" type="curve" smooth="yes"/>
      <point x="444" y="36" type="line"/>
      <point x="444" y="9"/>
      <point x="408" y="-14"/>
      <point x="421" y="-14" type="curve" smooth="yes"/>
      <point x="429" y="-14"/>
      <point x="554" y="36"/>
    </contour>
    <contour>
      <point x="174" y="246" type="curve"/>
      <point x="174" y="678" type="line"/>
      <point x="174" y="689"/>
      <point x="171" y="710"/>
      <point x="165" y="713" type="curve" smooth="yes"/>
      <point x="157" y="717"/>
      <point x="26" y="633"/>
      <point x="26" y="623" type="curve" smooth="yes"/>
      <point x="26" y="613"/>
      <point x="64" y="627"/>
      <point x="64" y="570" type="curve" smooth="yes"/>
      <point x="64" y="211" type="line"/>
      <point x="64" y="208"/>
      <point x="64" y="176"/>
      <point x="64" y="176" type="curve" smooth="yes"/>
      <point x="64" y="176"/>
      <point x="174" y="246"/>
    </contour>
    <contour>
      <point x="496" y="649" type="curve"/>
      <point x="181" y="649" type="line"/>
      <point x="181" y="649"/>
      <point x="157" y="649"/>
      <point x="157" y="649" type="curve" smooth="yes"/>
      <point x="157" y="649"/>
      <point x="86" y="594"/>
      <point x="86" y="594" type="curve"/>
      <point x="506" y="594" type="line"/>
      <point x="506" y="594"/>
      <point x="506" y="649"/>
      <point x="506" y="649" type="curve" smooth="yes"/>
      <point x="506" y="649"/>
      <point x="496" y="649"/>
    </contour>
  </outline>
</glyph>
<glyph name="U" format="2">
  <advance width="640"/>
  <unicode hex="0055"/>
  <anchor x="330" y="0" name="bottom"/>
  <anchor x="521" y="-5" name="ogonek"/>
  <anchor x="328" y="640" name="top"/>
  <anchor x="278.29564" y="0.16299" name="bottomSerif-length"/>
  <anchor x="257" y="343" name="topSerif"/>
  <anchor x="327" y="11" name="left"/>
  <anchor x="532" y="11" name="right"/>
  <anchor x="564" y="35" name="rightSerif-length"/>
  <outline>
    <contour>
      <point x="503" y="359" type="curve"/>
      <point x="613" y="359" type="line"/>
      <point x="613" y="600"/>
      <point x="493" y="689"/>
      <point x="326" y="689" type="curve" smooth="yes"/>
      <point x="159" y="689"/>
      <point x="39" y="600"/>
      <point x="39" y="359" type="curve"/>
      <point x="39" y="44" type="line" smooth="yes"/>
      <point x="39" y="-6"/>
      <point x="26" y="-28"/>
      <point x="34" y="-28" type="curve" smooth="yes"/>
      <point x="46" y="-28"/>
      <point x="149" y="28"/>
      <point x="149" y="65" type="curve" smooth="yes"/>
      <point x="149" y="359" type="line"/>
      <point x="150" y="564"/>
      <point x="214" y="636"/>
      <point x="326" y="636" type="curve" smooth="yes"/>
      <point x="438" y="636"/>
      <point x="503" y="564"/>
    </contour>
    <contour>
      <point x="613" y="33" type="curve"/>
      <point x="613" y="324" type="line"/>
      <point x="613" y="339"/>
      <point x="613" y="359"/>
      <point x="613" y="359" type="curve" smooth="yes"/>
      <point x="613" y="359"/>
      <point x="503" y="359"/>
      <point x="503" y="359" type="curve" smooth="yes"/>
      <point x="503" y="349"/>
      <point x="503" y="324"/>
      <point x="503" y="324" type="curve" smooth="yes"/>
      <point x="503" y="-3" type="line"/>
      <point x="503" y="-21"/>
      <point x="483" y="-41"/>
      <point x="493" y="-41" type="curve" smooth="yes"/>
      <point x="500" y="-41"/>
      <point x="613" y="4"/>
    </contour>
    <contour>
      <point x="390" y="70" type="curve"/>
      <point x="390" y="398" type="line"/>
      <point x="390" y="409"/>
      <point x="387" y="430"/>
      <point x="381" y="433" type="curve" smooth="yes"/>
      <point x="373" y="437"/>
      <point x="247" y="353"/>
      <point x="247" y="343" type="curve" smooth="yes"/>
      <point x="247" y="334"/>
      <point x="280" y="346"/>
      <point x="280" y="290" type="curve" smooth="yes"/>
      <point x="280" y="34" type="line"/>
      <point x="280" y="19"/>
      <point x="264" y="-5"/>
      <point x="271" y="-5" type="curve" smooth="yes"/>
      <point x="276" y="-5"/>
      <point x="390" y="49"/>
    </contour>
    <contour>
      <point x="527" y="39" type="curve"/>
      <point x="373" y="39" type="line"/>
      <point x="363" y="39"/>
      <point x="350" y="62"/>
      <point x="345" y="62" type="curve" smooth="yes"/>
      <point x="331" y="62"/>
      <point x="206" y="-16"/>
      <point x="243" y="-16" type="curve"/>
      <point x="516" y="-16" type="line"/>
      <point x="516" y="-16"/>
      <point x="553" y="39"/>
      <point x="553" y="39" type="curve" smooth="yes"/>
      <point x="553" y="39"/>
      <point x="533" y="39"/>
    </contour>
  </outline>
</glyph>
<glyph name="V" format="2">
  <advance width="600"/>
  <unicode hex="0056"/>
  <anchor x="116" y="11" name="left"/>
  <anchor x="528" y="11" name="right"/>
  <anchor x="564.86002" y="42.74" name="rightSerif-length"/>
  <anchor x="143" y="0" name="bottom"/>
  <anchor x="88" y="-41" name="bottomSerif-length"/>
  <anchor x="143" y="640" name="top"/>
  <anchor x="52" y="623" name="topSerif"/>
  <outline>
    <contour>
      <point x="530" y="697" type="curve" smooth="yes"/>
      <point x="521" y="697"/>
      <point x="412" y="614"/>
      <point x="412" y="601" type="curve" smooth="yes"/>
      <point x="412" y="595"/>
      <point x="445" y="577"/>
      <point x="445" y="550" type="curve" smooth="yes"/>
      <point x="445" y="506"/>
      <point x="250" y="200"/>
      <point x="186" y="87" type="curve"/>
      <point x="195" y="29" type="line"/>
      <point x="361" y="264"/>
      <point x="581" y="614"/>
      <point x="581" y="622" type="curve" smooth="yes"/>
      <point x="581" y="632"/>
      <point x="538" y="697"/>
    </contour>
    <contour>
      <point x="527" y="39" type="curve"/>
      <point x="162" y="39" type="line"/>
      <point x="152" y="39"/>
      <point x="139" y="62"/>
      <point x="134" y="62" type="curve" smooth="yes"/>
      <point x="120" y="62"/>
      <point x="-5" y="-16"/>
      <point x="32" y="-16" type="curve"/>
      <point x="498" y="-16" type="line"/>
      <point x="511" y="-16"/>
      <point x="563" y="28"/>
      <point x="575" y="43" type="curve" smooth="yes"/>
      <point x="579" y="50"/>
      <point x="542" y="39"/>
    </contour>
    <contour>
      <point x="198" y="11" type="curve"/>
      <point x="198" y="678" type="line"/>
      <point x="198" y="689"/>
      <point x="195" y="710"/>
      <point x="189" y="713" type="curve" smooth="yes"/>
      <point x="181" y="717"/>
      <point x="42" y="633"/>
      <point x="42" y="623" type="curve" smooth="yes"/>
      <point x="42" y="611"/>
      <point x="88" y="629"/>
      <point x="88" y="570" type="curve" smooth="yes"/>
      <point x="88" y="25" type="line"/>
      <point x="88" y="22"/>
      <point x="88" y="-10"/>
      <point x="88" y="-10" type="curve" smooth="yes"/>
      <point x="88" y="-10"/>
      <point x="198" y="11"/>
    </contour>
  </outline>
</glyph>
<glyph name="W" format="2">
  <advance width="640"/>
  <unicode hex="0057"/>
  <anchor x="348" y="590" name="top"/>
  <anchor x="334" y="151" name="bottom"/>
  <anchor x="287.2" y="124.8" name="bottomSerif-length"/>
  <anchor x="263" y="440" name="topSerif"/>
  <anchor x="307" y="11" name="left"/>
  <anchor x="523" y="11" name="right"/>
  <anchor x="555" y="35" name="rightSerif-length"/>
  <outline>
    <contour>
      <point x="365" y="424" type="curve"/>
      <point x="381" y="387" type="line"/>
      <point x="438" y="468"/>
      <point x="464" y="505"/>
      <point x="526" y="575" type="curve"/>
      <point x="505" y="597" type="line"/>
      <point x="434" y="522"/>
      <point x="419" y="502"/>
    </contour>
    <contour>
      <point x="182" y="61" type="curve"/>
      <point x="182" y="678" type="line"/>
      <point x="182" y="689"/>
      <point x="179" y="710"/>
      <point x="173" y="713" type="curve" smooth="yes"/>
      <point x="165" y="717"/>
      <point x="26" y="633"/>
      <point x="26" y="623" type="curve" smooth="yes"/>
      <point x="26" y="611"/>
      <point x="72" y="629"/>
      <point x="72" y="570" type="curve" smooth="yes"/>
      <point x="72" y="25" type="line"/>
      <point x="72" y="9"/>
      <point x="55" y="-11"/>
      <point x="64" y="-11" type="curve" smooth="yes"/>
      <point x="71" y="-11"/>
      <point x="182" y="34"/>
    </contour>
    <contour>
      <point x="523" y="39" type="curve"/>
      <point x="353" y="39" type="line"/>
      <point x="343" y="39"/>
      <point x="330" y="62"/>
      <point x="325" y="62" type="curve" smooth="yes"/>
      <point x="311" y="62"/>
      <point x="186" y="-16"/>
      <point x="223" y="-16" type="curve"/>
      <point x="491" y="-16" type="line"/>
      <point x="503" y="-16"/>
      <point x="553" y="19"/>
      <point x="565" y="35" type="curve" smooth="yes"/>
      <point x="570" y="42"/>
      <point x="536" y="39"/>
    </contour>
    <contour>
      <point x="613" y="61" type="curve"/>
      <point x="613" y="678" type="line"/>
      <point x="613" y="689"/>
      <point x="610" y="710"/>
      <point x="604" y="713" type="curve" smooth="yes"/>
      <point x="596" y="717"/>
      <point x="457" y="633"/>
      <point x="457" y="623" type="curve" smooth="yes"/>
      <point x="457" y="611"/>
      <point x="503" y="629"/>
      <point x="503" y="570" type="curve" smooth="yes"/>
      <point x="503" y="25" type="line"/>
      <point x="503" y="9"/>
      <point x="486" y="-11"/>
      <point x="495" y="-11" type="curve" smooth="yes"/>
      <point x="502" y="-11"/>
      <point x="613" y="34"/>
    </contour>
    <contour>
      <point x="389" y="182" type="curve"/>
      <point x="389" y="495" type="line"/>
      <point x="389" y="506"/>
      <point x="386" y="527"/>
      <point x="380" y="530" type="curve" smooth="yes"/>
      <point x="372" y="534"/>
      <point x="253" y="450"/>
      <point x="253" y="440" type="curve" smooth="yes"/>
      <point x="253" y="433"/>
      <point x="279" y="442"/>
      <point x="279" y="387" type="curve" smooth="yes"/>
      <point x="279" y="146" type="line"/>
      <point x="279" y="133"/>
      <point x="269" y="115"/>
      <point x="276" y="115" type="curve" smooth="yes"/>
      <point x="283" y="115"/>
      <point x="389" y="158"/>
    </contour>
    <contour>
      <point x="325" y="303" type="curve"/>
      <point x="315" y="333" type="line"/>
      <point x="236" y="235"/>
      <point x="194" y="186"/>
      <point x="153" y="119" type="curve"/>
      <point x="163" y="83" type="line"/>
      <point x="209" y="145"/>
      <point x="257" y="202"/>
    </contour>
  </outline>
</glyph>
<glyph name="X" format="2">
  <advance width="620"/>
  <unicode hex="0058"/>
  <anchor x="128" y="50" name="bottom"/>
  <anchor x="75.9" y="20.1" name="bottomSerif-length"/>
  <anchor x="128" y="649.13462" name="top"/>
  <anchor x="37" y="623" name="topSerif"/>
  <outline>
    <contour>
      <point x="587" y="504" type="curve" smooth="yes"/>
      <point x="574" y="504"/>
      <point x="507" y="474"/>
      <point x="475" y="430" type="curve" smooth="yes"/>
      <point x="430" y="369"/>
      <point x="262" y="73"/>
      <point x="213" y="34" type="curve" smooth="yes"/>
      <point x="199" y="23"/>
      <point x="158" y="-16"/>
      <point x="170" y="-16" type="curve" smooth="yes"/>
      <point x="529" y="-16" type="line" smooth="yes"/>
      <point x="541" y="-16"/>
      <point x="591" y="26"/>
      <point x="603" y="42" type="curve" smooth="yes"/>
      <point x="608" y="49"/>
      <point x="574" y="39"/>
      <point x="561" y="39" type="curve" smooth="yes"/>
      <point x="282" y="39" type="line"/>
      <point x="313" y="70"/>
      <point x="437" y="259"/>
      <point x="484" y="350" type="curve" smooth="yes"/>
      <point x="523" y="426"/>
      <point x="559" y="465"/>
      <point x="593" y="495" type="curve" smooth="yes"/>
      <point x="601" y="502"/>
      <point x="595" y="504"/>
    </contour>
    <contour>
      <point x="451" y="697" type="curve" smooth="yes"/>
      <point x="442" y="697"/>
      <point x="333" y="614"/>
      <point x="333" y="601" type="curve" smooth="yes"/>
      <point x="333" y="595"/>
      <point x="366" y="577"/>
      <point x="366" y="550" type="curve" smooth="yes"/>
      <point x="366" y="506"/>
      <point x="186" y="197"/>
      <point x="158" y="155" type="curve"/>
      <point x="182" y="107" type="line"/>
      <point x="182" y="140"/>
      <point x="501" y="604"/>
      <point x="502" y="622" type="curve" smooth="yes"/>
      <point x="502" y="632"/>
      <point x="459" y="697"/>
    </contour>
    <contour>
      <point x="183" y="82" type="curve"/>
      <point x="183" y="678" type="line"/>
      <point x="183" y="689"/>
      <point x="180" y="710"/>
      <point x="174" y="713" type="curve" smooth="yes"/>
      <point x="166" y="717"/>
      <point x="27" y="633"/>
      <point x="27" y="623" type="curve" smooth="yes"/>
      <point x="27" y="611"/>
      <point x="73" y="629"/>
      <point x="73" y="570" type="curve" smooth="yes"/>
      <point x="73" y="46" type="line"/>
      <point x="73" y="30"/>
      <point x="56" y="10"/>
      <point x="65" y="10" type="curve" smooth="yes"/>
      <point x="72" y="10"/>
      <point x="183" y="55"/>
    </contour>
  </outline>
</glyph>
<glyph name="Y" format="2">
  <advance width="620"/>
  <unicode hex="0059"/>
  <anchor x="298" y="0" name="bottom"/>
  <anchor x="399" y="680" name="top"/>
  <anchor x="73" y="11" name="left"/>
  <anchor x="521.33332" y="11" name="right"/>
  <anchor x="553.33332" y="35" name="rightSerif-length"/>
  <anchor x="485.9" y="-29.9" name="bottomSerif-length"/>
  <anchor x="447" y="609.86166" name="topSerif"/>
  <outline>
    <contour>
      <point x="8" y="-28" type="curve" smooth="yes"/>
      <point x="3" y="-38"/>
      <point x="8" y="-43"/>
      <point x="22" y="-31" type="curve" smooth="yes"/>
      <point x="226" y="144"/>
      <point x="350" y="202"/>
      <point x="350" y="220" type="curve" smooth="yes"/>
      <point x="350" y="239"/>
      <point x="207" y="298"/>
      <point x="207" y="453" type="curve" smooth="yes"/>
      <point x="207" y="571"/>
      <point x="370" y="687"/>
      <point x="435" y="703" type="curve" smooth="yes"/>
      <point x="443" y="705"/>
      <point x="443" y="714"/>
      <point x="428" y="714" type="curve" smooth="yes"/>
      <point x="374" y="714"/>
      <point x="83" y="617"/>
      <point x="83" y="409" type="curve" smooth="yes"/>
      <point x="83" y="326"/>
      <point x="129" y="220"/>
      <point x="222" y="196" type="curve"/>
      <point x="153" y="135"/>
      <point x="17" y="-12"/>
    </contour>
    <contour>
      <point x="515" y="39" type="curve"/>
      <point x="119" y="39" type="line"/>
      <point x="119" y="39"/>
      <point x="95" y="39"/>
      <point x="95" y="39" type="curve" smooth="yes"/>
      <point x="95" y="39"/>
      <point x="24" y="-16"/>
      <point x="24" y="-16" type="curve"/>
      <point x="509" y="-16" type="line"/>
      <point x="509" y="-16"/>
      <point x="538" y="39"/>
      <point x="538" y="39" type="curve" smooth="yes"/>
      <point x="538" y="39"/>
      <point x="521" y="39"/>
    </contour>
    <contour>
      <point x="593" y="32" type="curve"/>
      <point x="593" y="665" type="line"/>
      <point x="593" y="676"/>
      <point x="590" y="697"/>
      <point x="584" y="700" type="curve" smooth="yes"/>
      <point x="576" y="704"/>
      <point x="437" y="620"/>
      <point x="437" y="610" type="curve" smooth="yes"/>
      <point x="437" y="598"/>
      <point x="483" y="616"/>
      <point x="483" y="557" type="curve" smooth="yes"/>
      <point x="483" y="-4" type="line"/>
      <point x="483" y="-20"/>
      <point x="466" y="-40"/>
      <point x="475" y="-40" type="curve" smooth="yes"/>
      <point x="482" y="-40"/>
      <point x="593" y="5"/>
    </contour>
  </outline>
</glyph>
<glyph name="Z" format="2">
  <advance width="610"/>
  <unicode hex="005A"/>
  <anchor x="297" y="0" name="bottom"/>
  <anchor x="301" y="624" name="top"/>
  <anchor x="125" y="11" name="left"/>
  <anchor x="466" y="11" name="right"/>
  <anchor x="498" y="35" name="rightSerif-length"/>
  <anchor x="75.9" y="-29.9" name="bottomSerif-length"/>
  <anchor x="37" y="623" name="topSerif"/>
  <outline>
    <contour>
      <point x="285" y="626" type="curve" smooth="yes"/>
      <point x="285" y="617"/>
      <point x="391" y="520"/>
      <point x="442" y="451" type="curve"/>
      <point x="452" y="480" type="line"/>
      <point x="392" y="423"/>
      <point x="285" y="343"/>
      <point x="285" y="322" type="curve" smooth="yes"/>
      <point x="285" y="303"/>
      <point x="475" y="91"/>
      <point x="476" y="28" type="curve"/>
      <point x="551" y="30"/>
      <point x="594" y="69"/>
      <point x="594" y="82" type="curve" smooth="yes"/>
      <point x="594" y="129"/>
      <point x="395" y="363"/>
      <point x="395" y="382" type="curve" smooth="yes"/>
      <point x="395" y="420"/>
      <point x="545" y="515"/>
      <point x="545" y="545" type="curve" smooth="yes"/>
      <point x="545" y="557"/>
      <point x="425" y="700"/>
      <point x="416" y="700" type="curve" smooth="yes"/>
      <point x="401" y="700"/>
      <point x="285" y="636"/>
    </contour>
    <contour>
      <point x="466" y="39" type="curve"/>
      <point x="171" y="39" type="line"/>
      <point x="171" y="39"/>
      <point x="143" y="39"/>
      <point x="143" y="39" type="curve" smooth="yes"/>
      <point x="143" y="39"/>
      <point x="86" y="-16"/>
      <point x="86" y="-16" type="curve"/>
      <point x="434" y="-16" type="line"/>
      <point x="446" y="-16"/>
      <point x="496" y="19"/>
      <point x="508" y="35" type="curve" smooth="yes"/>
      <point x="513" y="42"/>
      <point x="479" y="39"/>
    </contour>
    <contour>
      <point x="183" y="32" type="curve"/>
      <point x="183" y="678" type="line"/>
      <point x="183" y="689"/>
      <point x="180" y="710"/>
      <point x="174" y="713" type="curve" smooth="yes"/>
      <point x="166" y="717"/>
      <point x="27" y="633"/>
      <point x="27" y="623" type="curve" smooth="yes"/>
      <point x="27" y="611"/>
      <point x="73" y="629"/>
      <point x="73" y="570" type="curve" smooth="yes"/>
      <point x="73" y="-4" type="line"/>
      <point x="73" y="-20"/>
      <point x="56" y="-40"/>
      <point x="65" y="-40" type="curve" smooth="yes"/>
      <point x="72" y="-40"/>
      <point x="183" y="5"/>
    </contour>
  </outline>
</glyph>
<glyph name="bracketleft" format="2">
  <advance width="400"/>
  <unicode hex="005B"/>
  <outline>
    <component base="_part.bracket" identifier="4F0E99BD"/>
    <contour>
      <point x="371" y="-54" type="line"/>
      <point x="380" y="-54"/>
      <point x="358" y="-19"/>
      <point x="352" y="-19" type="curve"/>
      <point x="289" y="-19" type="line"/>
      <point x="289" y="320" type="line"/>
      <point x="179" y="320" type="line"/>
      <point x="179" y="-54" type="line"/>
    </contour>
  </outline>
</glyph>
<glyph name="backslash" format="2">
  <advance width="550"/>
  <unicode hex="005C"/>
  <outline>
    <contour>
      <point x="487" y="-84" type="curve" smooth="yes"/>
      <point x="126" y="720" type="line"/>
      <point x="124" y="724"/>
      <point x="57" y="734"/>
      <point x="63" y="720" type="curve" smooth="yes"/>
      <point x="424" y="-84" type="line" smooth="yes"/>
      <point x="425" y="-87"/>
      <point x="493" y="-98"/>
    </contour>
  </outline>
</glyph>
<glyph name="bracketright" format="2">
  <advance width="400"/>
  <unicode hex="005D"/>
  <outline>
    <contour>
      <point x="29" y="694" type="line"/>
      <point x="20" y="694"/>
      <point x="42" y="659"/>
      <point x="48" y="659" type="curve"/>
      <point x="111" y="659" type="line"/>
      <point x="111" y="320" type="line"/>
      <point x="221" y="320" type="line"/>
      <point x="221" y="694" type="line"/>
    </contour>
    <component base="_part.bracket" xScale="-1" yScale="-1" xOffset="400" yOffset="640" identifier="35DE231E"/>
  </outline>
</glyph>
<glyph name="underscore" format="2">
  <advance width="280"/>
  <unicode hex="005F"/>
  <outline>
    <contour>
      <point x="215" y="39" type="curve"/>
      <point x="51" y="39" type="line"/>
      <point x="44" y="39"/>
      <point x="-1" y="-16"/>
      <point x="16" y="-16" type="curve" smooth="yes"/>
      <point x="208" y="-16" type="line"/>
      <point x="220" y="-16"/>
      <point x="252" y="19"/>
      <point x="257" y="35" type="curve" smooth="yes"/>
      <point x="260" y="43"/>
      <point x="228" y="39"/>
    </contour>
  </outline>
</glyph>
<glyph name="grave" format="2">
  <advance width="300"/>
  <unicode hex="0060"/>
  <anchor x="166" y="640" name="_top"/>
  <outline>
    <contour>
      <point x="235" y="740" type="curve" smooth="yes"/>
      <point x="235" y="747"/>
      <point x="110" y="841"/>
      <point x="103" y="841" type="curve" smooth="yes"/>
      <point x="96" y="841"/>
      <point x="44" y="804"/>
      <point x="44" y="798" type="curve" smooth="yes"/>
      <point x="44" y="791"/>
      <point x="215" y="732"/>
      <point x="225" y="732" type="curve" smooth="yes"/>
      <point x="229" y="732"/>
      <point x="235" y="736"/>
    </contour>
  </outline>
</glyph>
<glyph name="a" format="2">
  <advance width="560"/>
  <unicode hex="0061"/>
  <anchor x="288" y="0" name="bottom"/>
  <anchor x="449" y="5" name="ogonek"/>
  <anchor x="385" y="480" name="top"/>
  <anchor x="50" y="11" name="left"/>
  <anchor x="458.33333" y="11" name="right"/>
  <anchor x="490.33333" y="35" name="rightSerif-length"/>
  <anchor x="244.2" y="123.8" name="bottomSerif-length"/>
  <anchor x="200" y="446" name="topSerif"/>
  <outline>
    <contour>
      <point x="236" y="429" type="curve"/>
      <point x="220" y="452" type="line"/>
      <point x="168" y="345"/>
      <point x="38" y="43"/>
      <point x="14" y="-16" type="curve"/>
      <point x="66" y="-16" type="line"/>
      <point x="73" y="31" type="line"/>
      <point x="114" y="136"/>
      <point x="168" y="267"/>
    </contour>
    <contour>
      <point x="458" y="39" type="curve"/>
      <point x="96" y="39" type="line"/>
      <point x="96" y="39"/>
      <point x="61" y="39"/>
      <point x="61" y="39" type="curve" smooth="yes"/>
      <point x="61" y="39"/>
      <point x="26" y="-16"/>
      <point x="26" y="-16" type="curve"/>
      <point x="426" y="-16" type="line"/>
      <point x="438" y="-16"/>
      <point x="488" y="19"/>
      <point x="500" y="35" type="curve" smooth="yes"/>
      <point x="505" y="42"/>
      <point x="471" y="39"/>
    </contour>
    <contour>
      <point x="535" y="31" type="curve"/>
      <point x="535" y="501" type="line"/>
      <point x="535" y="512"/>
      <point x="532" y="533"/>
      <point x="526" y="536" type="curve" smooth="yes"/>
      <point x="518" y="540"/>
      <point x="379" y="456"/>
      <point x="379" y="446" type="curve" smooth="yes"/>
      <point x="379" y="434"/>
      <point x="425" y="452"/>
      <point x="425" y="393" type="curve" smooth="yes"/>
      <point x="425" y="-5" type="line"/>
      <point x="425" y="-18"/>
      <point x="415" y="-36"/>
      <point x="422" y="-36" type="curve" smooth="yes"/>
      <point x="429" y="-36"/>
      <point x="535" y="7"/>
    </contour>
    <contour>
      <point x="346" y="181" type="curve"/>
      <point x="346" y="501" type="line"/>
      <point x="346" y="512"/>
      <point x="343" y="533"/>
      <point x="337" y="536" type="curve" smooth="yes"/>
      <point x="329" y="540"/>
      <point x="190" y="456"/>
      <point x="190" y="446" type="curve" smooth="yes"/>
      <point x="190" y="434"/>
      <point x="236" y="452"/>
      <point x="236" y="393" type="curve" smooth="yes"/>
      <point x="236" y="145" type="line"/>
      <point x="236" y="132"/>
      <point x="226" y="114"/>
      <point x="233" y="114" type="curve" smooth="yes"/>
      <point x="240" y="114"/>
      <point x="346" y="157"/>
    </contour>
  </outline>
</glyph>
<glyph name="b" format="2">
  <advance width="450"/>
  <unicode hex="0062"/>
  <anchor x="237" y="0" name="bottom"/>
  <anchor x="67.6" y="-33.6" name="bottomSerif-length"/>
  <anchor x="125" y="412.9123" name="top"/>
  <anchor x="34" y="345.15152" name="topSerif"/>
  <anchor x="106" y="222" name="left"/>
  <anchor x="333.27274" y="222" name="right"/>
  <anchor x="365.27274" y="246" name="rightSerif-length"/>
  <outline>
    <contour>
      <point x="339" y="394" type="line"/>
      <point x="339" y="383" type="line"/>
      <point x="354" y="383" type="line"/>
      <point x="354" y="394" type="line"/>
    </contour>
    <contour>
      <point x="425" y="31" type="curve"/>
      <point x="425" y="685" type="line"/>
      <point x="425" y="696"/>
      <point x="422" y="717"/>
      <point x="416" y="720" type="curve" smooth="yes"/>
      <point x="408" y="724"/>
      <point x="269" y="640"/>
      <point x="269" y="630" type="curve" smooth="yes"/>
      <point x="269" y="618"/>
      <point x="315" y="636"/>
      <point x="315" y="577" type="curve" smooth="yes"/>
      <point x="315" y="-5" type="line"/>
      <point x="315" y="-18"/>
      <point x="305" y="-36"/>
      <point x="312" y="-36" type="curve" smooth="yes"/>
      <point x="319" y="-36"/>
      <point x="425" y="7"/>
    </contour>
    <contour>
      <point x="323" y="39" type="curve"/>
      <point x="152" y="39" type="line"/>
      <point x="152" y="39"/>
      <point x="106" y="39"/>
      <point x="106" y="39" type="curve" smooth="yes"/>
      <point x="106" y="39"/>
      <point x="106" y="-16"/>
      <point x="106" y="-16" type="curve"/>
      <point x="333" y="-16" type="line"/>
      <point x="333" y="-16"/>
      <point x="333" y="39"/>
      <point x="333" y="39" type="curve" smooth="yes"/>
      <point x="333" y="39"/>
      <point x="323" y="39"/>
    </contour>
    <contour>
      <point x="323" y="250" type="curve"/>
      <point x="152" y="250" type="line"/>
      <point x="152" y="250"/>
      <point x="106" y="250"/>
      <point x="106" y="250" type="curve" smooth="yes"/>
      <point x="106" y="250"/>
      <point x="106" y="195"/>
      <point x="106" y="195" type="curve"/>
      <point x="333" y="195" type="line"/>
      <point x="333" y="195"/>
      <point x="333" y="250"/>
      <point x="333" y="250" type="curve" smooth="yes"/>
      <point x="333" y="250"/>
      <point x="323" y="250"/>
    </contour>
    <contour>
      <point x="180" y="33" type="curve"/>
      <point x="180" y="400" type="line"/>
      <point x="180" y="411"/>
      <point x="177" y="432"/>
      <point x="171" y="435" type="curve" smooth="yes"/>
      <point x="163" y="439"/>
      <point x="24" y="355"/>
      <point x="24" y="345" type="curve" smooth="yes"/>
      <point x="24" y="333"/>
      <point x="70" y="351"/>
      <point x="70" y="292" type="curve" smooth="yes"/>
      <point x="70" y="-2" type="line"/>
      <point x="70" y="-23"/>
      <point x="47" y="-43"/>
      <point x="57" y="-43" type="curve" smooth="yes"/>
      <point x="64" y="-43"/>
      <point x="180" y="3"/>
    </contour>
  </outline>
</glyph>
<glyph name="c" format="2">
  <advance width="590"/>
  <unicode hex="0063"/>
  <anchor x="307" y="0" name="ogonek"/>
  <anchor x="295" y="480" name="top"/>
  <outline>
    <contour>
      <point x="291" y="519" type="curve" smooth="yes"/>
      <point x="128" y="519"/>
      <point x="52" y="362"/>
      <point x="52" y="336" type="curve" smooth="yes"/>
      <point x="52" y="326"/>
      <point x="124" y="332"/>
      <point x="128" y="336" type="curve" smooth="yes"/>
      <point x="136" y="345"/>
      <point x="152" y="466"/>
      <point x="241" y="466" type="curve" smooth="yes"/>
      <point x="346" y="466"/>
      <point x="445" y="349"/>
      <point x="445" y="180" type="curve" smooth="yes"/>
      <point x="445" y="95"/>
      <point x="415" y="16"/>
      <point x="336" y="16" type="curve" smooth="yes"/>
      <point x="234" y="16"/>
      <point x="145" y="137"/>
      <point x="145" y="194" type="curve"/>
      <point x="466" y="194" type="line"/>
      <point x="466" y="249" type="line"/>
      <point x="145" y="249" type="line"/>
      <point x="75" y="249"/>
      <point x="32" y="260"/>
      <point x="32" y="237" type="curve" smooth="yes"/>
      <point x="32" y="73"/>
      <point x="152" y="-37"/>
      <point x="274" y="-37" type="curve" smooth="yes"/>
      <point x="356" y="-37"/>
      <point x="557" y="16"/>
      <point x="557" y="230" type="curve" smooth="yes"/>
      <point x="557" y="407"/>
      <point x="419" y="519"/>
    </contour>
  </outline>
</glyph>
<glyph name="d" format="2">
  <advance width="580"/>
  <unicode hex="0064"/>
  <anchor x="294" y="0" name="bottom"/>
  <anchor x="371" y="456" name="top"/>
  <anchor x="446.9" y="-29.9" name="bottomSerif-length"/>
  <anchor x="408" y="446.2" name="topSerif"/>
  <anchor x="213" y="447" name="left"/>
  <anchor x="501.0303" y="447" name="right"/>
  <anchor x="533.0303" y="471" name="rightSerif-length"/>
  <outline>
    <contour>
      <point x="554" y="32" type="curve"/>
      <point x="554" y="501" type="line"/>
      <point x="554" y="512"/>
      <point x="551" y="533"/>
      <point x="545" y="536" type="curve" smooth="yes"/>
      <point x="537" y="540"/>
      <point x="398" y="456"/>
      <point x="398" y="446" type="curve" smooth="yes"/>
      <point x="398" y="434"/>
      <point x="444" y="452"/>
      <point x="444" y="393" type="curve" smooth="yes"/>
      <point x="444" y="-4" type="line"/>
      <point x="444" y="-20"/>
      <point x="427" y="-40"/>
      <point x="436" y="-40" type="curve" smooth="yes"/>
      <point x="443" y="-40"/>
      <point x="554" y="5"/>
    </contour>
    <contour>
      <point x="359" y="39" type="curve"/>
      <point x="172" y="39" type="line"/>
      <point x="164" y="39"/>
      <point x="162" y="48"/>
      <point x="155" y="48" type="curve" smooth="yes"/>
      <point x="148" y="48"/>
      <point x="57" y="-16"/>
      <point x="77" y="-16" type="curve"/>
      <point x="331" y="-16" type="line"/>
      <point x="344" y="-16"/>
      <point x="396" y="28"/>
      <point x="408" y="43" type="curve" smooth="yes"/>
      <point x="412" y="50"/>
      <point x="375" y="39"/>
    </contour>
    <contour>
      <point x="491" y="475" type="curve"/>
      <point x="259" y="475" type="line"/>
      <point x="251" y="475"/>
      <point x="249" y="484"/>
      <point x="242" y="484" type="curve" smooth="yes"/>
      <point x="235" y="484"/>
      <point x="144" y="420"/>
      <point x="164" y="420" type="curve"/>
      <point x="501" y="420" type="line"/>
      <point x="501" y="420"/>
      <point x="501" y="475"/>
      <point x="501" y="475" type="curve" smooth="yes"/>
      <point x="501" y="475"/>
      <point x="491" y="475"/>
    </contour>
    <contour>
      <point x="170" y="33" type="curve" smooth="yes"/>
      <point x="170" y="202" type="line"/>
      <point x="170" y="218"/>
      <point x="163" y="227"/>
      <point x="157" y="227" type="curve"/>
      <point x="204" y="253"/>
      <point x="261" y="276"/>
      <point x="261" y="309" type="curve" smooth="yes"/>
      <point x="261" y="501" type="line" smooth="yes"/>
      <point x="261" y="512"/>
      <point x="258" y="533"/>
      <point x="252" y="536" type="curve" smooth="yes"/>
      <point x="244" y="540"/>
      <point x="105" y="456"/>
      <point x="105" y="446" type="curve" smooth="yes"/>
      <point x="105" y="434"/>
      <point x="151" y="452"/>
      <point x="151" y="393" type="curve" smooth="yes"/>
      <point x="151" y="278" type="line" smooth="yes"/>
      <point x="151" y="261"/>
      <point x="156" y="238"/>
      <point x="135" y="224" type="curve" smooth="yes"/>
      <point x="106" y="205"/>
      <point x="34" y="167"/>
      <point x="34" y="159" type="curve" smooth="yes"/>
      <point x="34" y="152"/>
      <point x="60" y="161"/>
      <point x="60" y="106" type="curve" smooth="yes"/>
      <point x="60" y="-2" type="line" smooth="yes"/>
      <point x="60" y="-23"/>
      <point x="37" y="-43"/>
      <point x="47" y="-43" type="curve" smooth="yes"/>
      <point x="54" y="-43"/>
      <point x="170" y="3"/>
    </contour>
  </outline>
</glyph>
<glyph name="e" format="2">
  <advance width="600"/>
  <unicode hex="0065"/>
  <anchor x="500" y="10" name="ogonek"/>
  <anchor x="336" y="452" name="top"/>
  <anchor x="325" y="0" name="bottom"/>
  <anchor x="267.6" y="-33.6" name="bottomSerif-length"/>
  <anchor x="270" y="273.27273" name="topSerif"/>
  <anchor x="338" y="11" name="left"/>
  <anchor x="488" y="11" name="right"/>
  <anchor x="520" y="35" name="rightSerif-length"/>
  <outline>
    <contour>
      <point x="575" y="31" type="curve"/>
      <point x="575" y="501" type="line"/>
      <point x="575" y="512"/>
      <point x="572" y="533"/>
      <point x="566" y="536" type="curve" smooth="yes"/>
      <point x="558" y="540"/>
      <point x="419" y="456"/>
      <point x="419" y="446" type="curve" smooth="yes"/>
      <point x="419" y="434"/>
      <point x="465" y="452"/>
      <point x="465" y="393" type="curve" smooth="yes"/>
      <point x="465" y="-5" type="line"/>
      <point x="465" y="-18"/>
      <point x="455" y="-36"/>
      <point x="462" y="-36" type="curve" smooth="yes"/>
      <point x="469" y="-36"/>
      <point x="575" y="7"/>
    </contour>
    <contour>
      <point x="488" y="39" type="curve"/>
      <point x="384" y="39" type="line"/>
      <point x="376" y="39"/>
      <point x="374" y="48"/>
      <point x="367" y="48" type="curve" smooth="yes"/>
      <point x="360" y="48"/>
      <point x="269" y="-16"/>
      <point x="289" y="-16" type="curve"/>
      <point x="456" y="-16" type="line"/>
      <point x="468" y="-16"/>
      <point x="518" y="19"/>
      <point x="530" y="35" type="curve" smooth="yes"/>
      <point x="535" y="42"/>
      <point x="501" y="39"/>
    </contour>
    <contour>
      <point x="180" y="35" type="curve"/>
      <point x="180" y="501" type="line"/>
      <point x="180" y="512"/>
      <point x="177" y="533"/>
      <point x="171" y="536" type="curve" smooth="yes"/>
      <point x="163" y="540"/>
      <point x="24" y="456"/>
      <point x="24" y="446" type="curve" smooth="yes"/>
      <point x="24" y="434"/>
      <point x="70" y="452"/>
      <point x="70" y="393" type="curve" smooth="yes"/>
      <point x="70" y="0" type="line"/>
      <point x="70" y="-3"/>
      <point x="70" y="-35"/>
      <point x="70" y="-35" type="curve" smooth="yes"/>
      <point x="70" y="-35"/>
      <point x="180" y="35"/>
    </contour>
    <contour>
      <point x="380" y="33" type="curve"/>
      <point x="380" y="283" type="line"/>
      <point x="380" y="295"/>
      <point x="380" y="313"/>
      <point x="380" y="318" type="curve" smooth="yes"/>
      <point x="380" y="318"/>
      <point x="270" y="262"/>
      <point x="270" y="262" type="curve" smooth="yes"/>
      <point x="270" y="252"/>
      <point x="270" y="236"/>
      <point x="270" y="236" type="curve" smooth="yes"/>
      <point x="270" y="-2" type="line"/>
      <point x="270" y="-23"/>
      <point x="247" y="-43"/>
      <point x="257" y="-43" type="curve" smooth="yes"/>
      <point x="264" y="-43"/>
      <point x="380" y="3"/>
    </contour>
    <contour>
      <point x="180" y="110" type="curve"/>
      <point x="70" y="5" type="line"/>
      <point x="70" y="-26"/>
      <point x="56" y="-45"/>
      <point x="65" y="-45" type="curve" smooth="yes"/>
      <point x="74" y="-45"/>
      <point x="171" y="19"/>
      <point x="180" y="35" type="curve" smooth="yes"/>
      <point x="211" y="91"/>
      <point x="252" y="159"/>
      <point x="269" y="213" type="curve"/>
      <point x="380" y="318" type="line"/>
      <point x="380" y="401"/>
      <point x="348" y="338"/>
      <point x="251" y="291" type="curve"/>
      <point x="261" y="278"/>
      <point x="218" y="186"/>
    </contour>
  </outline>
</glyph>
<glyph name="f" format="2">
  <advance width="560"/>
  <unicode hex="0066"/>
  <anchor x="113" y="-11" name="bottom"/>
  <anchor x="66.2" y="-37.2" name="bottomSerif-length"/>
  <anchor x="113" y="284.09616" name="top"/>
  <anchor x="58" y="190.00001" name="topSerif"/>
  <anchor x="116" y="444" name="left"/>
  <anchor x="487.21211" y="444" name="right"/>
  <anchor x="519.21211" y="468" name="rightSerif-length"/>
  <outline>
    <contour>
      <point x="116" y="472" type="curve" smooth="yes"/>
      <point x="102" y="472"/>
      <point x="24" y="419"/>
      <point x="24" y="411" type="curve" smooth="yes"/>
      <point x="24" y="400"/>
      <point x="180" y="348"/>
      <point x="180" y="288" type="curve" smooth="yes"/>
      <point x="180" y="231"/>
      <point x="41" y="219"/>
      <point x="41" y="205" type="curve" smooth="yes"/>
      <point x="41" y="200"/>
      <point x="58" y="190"/>
      <point x="58" y="170" type="curve"/>
      <point x="168" y="127" type="line"/>
      <point x="190" y="135"/>
      <point x="250" y="220"/>
      <point x="250" y="277" type="curve" smooth="yes"/>
      <point x="250" y="357"/>
      <point x="131" y="472"/>
    </contour>
    <contour>
      <point x="539" y="302" type="curve"/>
      <point x="539" y="491" type="line"/>
      <point x="539" y="502"/>
      <point x="536" y="523"/>
      <point x="530" y="526" type="curve" smooth="yes"/>
      <point x="522" y="530"/>
      <point x="383" y="446"/>
      <point x="383" y="436" type="curve" smooth="yes"/>
      <point x="383" y="424"/>
      <point x="429" y="442"/>
      <point x="429" y="383" type="curve" smooth="yes"/>
      <point x="429" y="267" type="line"/>
      <point x="429" y="246"/>
      <point x="406" y="226"/>
      <point x="416" y="226" type="curve" smooth="yes"/>
      <point x="423" y="226"/>
      <point x="539" y="272"/>
    </contour>
    <contour>
      <point x="344" y="39" type="curve"/>
      <point x="174" y="39" type="line"/>
      <point x="174" y="39"/>
      <point x="150" y="39"/>
      <point x="150" y="39" type="curve" smooth="yes"/>
      <point x="150" y="39"/>
      <point x="79" y="-16"/>
      <point x="79" y="-16" type="curve"/>
      <point x="398" y="-16" type="line"/>
      <point x="429" y="-16"/>
      <point x="539" y="212"/>
      <point x="534" y="216" type="curve" smooth="yes"/>
      <point x="523" y="225"/>
      <point x="385" y="39"/>
    </contour>
    <contour>
      <point x="168" y="20" type="curve"/>
      <point x="168" y="190" type="line"/>
      <point x="168" y="203"/>
      <point x="168" y="222"/>
      <point x="168" y="225" type="curve" smooth="yes"/>
      <point x="168" y="225"/>
      <point x="58" y="190"/>
      <point x="58" y="190" type="curve" smooth="yes"/>
      <point x="58" y="180"/>
      <point x="58" y="160"/>
      <point x="58" y="160" type="curve" smooth="yes"/>
      <point x="58" y="-16" type="line"/>
      <point x="58" y="-29"/>
      <point x="48" y="-47"/>
      <point x="55" y="-47" type="curve" smooth="yes"/>
      <point x="62" y="-47"/>
      <point x="168" y="-4"/>
    </contour>
    <contour>
      <point x="477" y="472" type="curve"/>
      <point x="162" y="472" type="line"/>
      <point x="162" y="472"/>
      <point x="116" y="472"/>
      <point x="116" y="472" type="curve" smooth="yes"/>
      <point x="116" y="472"/>
      <point x="116" y="417"/>
      <point x="116" y="417" type="curve"/>
      <point x="487" y="417" type="line"/>
      <point x="487" y="417"/>
      <point x="487" y="472"/>
      <point x="487" y="472" type="curve" smooth="yes"/>
      <point x="487" y="472"/>
      <point x="477" y="472"/>
    </contour>
  </outline>
</glyph>
<glyph name="g" format="2">
  <advance width="570"/>
  <unicode hex="0067"/>
  <anchor x="363" y="536" name="top"/>
  <anchor x="324" y="54" name="bottom"/>
  <anchor x="269" y="13" name="bottomSerif-length"/>
  <anchor x="233" y="330" name="topSerif"/>
  <outline>
    <contour>
      <point x="544" y="31" type="curve"/>
      <point x="544" y="501" type="line"/>
      <point x="544" y="512"/>
      <point x="541" y="533"/>
      <point x="535" y="536" type="curve" smooth="yes"/>
      <point x="527" y="540"/>
      <point x="388" y="456"/>
      <point x="388" y="446" type="curve" smooth="yes"/>
      <point x="388" y="434"/>
      <point x="434" y="452"/>
      <point x="434" y="393" type="curve" smooth="yes"/>
      <point x="434" y="-5" type="line"/>
      <point x="434" y="-18"/>
      <point x="424" y="-36"/>
      <point x="431" y="-36" type="curve" smooth="yes"/>
      <point x="438" y="-36"/>
      <point x="544" y="7"/>
    </contour>
    <contour>
      <point x="363" y="570" type="curve" smooth="yes"/>
      <point x="296" y="570"/>
      <point x="37" y="469"/>
      <point x="37" y="250" type="curve" smooth="yes"/>
      <point x="37" y="64"/>
      <point x="225" y="-5"/>
      <point x="249" y="-5" type="curve" smooth="yes"/>
      <point x="271" y="-5"/>
      <point x="379" y="56"/>
      <point x="379" y="72" type="curve"/>
      <point x="270" y="123" type="line"/>
      <point x="225" y="123"/>
      <point x="145" y="192"/>
      <point x="145" y="305" type="curve" smooth="yes"/>
      <point x="145" y="462"/>
      <point x="300" y="536"/>
      <point x="351" y="554" type="curve" smooth="yes"/>
      <point x="369" y="560"/>
      <point x="379" y="570"/>
    </contour>
    <contour>
      <point x="379" y="72" type="curve"/>
      <point x="379" y="385" type="line"/>
      <point x="379" y="396"/>
      <point x="376" y="417"/>
      <point x="370" y="420" type="curve" smooth="yes"/>
      <point x="362" y="424"/>
      <point x="223" y="340"/>
      <point x="223" y="330" type="curve" smooth="yes"/>
      <point x="223" y="318"/>
      <point x="269" y="336"/>
      <point x="269" y="277" type="curve" smooth="yes"/>
      <point x="269" y="72" type="line"/>
      <point x="269" y="69"/>
      <point x="269" y="37"/>
      <point x="269" y="37" type="curve" smooth="yes"/>
      <point x="269" y="37"/>
      <point x="379" y="72"/>
    </contour>
    <contour>
      <point x="535" y="538" type="curve" smooth="yes"/>
      <point x="511" y="538"/>
      <point x="411" y="475"/>
      <point x="358" y="425" type="curve"/>
      <point x="316" y="401"/>
      <point x="223" y="343"/>
      <point x="223" y="330" type="curve"/>
      <point x="276" y="330" type="line"/>
      <point x="367" y="427"/>
      <point x="434" y="459"/>
      <point x="434" y="393" type="curve" smooth="yes"/>
      <point x="434" y="345"/>
      <point x="544" y="447"/>
      <point x="544" y="480" type="curve" smooth="yes"/>
      <point x="544" y="513"/>
      <point x="544" y="538"/>
    </contour>
  </outline>
</glyph>
<glyph name="h" format="2">
  <advance width="590"/>
  <unicode hex="0068"/>
  <anchor x="312" y="0" name="bottom"/>
  <anchor x="339" y="480" name="top"/>
  <anchor x="80.2" y="-26.2" name="bottomSerif-length"/>
  <anchor x="36" y="446.2" name="topSerif"/>
  <outline>
    <contour>
      <point x="182" y="31" type="curve"/>
      <point x="182" y="501" type="line"/>
      <point x="182" y="512"/>
      <point x="179" y="533"/>
      <point x="173" y="536" type="curve" smooth="yes"/>
      <point x="165" y="540"/>
      <point x="26" y="456"/>
      <point x="26" y="446" type="curve" smooth="yes"/>
      <point x="26" y="434"/>
      <point x="72" y="452"/>
      <point x="72" y="393" type="curve" smooth="yes"/>
      <point x="72" y="-5" type="line"/>
      <point x="72" y="-18"/>
      <point x="62" y="-36"/>
      <point x="69" y="-36" type="curve" smooth="yes"/>
      <point x="76" y="-36"/>
      <point x="182" y="7"/>
    </contour>
    <contour>
      <point x="563" y="437" type="curve"/>
      <point x="563" y="500" type="line"/>
      <point x="563" y="522"/>
      <point x="506" y="487"/>
      <point x="436" y="487" type="curve" smooth="yes"/>
      <point x="157" y="487" type="line"/>
      <point x="157" y="432" type="line"/>
      <point x="453" y="432" type="line"/>
      <point x="453" y="314"/>
      <point x="402" y="170"/>
      <point x="355" y="132" type="curve"/>
      <point x="355" y="449" type="line"/>
      <point x="318" y="438" type="line"/>
      <point x="312" y="426"/>
      <point x="214" y="390"/>
      <point x="214" y="377" type="curve" smooth="yes"/>
      <point x="214" y="365"/>
      <point x="245" y="373"/>
      <point x="245" y="314" type="curve" smooth="yes"/>
      <point x="245" y="123" type="line" smooth="yes"/>
      <point x="245" y="54"/>
      <point x="232" y="12"/>
      <point x="240" y="12" type="curve" smooth="yes"/>
      <point x="275" y="12"/>
      <point x="563" y="174"/>
    </contour>
  </outline>
</glyph>
<glyph name="i" format="2">
  <advance width="240"/>
  <unicode hex="0069"/>
  <anchor x="136" y="0" name="bottom"/>
  <anchor x="142" y="14" name="ogonek"/>
  <anchor x="140" y="640" name="top"/>
  <anchor x="14.04079" y="-75.02813" name="bottomSerif-length"/>
  <anchor x="67" y="629.86168" name="topSerif"/>
  <outline>
    <contour>
      <point x="153" y="490" type="line"/>
      <point x="153" y="440" type="line"/>
      <point x="187" y="440" type="line"/>
      <point x="187" y="490" type="line"/>
    </contour>
    <contour>
      <point x="213" y="67" type="curve"/>
      <point x="213" y="685" type="line"/>
      <point x="213" y="696"/>
      <point x="210" y="717"/>
      <point x="204" y="720" type="curve" smooth="yes"/>
      <point x="196" y="724"/>
      <point x="57" y="640"/>
      <point x="57" y="630" type="curve" smooth="yes"/>
      <point x="57" y="618"/>
      <point x="103" y="636"/>
      <point x="103" y="577" type="curve" smooth="yes"/>
      <point x="103" y="36" type="line"/>
      <point x="103" y="-40"/>
      <point x="-25" y="-80"/>
      <point x="7" y="-80" type="curve" smooth="yes"/>
      <point x="21" y="-80"/>
      <point x="213" y="-5"/>
    </contour>
  </outline>
</glyph>
<glyph name="j" format="2">
  <advance width="570"/>
  <unicode hex="006A"/>
  <anchor x="304" y="480" name="top"/>
  <anchor x="490" y="0" name="bottom"/>
  <anchor x="443.2" y="-26.2" name="bottomSerif-length"/>
  <anchor x="399" y="362.66666" name="topSerif"/>
  <anchor x="108" y="11" name="left"/>
  <anchor x="446" y="11" name="right"/>
  <anchor x="478" y="35" name="rightSerif-length"/>
  <outline>
    <contour>
      <point x="545" y="31" type="curve"/>
      <point x="545" y="418" type="line"/>
      <point x="545" y="429"/>
      <point x="542" y="450"/>
      <point x="536" y="453" type="curve" smooth="yes"/>
      <point x="528" y="457"/>
      <point x="389" y="373"/>
      <point x="389" y="363" type="curve" smooth="yes"/>
      <point x="389" y="351"/>
      <point x="435" y="369"/>
      <point x="435" y="310" type="curve" smooth="yes"/>
      <point x="435" y="-5" type="line"/>
      <point x="435" y="-18"/>
      <point x="425" y="-36"/>
      <point x="432" y="-36" type="curve" smooth="yes"/>
      <point x="439" y="-36"/>
      <point x="545" y="7"/>
    </contour>
    <contour>
      <point x="436" y="39" type="curve"/>
      <point x="154" y="39" type="line"/>
      <point x="154" y="39"/>
      <point x="119" y="39"/>
      <point x="119" y="39" type="curve" smooth="yes"/>
      <point x="119" y="39"/>
      <point x="84" y="-16"/>
      <point x="84" y="-16" type="curve"/>
      <point x="446" y="-16" type="line"/>
      <point x="446" y="-16"/>
      <point x="446" y="39"/>
      <point x="446" y="39" type="curve" smooth="yes"/>
      <point x="446" y="39"/>
      <point x="436" y="39"/>
    </contour>
    <contour>
      <point x="36" y="350" type="curve" smooth="yes"/>
      <point x="36" y="338"/>
      <point x="82" y="356"/>
      <point x="82" y="297" type="curve" smooth="yes"/>
      <point x="82" y="230"/>
      <point x="73" y="165"/>
      <point x="24" y="91" type="curve" smooth="yes"/>
      <point x="19" y="84"/>
      <point x="25" y="83"/>
      <point x="31" y="88" type="curve" smooth="yes"/>
      <point x="82" y="124"/>
      <point x="192" y="232"/>
      <point x="192" y="278" type="curve" smooth="yes"/>
      <point x="192" y="298"/>
      <point x="192" y="423"/>
      <point x="192" y="430" type="curve"/>
      <point x="236" y="452"/>
      <point x="249" y="434"/>
      <point x="249" y="350" type="curve" smooth="yes"/>
      <point x="249" y="387"/>
      <point x="249" y="324"/>
      <point x="249" y="278" type="curve" smooth="yes"/>
      <point x="249" y="211"/>
      <point x="72" y="-6"/>
      <point x="54" y="-30" type="curve" smooth="yes"/>
      <point x="43" y="-45"/>
      <point x="51" y="-45"/>
      <point x="60" y="-39" type="curve" smooth="yes"/>
      <point x="121" y="0"/>
      <point x="359" y="226"/>
      <point x="359" y="278" type="curve" smooth="yes"/>
      <point x="359" y="500" type="line" smooth="yes"/>
      <point x="359" y="511"/>
      <point x="356" y="532"/>
      <point x="350" y="535" type="curve" smooth="yes"/>
      <point x="331" y="543"/>
      <point x="258" y="490"/>
      <point x="166" y="431" type="curve"/>
      <point x="137" y="421"/>
      <point x="36" y="360"/>
    </contour>
  </outline>
</glyph>
<glyph name="k" format="2">
  <advance width="560"/>
  <unicode hex="006B"/>
  <anchor x="256" y="20" name="bottom"/>
  <anchor x="14.11865" y="-57.23793" name="bottomSerif-length"/>
  <anchor x="124" y="358.76924" name="top"/>
  <anchor x="69" y="276" name="topSerif"/>
  <anchor x="539" y="131" name="tail"/>
  <anchor x="128" y="454" name="left"/>
  <anchor x="392" y="454" name="right"/>
  <anchor x="424" y="478" name="rightSerif-length"/>
  <outline>
    <contour>
      <point x="459" y="61" type="curve"/>
      <point x="459" y="501" type="line"/>
      <point x="459" y="512"/>
      <point x="456" y="533"/>
      <point x="450" y="536" type="curve" smooth="yes"/>
      <point x="442" y="540"/>
      <point x="303" y="456"/>
      <point x="303" y="446" type="curve" smooth="yes"/>
      <point x="303" y="434"/>
      <point x="349" y="452"/>
      <point x="349" y="393" type="curve" smooth="yes"/>
      <point x="349" y="26" type="line"/>
      <point x="349" y="23"/>
      <point x="349" y="-9"/>
      <point x="349" y="-9" type="curve" smooth="yes"/>
      <point x="349" y="-9"/>
      <point x="459" y="61"/>
    </contour>
    <contour>
      <point x="349" y="23" type="curve"/>
      <point x="349" y="-12" type="line"/>
      <point x="371" y="-12"/>
      <point x="505" y="79"/>
      <point x="546" y="127" type="curve" smooth="yes"/>
      <point x="555" y="138"/>
      <point x="551" y="144"/>
      <point x="535" y="135" type="curve" smooth="yes"/>
      <point x="483" y="106"/>
      <point x="451" y="84"/>
    </contour>
    <contour>
      <point x="382" y="482" type="curve"/>
      <point x="174" y="482" type="line"/>
      <point x="164" y="482"/>
      <point x="151" y="505"/>
      <point x="146" y="505" type="curve" smooth="yes"/>
      <point x="132" y="505"/>
      <point x="7" y="427"/>
      <point x="44" y="427" type="curve"/>
      <point x="392" y="427" type="line"/>
      <point x="392" y="427"/>
      <point x="392" y="482"/>
      <point x="392" y="482" type="curve" smooth="yes"/>
      <point x="392" y="482"/>
      <point x="382" y="482"/>
    </contour>
    <contour>
      <point x="179" y="55" type="curve"/>
      <point x="179" y="293" type="line"/>
      <point x="179" y="304"/>
      <point x="179" y="322"/>
      <point x="179" y="328" type="curve" smooth="yes"/>
      <point x="179" y="328"/>
      <point x="69" y="258"/>
      <point x="69" y="258" type="curve" smooth="yes"/>
      <point x="69" y="248"/>
      <point x="69" y="234"/>
      <point x="69" y="234" type="curve" smooth="yes"/>
      <point x="69" y="22" type="line"/>
      <point x="69" y="-31"/>
      <point x="-18" y="-64"/>
      <point x="6" y="-64" type="curve" smooth="yes"/>
      <point x="17" y="-64"/>
      <point x="179" y="0"/>
    </contour>
    <contour>
      <point x="353" y="355" type="curve"/>
      <point x="353" y="385" type="line"/>
      <point x="313" y="385"/>
      <point x="69" y="337"/>
      <point x="69" y="274" type="curve" smooth="yes"/>
      <point x="69" y="237" type="line"/>
      <point x="179" y="255" type="line"/>
      <point x="179" y="315"/>
      <point x="313" y="355"/>
    </contour>
  </outline>
</glyph>
<glyph name="l" format="2">
  <advance width="480"/>
  <unicode hex="006C"/>
  <anchor x="222" y="0" name="bottom"/>
  <anchor x="254" y="480" name="top"/>
  <anchor x="270" y="-41" name="bottomSerif-length"/>
  <anchor x="234" y="446.2" name="topSerif"/>
  <anchor x="460" y="108" name="tail"/>
  <outline>
    <contour>
      <point x="100" y="443" type="line"/>
      <point x="100" y="371" type="line"/>
      <point x="176" y="371" type="line"/>
      <point x="176" y="443" type="line"/>
    </contour>
    <contour>
      <point x="179" y="35" type="curve"/>
      <point x="179" y="501" type="line"/>
      <point x="179" y="512"/>
      <point x="176" y="533"/>
      <point x="170" y="536" type="curve" smooth="yes"/>
      <point x="162" y="540"/>
      <point x="23" y="456"/>
      <point x="23" y="446" type="curve" smooth="yes"/>
      <point x="23" y="434"/>
      <point x="69" y="452"/>
      <point x="69" y="393" type="curve" smooth="yes"/>
      <point x="69" y="0" type="line"/>
      <point x="69" y="-3"/>
      <point x="69" y="-35"/>
      <point x="69" y="-35" type="curve" smooth="yes"/>
      <point x="69" y="-35"/>
      <point x="179" y="35"/>
    </contour>
    <contour>
      <point x="380" y="35" type="curve"/>
      <point x="380" y="501" type="line"/>
      <point x="380" y="512"/>
      <point x="377" y="533"/>
      <point x="371" y="536" type="curve" smooth="yes"/>
      <point x="363" y="540"/>
      <point x="224" y="456"/>
      <point x="224" y="446" type="curve" smooth="yes"/>
      <point x="224" y="434"/>
      <point x="270" y="452"/>
      <point x="270" y="393" type="curve" smooth="yes"/>
      <point x="270" y="0" type="line"/>
      <point x="270" y="-3"/>
      <point x="270" y="-35"/>
      <point x="270" y="-35" type="curve" smooth="yes"/>
      <point x="270" y="-35"/>
      <point x="380" y="35"/>
    </contour>
    <contour>
      <point x="69" y="0" type="curve"/>
      <point x="69" y="-35" type="line"/>
      <point x="109" y="-35"/>
      <point x="264" y="79"/>
      <point x="304" y="142" type="curve" smooth="yes"/>
      <point x="311" y="153"/>
      <point x="308" y="160"/>
      <point x="294" y="149" type="curve" smooth="yes"/>
      <point x="222" y="82"/>
      <point x="158" y="46"/>
    </contour>
    <contour>
      <point x="270" y="0" type="curve"/>
      <point x="270" y="-35" type="line"/>
      <point x="292" y="-35"/>
      <point x="426" y="56"/>
      <point x="467" y="104" type="curve" smooth="yes"/>
      <point x="476" y="115"/>
      <point x="472" y="121"/>
      <point x="456" y="112" type="curve" smooth="yes"/>
      <point x="404" y="83"/>
      <point x="372" y="61"/>
    </contour>
  </outline>
</glyph>
<glyph name="m" format="2">
  <advance width="580"/>
  <unicode hex="006D"/>
  <anchor x="308" y="0" name="bottom"/>
  <anchor x="314" y="436" name="top"/>
  <anchor x="86" y="11" name="left"/>
  <anchor x="465.63638" y="11" name="right"/>
  <anchor x="497.63638" y="35" name="rightSerif-length"/>
  <anchor x="451.2" y="-26.2" name="bottomSerif-length"/>
  <anchor x="443" y="466" name="topSerif"/>
  <outline>
    <contour>
      <point x="456" y="39" type="curve"/>
      <point x="132" y="39" type="line"/>
      <point x="132" y="39"/>
      <point x="86" y="39"/>
      <point x="86" y="39" type="curve" smooth="yes"/>
      <point x="86" y="39"/>
      <point x="86" y="-16"/>
      <point x="86" y="-16" type="curve"/>
      <point x="466" y="-16" type="line"/>
      <point x="466" y="-16"/>
      <point x="466" y="39"/>
      <point x="466" y="39" type="curve" smooth="yes"/>
      <point x="466" y="39"/>
      <point x="456" y="39"/>
    </contour>
    <contour>
      <point x="368" y="103" type="curve"/>
      <point x="368" y="381" type="line"/>
      <point x="368" y="392"/>
      <point x="365" y="413"/>
      <point x="359" y="416" type="curve" smooth="yes"/>
      <point x="351" y="420"/>
      <point x="212" y="336"/>
      <point x="212" y="326" type="curve" smooth="yes"/>
      <point x="212" y="314"/>
      <point x="258" y="332"/>
      <point x="258" y="273" type="curve" smooth="yes"/>
      <point x="258" y="70" type="line"/>
      <point x="258" y="26"/>
      <point x="191" y="-3"/>
      <point x="210" y="-3" type="curve" smooth="yes"/>
      <point x="220" y="-3"/>
      <point x="368" y="56"/>
    </contour>
    <contour>
      <point x="544" y="542" type="curve" smooth="yes"/>
      <point x="535" y="542"/>
      <point x="398" y="459"/>
      <point x="354" y="424" type="curve"/>
      <point x="304" y="400"/>
      <point x="212" y="336"/>
      <point x="212" y="326" type="curve"/>
      <point x="347" y="400" type="line"/>
      <point x="373" y="424"/>
      <point x="443" y="460"/>
      <point x="443" y="381" type="curve"/>
      <point x="553" y="518" type="line"/>
      <point x="553" y="534"/>
      <point x="550" y="542"/>
    </contour>
    <contour>
      <point x="180" y="31" type="curve"/>
      <point x="180" y="445" type="line"/>
      <point x="180" y="456"/>
      <point x="177" y="477"/>
      <point x="171" y="480" type="curve" smooth="yes"/>
      <point x="163" y="484"/>
      <point x="24" y="400"/>
      <point x="24" y="390" type="curve" smooth="yes"/>
      <point x="24" y="378"/>
      <point x="70" y="396"/>
      <point x="70" y="337" type="curve" smooth="yes"/>
      <point x="70" y="-5" type="line"/>
      <point x="70" y="-18"/>
      <point x="60" y="-36"/>
      <point x="67" y="-36" type="curve" smooth="yes"/>
      <point x="74" y="-36"/>
      <point x="180" y="7"/>
    </contour>
    <contour>
      <point x="553" y="31" type="curve"/>
      <point x="553" y="483" type="line"/>
      <point x="553" y="494"/>
      <point x="553" y="512"/>
      <point x="553" y="518" type="curve" smooth="yes"/>
      <point x="553" y="518"/>
      <point x="443" y="448"/>
      <point x="443" y="448" type="curve" smooth="yes"/>
      <point x="443" y="438"/>
      <point x="443" y="424"/>
      <point x="443" y="424" type="curve" smooth="yes"/>
      <point x="443" y="-5" type="line"/>
      <point x="443" y="-18"/>
      <point x="433" y="-36"/>
      <point x="440" y="-36" type="curve" smooth="yes"/>
      <point x="447" y="-36"/>
      <point x="553" y="7"/>
    </contour>
  </outline>
</glyph>
<glyph name="n" format="2">
  <advance width="600"/>
  <unicode hex="006E"/>
  <anchor x="304" y="0" name="bottom"/>
  <anchor x="325" y="469" name="top"/>
  <anchor x="71" y="9" name="bottomSerif-length"/>
  <anchor x="35" y="446" name="topSerif"/>
  <anchor x="241" y="11" name="left"/>
  <anchor x="459.18181" y="11" name="right"/>
  <anchor x="491.18181" y="35" name="rightSerif-length"/>
  <outline>
    <contour>
      <point x="574" y="85" type="curve"/>
      <point x="574" y="501" type="line"/>
      <point x="574" y="512"/>
      <point x="571" y="533"/>
      <point x="565" y="536" type="curve" smooth="yes"/>
      <point x="557" y="540"/>
      <point x="418" y="456"/>
      <point x="418" y="446" type="curve" smooth="yes"/>
      <point x="418" y="434"/>
      <point x="464" y="452"/>
      <point x="464" y="393" type="curve" smooth="yes"/>
      <point x="464" y="50" type="line"/>
      <point x="464" y="23"/>
      <point x="428" y="0"/>
      <point x="441" y="0" type="curve" smooth="yes"/>
      <point x="449" y="0"/>
      <point x="574" y="50"/>
    </contour>
    <contour>
      <point x="459" y="39" type="curve"/>
      <point x="287" y="39" type="line"/>
      <point x="277" y="39"/>
      <point x="264" y="62"/>
      <point x="259" y="62" type="curve" smooth="yes"/>
      <point x="245" y="62"/>
      <point x="120" y="-16"/>
      <point x="157" y="-16" type="curve"/>
      <point x="427" y="-16" type="line"/>
      <point x="439" y="-16"/>
      <point x="489" y="19"/>
      <point x="501" y="35" type="curve" smooth="yes"/>
      <point x="506" y="42"/>
      <point x="472" y="39"/>
    </contour>
    <contour>
      <point x="181" y="85" type="curve"/>
      <point x="181" y="501" type="line"/>
      <point x="181" y="512"/>
      <point x="178" y="533"/>
      <point x="172" y="536" type="curve" smooth="yes"/>
      <point x="164" y="540"/>
      <point x="25" y="456"/>
      <point x="25" y="446" type="curve" smooth="yes"/>
      <point x="25" y="434"/>
      <point x="71" y="452"/>
      <point x="71" y="393" type="curve" smooth="yes"/>
      <point x="71" y="50" type="line"/>
      <point x="71" y="47"/>
      <point x="71" y="15"/>
      <point x="71" y="15" type="curve" smooth="yes"/>
      <point x="71" y="15"/>
      <point x="181" y="85"/>
    </contour>
    <contour>
      <point x="468" y="408" type="curve"/>
      <point x="452" y="443" type="line"/>
      <point x="414" y="405"/>
      <point x="237" y="206"/>
      <point x="173" y="123" type="curve"/>
      <point x="71" y="57" type="line"/>
      <point x="71" y="23"/>
      <point x="58" y="4"/>
      <point x="67" y="4" type="curve" smooth="yes"/>
      <point x="79" y="4"/>
      <point x="171" y="59"/>
      <point x="181" y="72" type="curve" smooth="yes"/>
      <point x="230" y="135"/>
      <point x="393" y="312"/>
    </contour>
  </outline>
</glyph>
<glyph name="o" format="2">
  <advance width="590"/>
  <unicode hex="006F"/>
  <anchor x="293" y="-16" name="bottom"/>
  <anchor x="293" y="481" name="top"/>
  <anchor x="98" y="255" name="left"/>
  <anchor x="489.99998" y="255" name="right"/>
  <anchor x="522" y="279" name="rightSerif-length"/>
  <outline>
    <contour>
      <point x="293" y="-37" type="curve" smooth="yes"/>
      <point x="460" y="-37"/>
      <point x="555" y="68"/>
      <point x="555" y="249" type="curve" smooth="yes"/>
      <point x="555" y="430"/>
      <point x="460" y="534"/>
      <point x="293" y="534" type="curve" smooth="yes"/>
      <point x="126" y="534"/>
      <point x="31" y="430"/>
      <point x="31" y="249" type="curve" smooth="yes"/>
      <point x="31" y="68"/>
      <point x="126" y="-37"/>
    </contour>
    <contour>
      <point x="293" y="16" type="curve" smooth="yes"/>
      <point x="176" y="16"/>
      <point x="150" y="92"/>
      <point x="150" y="248" type="curve" smooth="yes"/>
      <point x="150" y="404"/>
      <point x="176" y="481"/>
      <point x="293" y="481" type="curve" smooth="yes"/>
      <point x="410" y="481"/>
      <point x="436" y="404"/>
      <point x="436" y="248" type="curve" smooth="yes"/>
      <point x="436" y="92"/>
      <point x="410" y="16"/>
    </contour>
    <contour>
      <point x="480" y="283" type="curve"/>
      <point x="144" y="283" type="line"/>
      <point x="144" y="283"/>
      <point x="98" y="283"/>
      <point x="98" y="283" type="curve" smooth="yes"/>
      <point x="98" y="283"/>
      <point x="98" y="228"/>
      <point x="98" y="228" type="curve"/>
      <point x="490" y="228" type="line"/>
      <point x="490" y="228"/>
      <point x="490" y="283"/>
      <point x="490" y="283" type="curve" smooth="yes"/>
      <point x="490" y="283"/>
      <point x="480" y="283"/>
    </contour>
  </outline>
</glyph>
<glyph name="p" format="2">
  <advance width="530"/>
  <unicode hex="0070"/>
  <anchor x="483" y="620" name="tail"/>
  <anchor x="125" y="0" name="bottom"/>
  <anchor x="78.2" y="-26.2" name="bottomSerif-length"/>
  <anchor x="125" y="495.5" name="top"/>
  <anchor x="34" y="446.2" name="topSerif"/>
  <anchor x="117" y="11" name="left"/>
  <anchor x="472.00002" y="11" name="right"/>
  <anchor x="508.86002" y="42.74" name="rightSerif-length"/>
  <outline>
    <contour>
      <point x="180" y="31" type="curve"/>
      <point x="180" y="501" type="line"/>
      <point x="180" y="512"/>
      <point x="177" y="533"/>
      <point x="171" y="536" type="curve" smooth="yes"/>
      <point x="163" y="540"/>
      <point x="24" y="456"/>
      <point x="24" y="446" type="curve" smooth="yes"/>
      <point x="24" y="434"/>
      <point x="70" y="452"/>
      <point x="70" y="393" type="curve" smooth="yes"/>
      <point x="70" y="-5" type="line"/>
      <point x="70" y="-18"/>
      <point x="60" y="-36"/>
      <point x="67" y="-36" type="curve" smooth="yes"/>
      <point x="74" y="-36"/>
      <point x="180" y="7"/>
    </contour>
    <contour>
      <point x="471" y="39" type="curve"/>
      <point x="163" y="39" type="line"/>
      <point x="163" y="39"/>
      <point x="117" y="39"/>
      <point x="117" y="39" type="curve" smooth="yes"/>
      <point x="117" y="39"/>
      <point x="117" y="-16"/>
      <point x="117" y="-16" type="curve"/>
      <point x="442" y="-16" type="line"/>
      <point x="455" y="-16"/>
      <point x="507" y="28"/>
      <point x="519" y="43" type="curve" smooth="yes"/>
      <point x="523" y="50"/>
      <point x="486" y="39"/>
    </contour>
    <contour>
      <point x="473" y="533" type="curve" smooth="yes"/>
      <point x="406" y="481"/>
      <point x="282" y="419"/>
      <point x="282" y="399" type="curve" smooth="yes"/>
      <point x="282" y="379"/>
      <point x="402" y="273"/>
      <point x="402" y="213" type="curve" smooth="yes"/>
      <point x="402" y="182"/>
      <point x="369" y="151"/>
      <point x="333" y="151" type="curve" smooth="yes"/>
      <point x="272" y="151"/>
      <point x="180" y="242"/>
      <point x="180" y="282" type="curve"/>
      <point x="118" y="194" type="line"/>
      <point x="207" y="97"/>
      <point x="217" y="87"/>
      <point x="285" y="87" type="curve" smooth="yes"/>
      <point x="403" y="87"/>
      <point x="512" y="203"/>
      <point x="512" y="278" type="curve" smooth="yes"/>
      <point x="512" y="329"/>
      <point x="460" y="388"/>
      <point x="393" y="450" type="curve"/>
      <point x="425" y="476"/>
      <point x="466" y="502"/>
      <point x="484" y="528" type="curve" smooth="yes"/>
      <point x="489" y="535"/>
      <point x="488" y="545"/>
    </contour>
  </outline>
</glyph>
<glyph name="q" format="2">
  <advance width="550"/>
  <unicode hex="0071"/>
  <anchor x="471" y="0" name="bottom"/>
  <anchor x="424.2" y="-26.2" name="bottomSerif-length"/>
  <anchor x="471" y="495.5" name="top"/>
  <anchor x="380" y="446.2" name="topSerif"/>
  <anchor x="128" y="454" name="left"/>
  <anchor x="450" y="454" name="right"/>
  <anchor x="482" y="478" name="rightSerif-length"/>
  <outline>
    <contour>
      <point x="526" y="31" type="curve"/>
      <point x="526" y="501" type="line"/>
      <point x="526" y="512"/>
      <point x="523" y="533"/>
      <point x="517" y="536" type="curve" smooth="yes"/>
      <point x="509" y="540"/>
      <point x="370" y="456"/>
      <point x="370" y="446" type="curve" smooth="yes"/>
      <point x="370" y="434"/>
      <point x="416" y="452"/>
      <point x="416" y="393" type="curve" smooth="yes"/>
      <point x="416" y="-5" type="line"/>
      <point x="416" y="-18"/>
      <point x="406" y="-36"/>
      <point x="413" y="-36" type="curve" smooth="yes"/>
      <point x="420" y="-36"/>
      <point x="526" y="7"/>
    </contour>
    <contour>
      <point x="28" y="410" type="curve" smooth="yes"/>
      <point x="28" y="402"/>
      <point x="95" y="311"/>
      <point x="146" y="290" type="curve"/>
      <point x="105" y="253"/>
      <point x="74" y="200"/>
      <point x="74" y="159" type="curve" smooth="yes"/>
      <point x="74" y="67"/>
      <point x="152" y="-16"/>
      <point x="245" y="-16" type="curve" smooth="yes"/>
      <point x="331" y="-16"/>
      <point x="422" y="54"/>
      <point x="430" y="91" type="curve"/>
      <point x="416" y="138" type="line"/>
      <point x="416" y="90"/>
      <point x="333" y="54"/>
      <point x="280" y="54" type="curve" smooth="yes"/>
      <point x="209" y="54"/>
      <point x="190" y="118"/>
      <point x="190" y="179" type="curve" smooth="yes"/>
      <point x="190" y="283"/>
      <point x="245" y="308"/>
      <point x="245" y="324" type="curve" smooth="yes"/>
      <point x="245" y="339"/>
      <point x="127" y="417"/>
      <point x="150" y="482" type="curve"/>
      <point x="125" y="482"/>
      <point x="28" y="423"/>
    </contour>
    <contour>
      <point x="440" y="482" type="curve"/>
      <point x="174" y="482" type="line"/>
      <point x="174" y="482"/>
      <point x="150" y="482"/>
      <point x="150" y="482" type="curve" smooth="yes"/>
      <point x="150" y="482"/>
      <point x="79" y="427"/>
      <point x="79" y="427" type="curve"/>
      <point x="450" y="427" type="line"/>
      <point x="450" y="427"/>
      <point x="450" y="482"/>
      <point x="450" y="482" type="curve" smooth="yes"/>
      <point x="450" y="482"/>
      <point x="440" y="482"/>
    </contour>
  </outline>
</glyph>
<glyph name="r" format="2">
  <advance width="320"/>
  <unicode hex="0072"/>
  <anchor x="171" y="-32" name="bottom"/>
  <anchor x="148" y="662" name="top"/>
  <outline>
    <contour>
      <point x="292" y="81" type="curve" smooth="yes"/>
      <point x="292" y="383" type="line"/>
      <point x="292" y="394"/>
      <point x="289" y="415"/>
      <point x="283" y="418" type="curve" smooth="yes"/>
      <point x="278" y="420"/>
      <point x="215" y="376"/>
      <point x="174" y="350" type="curve"/>
      <point x="179" y="358"/>
      <point x="183" y="372"/>
      <point x="183" y="386" type="curve"/>
      <point x="183" y="685" type="line" smooth="yes"/>
      <point x="183" y="696"/>
      <point x="180" y="717"/>
      <point x="174" y="720" type="curve" smooth="yes"/>
      <point x="166" y="724"/>
      <point x="27" y="640"/>
      <point x="27" y="630" type="curve" smooth="yes"/>
      <point x="27" y="618"/>
      <point x="73" y="636"/>
      <point x="73" y="577" type="curve" smooth="yes"/>
      <point x="73" y="318" type="line" smooth="yes"/>
      <point x="73" y="296"/>
      <point x="47" y="275"/>
      <point x="58" y="275" type="curve" smooth="yes"/>
      <point x="63" y="275"/>
      <point x="130" y="312"/>
      <point x="161" y="332" type="curve" smooth="yes"/>
      <point x="175" y="341"/>
      <point x="182" y="309"/>
      <point x="182" y="275" type="curve" smooth="yes"/>
      <point x="182" y="51" type="line" smooth="yes"/>
      <point x="182" y="-36"/>
      <point x="33" y="-80"/>
      <point x="69" y="-80" type="curve" smooth="yes"/>
      <point x="84" y="-80"/>
      <point x="292" y="0"/>
    </contour>
  </outline>
</glyph>
<glyph name="s" format="2">
  <advance width="580"/>
  <unicode hex="0073"/>
  <anchor x="468" y="0" name="ogonek"/>
  <anchor x="326" y="438" name="top"/>
  <anchor x="310" y="0" name="bottom"/>
  <anchor x="263.2" y="-26.2" name="bottomSerif-length"/>
  <anchor x="239" y="250" name="topSerif"/>
  <anchor x="127" y="445" name="left"/>
  <anchor x="509.00002" y="445" name="right"/>
  <anchor x="541" y="469" name="rightSerif-length"/>
  <outline>
    <contour>
      <point x="86" y="287" type="line"/>
      <point x="86" y="230" type="line"/>
      <point x="166" y="230" type="line"/>
      <point x="166" y="287" type="line"/>
    </contour>
    <contour>
      <point x="183" y="32" type="curve"/>
      <point x="183" y="501" type="line"/>
      <point x="183" y="512"/>
      <point x="180" y="533"/>
      <point x="174" y="536" type="curve" smooth="yes"/>
      <point x="166" y="540"/>
      <point x="27" y="456"/>
      <point x="27" y="446" type="curve" smooth="yes"/>
      <point x="27" y="434"/>
      <point x="73" y="452"/>
      <point x="73" y="393" type="curve" smooth="yes"/>
      <point x="73" y="-4" type="line"/>
      <point x="73" y="-20"/>
      <point x="56" y="-40"/>
      <point x="65" y="-40" type="curve" smooth="yes"/>
      <point x="72" y="-40"/>
      <point x="183" y="5"/>
    </contour>
    <contour>
      <point x="538" y="244" type="curve"/>
      <point x="538" y="501" type="line"/>
      <point x="538" y="512"/>
      <point x="535" y="533"/>
      <point x="529" y="536" type="curve" smooth="yes"/>
      <point x="521" y="540"/>
      <point x="382" y="456"/>
      <point x="382" y="446" type="curve" smooth="yes"/>
      <point x="382" y="434"/>
      <point x="428" y="452"/>
      <point x="428" y="393" type="curve" smooth="yes"/>
      <point x="428" y="208" type="line"/>
      <point x="428" y="195"/>
      <point x="418" y="177"/>
      <point x="425" y="177" type="curve" smooth="yes"/>
      <point x="432" y="177"/>
      <point x="538" y="220"/>
    </contour>
    <contour>
      <point x="365" y="31" type="curve"/>
      <point x="365" y="305" type="line"/>
      <point x="365" y="316"/>
      <point x="362" y="337"/>
      <point x="356" y="340" type="curve" smooth="yes"/>
      <point x="348" y="344"/>
      <point x="229" y="260"/>
      <point x="229" y="250" type="curve" smooth="yes"/>
      <point x="229" y="243"/>
      <point x="255" y="252"/>
      <point x="255" y="197" type="curve" smooth="yes"/>
      <point x="255" y="-5" type="line"/>
      <point x="255" y="-18"/>
      <point x="245" y="-36"/>
      <point x="252" y="-36" type="curve" smooth="yes"/>
      <point x="259" y="-36"/>
      <point x="365" y="7"/>
    </contour>
    <contour>
      <point x="525" y="39" type="curve"/>
      <point x="357" y="39" type="line"/>
      <point x="357" y="39"/>
      <point x="333" y="39"/>
      <point x="333" y="39" type="curve" smooth="yes"/>
      <point x="333" y="39"/>
      <point x="262" y="-16"/>
      <point x="262" y="-16" type="curve"/>
      <point x="493" y="-16" type="line"/>
      <point x="505" y="-16"/>
      <point x="555" y="19"/>
      <point x="567" y="35" type="curve" smooth="yes"/>
      <point x="572" y="42"/>
      <point x="538" y="39"/>
    </contour>
    <contour>
      <point x="499" y="473" type="curve"/>
      <point x="173" y="473" type="line"/>
      <point x="173" y="473"/>
      <point x="149" y="473"/>
      <point x="149" y="473" type="curve" smooth="yes"/>
      <point x="149" y="473"/>
      <point x="78" y="418"/>
      <point x="78" y="418" type="curve"/>
      <point x="509" y="418" type="line"/>
      <point x="509" y="418"/>
      <point x="509" y="473"/>
      <point x="509" y="473" type="curve" smooth="yes"/>
      <point x="509" y="473"/>
      <point x="499" y="473"/>
    </contour>
  </outline>
</glyph>
<glyph name="t" format="2">
  <advance width="450"/>
  <unicode hex="0074"/>
  <anchor x="237" y="0" name="bottom"/>
  <anchor x="353" y="47" name="ogonek"/>
  <anchor x="288" y="603" name="top"/>
  <anchor x="220.98487" y="-88.32754" name="bottomSerif-length"/>
  <anchor x="274" y="428" name="topSerif"/>
  <outline>
    <contour>
      <point x="182" y="31" type="curve"/>
      <point x="182" y="685" type="line"/>
      <point x="182" y="696"/>
      <point x="179" y="717"/>
      <point x="173" y="720" type="curve" smooth="yes"/>
      <point x="165" y="724"/>
      <point x="26" y="640"/>
      <point x="26" y="630" type="curve" smooth="yes"/>
      <point x="26" y="618"/>
      <point x="72" y="636"/>
      <point x="72" y="577" type="curve" smooth="yes"/>
      <point x="72" y="-5" type="line"/>
      <point x="72" y="-18"/>
      <point x="62" y="-36"/>
      <point x="69" y="-36" type="curve" smooth="yes"/>
      <point x="76" y="-36"/>
      <point x="182" y="7"/>
    </contour>
    <contour>
      <point x="420" y="63" type="curve"/>
      <point x="420" y="483" type="line"/>
      <point x="420" y="494"/>
      <point x="417" y="515"/>
      <point x="411" y="518" type="curve" smooth="yes"/>
      <point x="403" y="522"/>
      <point x="264" y="438"/>
      <point x="264" y="428" type="curve" smooth="yes"/>
      <point x="264" y="416"/>
      <point x="310" y="434"/>
      <point x="310" y="375" type="curve" smooth="yes"/>
      <point x="310" y="33" type="line"/>
      <point x="310" y="-31"/>
      <point x="198" y="-80"/>
      <point x="222" y="-80" type="curve" smooth="yes"/>
      <point x="230" y="-80"/>
      <point x="420" y="13"/>
    </contour>
    <contour>
      <point x="320" y="379" type="curve"/>
      <point x="312" y="407" type="line"/>
      <point x="260" y="353"/>
      <point x="211" y="271"/>
      <point x="164" y="229" type="curve"/>
      <point x="169" y="185" type="line"/>
      <point x="216" y="229"/>
      <point x="288" y="319"/>
    </contour>
  </outline>
</glyph>
<glyph name="u" format="2">
  <advance width="570"/>
  <unicode hex="0075"/>
  <anchor x="292" y="0" name="bottom"/>
  <anchor x="474" y="18" name="ogonek"/>
  <anchor x="302" y="506" name="top"/>
  <anchor x="238" y="11" name="left"/>
  <anchor x="480" y="11" name="right"/>
  <anchor x="512" y="35" name="rightSerif-length"/>
  <anchor x="244.29564" y="0.16299" name="bottomSerif-length"/>
  <anchor x="223" y="343" name="topSerif"/>
  <outline>
    <contour>
      <point x="470" y="39" type="curve"/>
      <point x="284" y="39" type="line"/>
      <point x="276" y="39"/>
      <point x="274" y="48"/>
      <point x="267" y="48" type="curve" smooth="yes"/>
      <point x="260" y="48"/>
      <point x="169" y="-16"/>
      <point x="189" y="-16" type="curve"/>
      <point x="480" y="-16" type="line"/>
      <point x="480" y="-16"/>
      <point x="480" y="39"/>
      <point x="480" y="39" type="curve" smooth="yes"/>
      <point x="480" y="39"/>
      <point x="470" y="39"/>
    </contour>
    <contour>
      <point x="434" y="349" type="curve"/>
      <point x="544" y="349" type="line"/>
      <point x="544" y="460"/>
      <point x="424" y="559"/>
      <point x="292" y="559" type="curve" smooth="yes"/>
      <point x="160" y="559"/>
      <point x="40" y="460"/>
      <point x="40" y="349" type="curve"/>
      <point x="40" y="94" type="line" smooth="yes"/>
      <point x="40" y="27"/>
      <point x="26" y="9"/>
      <point x="35" y="9" type="curve" smooth="yes"/>
      <point x="47" y="9"/>
      <point x="150" y="65"/>
      <point x="150" y="102" type="curve" smooth="yes"/>
      <point x="150" y="349" type="line"/>
      <point x="151" y="424"/>
      <point x="215" y="506"/>
      <point x="302" y="506" type="curve" smooth="yes"/>
      <point x="388" y="506"/>
      <point x="434" y="424"/>
    </contour>
    <contour>
      <point x="544" y="33" type="curve"/>
      <point x="544" y="314" type="line"/>
      <point x="544" y="329"/>
      <point x="544" y="349"/>
      <point x="544" y="349" type="curve" smooth="yes"/>
      <point x="544" y="349"/>
      <point x="434" y="349"/>
      <point x="434" y="349" type="curve" smooth="yes"/>
      <point x="434" y="339"/>
      <point x="434" y="314"/>
      <point x="434" y="314" type="curve" smooth="yes"/>
      <point x="434" y="-3" type="line"/>
      <point x="434" y="-21"/>
      <point x="414" y="-41"/>
      <point x="424" y="-41" type="curve" smooth="yes"/>
      <point x="431" y="-41"/>
      <point x="544" y="4"/>
    </contour>
    <contour>
      <point x="356" y="70" type="curve"/>
      <point x="356" y="398" type="line"/>
      <point x="356" y="409"/>
      <point x="353" y="430"/>
      <point x="347" y="433" type="curve" smooth="yes"/>
      <point x="339" y="437"/>
      <point x="213" y="353"/>
      <point x="213" y="343" type="curve" smooth="yes"/>
      <point x="213" y="334"/>
      <point x="246" y="346"/>
      <point x="246" y="290" type="curve" smooth="yes"/>
      <point x="246" y="34" type="line"/>
      <point x="246" y="19"/>
      <point x="230" y="-5"/>
      <point x="237" y="-5" type="curve" smooth="yes"/>
      <point x="242" y="-5"/>
      <point x="356" y="49"/>
    </contour>
  </outline>
</glyph>
<glyph name="v" format="2">
  <advance width="560"/>
  <unicode hex="0076"/>
  <anchor x="134" y="0" name="bottom"/>
  <anchor x="79" y="-41" name="bottomSerif-length"/>
  <anchor x="134" y="495.5" name="top"/>
  <anchor x="43" y="446.2" name="topSerif"/>
  <anchor x="70" y="11" name="left"/>
  <anchor x="470" y="11" name="right"/>
  <anchor x="506.85999" y="42.74" name="rightSerif-length"/>
  <outline>
    <contour>
      <point x="189" y="0" type="curve"/>
      <point x="189" y="501" type="line"/>
      <point x="189" y="512"/>
      <point x="186" y="533"/>
      <point x="180" y="536" type="curve" smooth="yes"/>
      <point x="172" y="540"/>
      <point x="33" y="456"/>
      <point x="33" y="446" type="curve" smooth="yes"/>
      <point x="33" y="434"/>
      <point x="79" y="452"/>
      <point x="79" y="393" type="curve" smooth="yes"/>
      <point x="79" y="35" type="line"/>
      <point x="79" y="32"/>
      <point x="79" y="0"/>
      <point x="79" y="0" type="curve" smooth="yes"/>
      <point x="79" y="0"/>
      <point x="189" y="0"/>
    </contour>
    <contour>
      <point x="469" y="39" type="curve"/>
      <point x="116" y="39" type="line"/>
      <point x="108" y="39"/>
      <point x="106" y="48"/>
      <point x="99" y="48" type="curve" smooth="yes"/>
      <point x="92" y="48"/>
      <point x="1" y="-16"/>
      <point x="21" y="-16" type="curve"/>
      <point x="440" y="-16" type="line"/>
      <point x="453" y="-16"/>
      <point x="505" y="28"/>
      <point x="517" y="43" type="curve" smooth="yes"/>
      <point x="521" y="50"/>
      <point x="484" y="39"/>
    </contour>
    <contour>
      <point x="485" y="539" type="curve" smooth="yes"/>
      <point x="476" y="539"/>
      <point x="367" y="456"/>
      <point x="367" y="443" type="curve" smooth="yes"/>
      <point x="367" y="437"/>
      <point x="400" y="419"/>
      <point x="400" y="392" type="curve" smooth="yes"/>
      <point x="400" y="348"/>
      <point x="224" y="118"/>
      <point x="161" y="29" type="curve"/>
      <point x="219" y="17" type="line"/>
      <point x="392" y="220"/>
      <point x="536" y="456"/>
      <point x="536" y="464" type="curve" smooth="yes"/>
      <point x="536" y="474"/>
      <point x="493" y="539"/>
    </contour>
  </outline>
</glyph>
<glyph name="w" format="2">
  <advance width="580"/>
  <unicode hex="0077"/>
  <anchor x="320" y="480" name="top"/>
  <anchor x="131" y="62" name="bottom"/>
  <anchor x="76" y="21" name="bottomSerif-length"/>
  <anchor x="40" y="446" name="topSerif"/>
  <anchor x="300" y="11" name="left"/>
  <anchor x="475.75758" y="11" name="right"/>
  <anchor x="507.75758" y="35" name="rightSerif-length"/>
  <outline>
    <contour>
      <point x="553" y="58" type="curve"/>
      <point x="553" y="501" type="line"/>
      <point x="553" y="512"/>
      <point x="550" y="533"/>
      <point x="544" y="536" type="curve" smooth="yes"/>
      <point x="536" y="540"/>
      <point x="417" y="456"/>
      <point x="417" y="446" type="curve" smooth="yes"/>
      <point x="417" y="439"/>
      <point x="443" y="448"/>
      <point x="443" y="393" type="curve" smooth="yes"/>
      <point x="443" y="22" type="line"/>
      <point x="443" y="9"/>
      <point x="433" y="-9"/>
      <point x="440" y="-9" type="curve" smooth="yes"/>
      <point x="447" y="-9"/>
      <point x="553" y="34"/>
    </contour>
    <contour>
      <point x="476" y="39" type="curve"/>
      <point x="346" y="39" type="line"/>
      <point x="336" y="39"/>
      <point x="323" y="62"/>
      <point x="318" y="62" type="curve" smooth="yes"/>
      <point x="304" y="62"/>
      <point x="179" y="-16"/>
      <point x="216" y="-16" type="curve"/>
      <point x="444" y="-16" type="line"/>
      <point x="456" y="-16"/>
      <point x="506" y="19"/>
      <point x="518" y="35" type="curve" smooth="yes"/>
      <point x="523" y="42"/>
      <point x="489" y="39"/>
    </contour>
    <contour>
      <point x="357" y="316" type="curve"/>
      <point x="369" y="280" type="line"/>
      <point x="387" y="312"/>
      <point x="433" y="369"/>
      <point x="448" y="406" type="curve"/>
      <point x="438" y="431" type="line"/>
      <point x="417" y="400"/>
      <point x="387" y="354"/>
    </contour>
    <contour>
      <point x="371" y="153" type="curve"/>
      <point x="371" y="466" type="line"/>
      <point x="371" y="477"/>
      <point x="368" y="498"/>
      <point x="362" y="501" type="curve" smooth="yes"/>
      <point x="354" y="505"/>
      <point x="235" y="421"/>
      <point x="235" y="411" type="curve" smooth="yes"/>
      <point x="235" y="404"/>
      <point x="261" y="413"/>
      <point x="261" y="358" type="curve" smooth="yes"/>
      <point x="261" y="117" type="line"/>
      <point x="261" y="104"/>
      <point x="251" y="86"/>
      <point x="258" y="86" type="curve" smooth="yes"/>
      <point x="265" y="86"/>
      <point x="371" y="129"/>
    </contour>
    <contour>
      <point x="186" y="97" type="curve"/>
      <point x="186" y="501" type="line"/>
      <point x="186" y="512"/>
      <point x="183" y="533"/>
      <point x="177" y="536" type="curve" smooth="yes"/>
      <point x="169" y="540"/>
      <point x="30" y="456"/>
      <point x="30" y="446" type="curve" smooth="yes"/>
      <point x="30" y="434"/>
      <point x="76" y="452"/>
      <point x="76" y="393" type="curve" smooth="yes"/>
      <point x="76" y="62" type="line"/>
      <point x="76" y="59"/>
      <point x="76" y="27"/>
      <point x="76" y="27" type="curve" smooth="yes"/>
      <point x="76" y="27"/>
      <point x="186" y="97"/>
    </contour>
    <contour>
      <point x="272" y="188" type="curve"/>
      <point x="267" y="227" type="line"/>
      <point x="253" y="205"/>
      <point x="201" y="150"/>
      <point x="180" y="125" type="curve"/>
      <point x="76" y="50" type="line"/>
      <point x="76" y="16"/>
      <point x="63" y="4"/>
      <point x="71" y="4" type="curve" smooth="yes"/>
      <point x="86" y="4"/>
      <point x="179" y="70"/>
      <point x="186" y="81" type="curve" smooth="yes"/>
      <point x="204" y="109"/>
      <point x="248" y="155"/>
    </contour>
  </outline>
</glyph>
<glyph name="x" format="2">
  <advance width="590"/>
  <unicode hex="0078"/>
  <anchor x="127" y="0" name="bottom"/>
  <anchor x="64.2" y="-41" name="bottomSerif-length"/>
  <anchor x="127" y="495.5" name="top"/>
  <anchor x="36" y="446.2" name="topSerif"/>
  <outline>
    <contour>
      <point x="182" y="35" type="curve"/>
      <point x="182" y="501" type="line"/>
      <point x="182" y="512"/>
      <point x="179" y="533"/>
      <point x="173" y="536" type="curve" smooth="yes"/>
      <point x="165" y="540"/>
      <point x="26" y="456"/>
      <point x="26" y="446" type="curve" smooth="yes"/>
      <point x="26" y="434"/>
      <point x="72" y="452"/>
      <point x="72" y="393" type="curve" smooth="yes"/>
      <point x="72" y="0" type="line"/>
      <point x="72" y="-17"/>
      <point x="50" y="-44"/>
      <point x="58" y="-44" type="curve" smooth="yes"/>
      <point x="63" y="-44"/>
      <point x="182" y="14"/>
    </contour>
    <contour>
      <point x="563" y="421" type="curve" smooth="yes"/>
      <point x="550" y="421"/>
      <point x="483" y="391"/>
      <point x="451" y="347" type="curve" smooth="yes"/>
      <point x="406" y="286"/>
      <point x="277" y="73"/>
      <point x="228" y="34" type="curve" smooth="yes"/>
      <point x="214" y="23"/>
      <point x="173" y="-16"/>
      <point x="185" y="-16" type="curve" smooth="yes"/>
      <point x="489" y="-16" type="line" smooth="yes"/>
      <point x="501" y="-16"/>
      <point x="551" y="26"/>
      <point x="563" y="42" type="curve" smooth="yes"/>
      <point x="568" y="49"/>
      <point x="534" y="39"/>
      <point x="521" y="39" type="curve" smooth="yes"/>
      <point x="297" y="39" type="line"/>
      <point x="328" y="70"/>
      <point x="413" y="176"/>
      <point x="460" y="267" type="curve" smooth="yes"/>
      <point x="499" y="343"/>
      <point x="535" y="382"/>
      <point x="569" y="412" type="curve" smooth="yes"/>
      <point x="577" y="419"/>
      <point x="571" y="421"/>
    </contour>
    <contour>
      <point x="396" y="549" type="curve" smooth="yes"/>
      <point x="387" y="549"/>
      <point x="278" y="466"/>
      <point x="278" y="453" type="curve" smooth="yes"/>
      <point x="278" y="447"/>
      <point x="311" y="429"/>
      <point x="311" y="402" type="curve" smooth="yes"/>
      <point x="311" y="358"/>
      <point x="206" y="167"/>
      <point x="173" y="132" type="curve"/>
      <point x="182" y="34" type="line"/>
      <point x="182" y="67"/>
      <point x="447" y="424"/>
      <point x="447" y="474" type="curve" smooth="yes"/>
      <point x="447" y="484"/>
      <point x="404" y="549"/>
    </contour>
  </outline>
</glyph>
<glyph name="y" format="2">
  <advance width="520"/>
  <unicode hex="0079"/>
  <anchor x="246" y="0" name="bottom"/>
  <anchor x="292" y="486" name="top"/>
  <anchor x="391.2" y="-26.2" name="bottomSerif-length"/>
  <anchor x="347" y="446.2" name="topSerif"/>
  <anchor x="78" y="11" name="left"/>
  <anchor x="398" y="11" name="right"/>
  <anchor x="430" y="35" name="rightSerif-length"/>
  <outline>
    <contour>
      <point x="493" y="31" type="curve"/>
      <point x="493" y="501" type="line"/>
      <point x="493" y="512"/>
      <point x="490" y="533"/>
      <point x="484" y="536" type="curve" smooth="yes"/>
      <point x="476" y="540"/>
      <point x="337" y="456"/>
      <point x="337" y="446" type="curve" smooth="yes"/>
      <point x="337" y="434"/>
      <point x="383" y="452"/>
      <point x="383" y="393" type="curve" smooth="yes"/>
      <point x="383" y="-5" type="line"/>
      <point x="383" y="-18"/>
      <point x="373" y="-36"/>
      <point x="380" y="-36" type="curve" smooth="yes"/>
      <point x="387" y="-36"/>
      <point x="493" y="7"/>
    </contour>
    <contour>
      <point x="388" y="39" type="curve"/>
      <point x="124" y="39" type="line"/>
      <point x="124" y="39"/>
      <point x="89" y="39"/>
      <point x="89" y="39" type="curve" smooth="yes"/>
      <point x="89" y="39"/>
      <point x="54" y="-16"/>
      <point x="54" y="-16" type="curve"/>
      <point x="398" y="-16" type="line"/>
      <point x="398" y="-16"/>
      <point x="398" y="39"/>
      <point x="398" y="39" type="curve" smooth="yes"/>
      <point x="398" y="39"/>
      <point x="388" y="39"/>
    </contour>
    <contour>
      <point x="26" y="-26" type="curve" smooth="yes"/>
      <point x="17" y="-43"/>
      <point x="22" y="-48"/>
      <point x="79" y="2" type="curve" smooth="yes"/>
      <point x="220" y="127"/>
      <point x="322" y="159"/>
      <point x="322" y="179" type="curve" smooth="yes"/>
      <point x="322" y="202"/>
      <point x="189" y="223"/>
      <point x="189" y="324" type="curve" smooth="yes"/>
      <point x="189" y="435"/>
      <point x="339" y="508"/>
      <point x="382" y="519" type="curve" smooth="yes"/>
      <point x="412" y="526"/>
      <point x="412" y="535"/>
      <point x="374" y="535" type="curve" smooth="yes"/>
      <point x="296" y="535"/>
      <point x="65" y="485"/>
      <point x="65" y="313" type="curve" smooth="yes"/>
      <point x="65" y="237"/>
      <point x="125" y="167"/>
      <point x="205" y="157" type="curve"/>
      <point x="135" y="103"/>
      <point x="45" y="13"/>
    </contour>
  </outline>
</glyph>
<glyph name="z" format="2">
  <advance width="580"/>
  <unicode hex="007A"/>
  <anchor x="271" y="0" name="bottom"/>
  <anchor x="282" y="460" name="top"/>
  <anchor x="79.2" y="-26.2" name="bottomSerif-length"/>
  <anchor x="35" y="446.2" name="topSerif"/>
  <anchor x="126" y="11" name="left"/>
  <anchor x="424" y="11" name="right"/>
  <anchor x="456" y="35" name="rightSerif-length"/>
  <outline>
    <contour>
      <point x="181" y="31" type="curve"/>
      <point x="181" y="501" type="line"/>
      <point x="181" y="512"/>
      <point x="178" y="533"/>
      <point x="172" y="536" type="curve" smooth="yes"/>
      <point x="164" y="540"/>
      <point x="25" y="456"/>
      <point x="25" y="446" type="curve" smooth="yes"/>
      <point x="25" y="434"/>
      <point x="71" y="452"/>
      <point x="71" y="393" type="curve" smooth="yes"/>
      <point x="71" y="-5" type="line"/>
      <point x="71" y="-18"/>
      <point x="61" y="-36"/>
      <point x="68" y="-36" type="curve" smooth="yes"/>
      <point x="75" y="-36"/>
      <point x="181" y="7"/>
    </contour>
    <contour>
      <point x="424" y="39" type="curve"/>
      <point x="172" y="39" type="line"/>
      <point x="172" y="39"/>
      <point x="148" y="39"/>
      <point x="148" y="39" type="curve" smooth="yes"/>
      <point x="148" y="39"/>
      <point x="77" y="-16"/>
      <point x="77" y="-16" type="curve"/>
      <point x="392" y="-16" type="line"/>
      <point x="404" y="-16"/>
      <point x="454" y="19"/>
      <point x="466" y="35" type="curve" smooth="yes"/>
      <point x="471" y="42"/>
      <point x="437" y="39"/>
    </contour>
    <contour>
      <point x="253" y="460" type="curve" smooth="yes"/>
      <point x="253" y="455"/>
      <point x="362" y="387"/>
      <point x="414" y="339" type="curve"/>
      <point x="414" y="360" type="line"/>
      <point x="355" y="305"/>
      <point x="275" y="248"/>
      <point x="275" y="227" type="curve" smooth="yes"/>
      <point x="275" y="197"/>
      <point x="438" y="71"/>
      <point x="439" y="26" type="curve"/>
      <point x="488" y="26"/>
      <point x="556" y="54"/>
      <point x="556" y="73" type="curve" smooth="yes"/>
      <point x="556" y="107"/>
      <point x="385" y="261"/>
      <point x="385" y="287" type="curve" smooth="yes"/>
      <point x="385" y="325"/>
      <point x="508" y="409"/>
      <point x="508" y="423" type="curve" smooth="yes"/>
      <point x="508" y="435"/>
      <point x="393" y="534"/>
      <point x="384" y="534" type="curve" smooth="yes"/>
      <point x="369" y="534"/>
      <point x="253" y="470"/>
    </contour>
  </outline>
</glyph>
<glyph name="braceleft" format="2">
  <advance width="400"/>
  <unicode hex="007B"/>
  <outline>
    <component base="_part.brace" identifier="2077CA0A"/>
    <contour>
      <point x="328" y="-41" type="curve" smooth="yes"/>
      <point x="365" y="-59"/>
      <point x="371" y="-52"/>
      <point x="352" y="-36" type="curve" smooth="yes"/>
      <point x="295" y="12"/>
      <point x="295" y="120"/>
      <point x="295" y="120" type="curve" smooth="yes"/>
      <point x="295" y="255"/>
      <point x="266" y="284"/>
      <point x="198" y="320" type="curve"/>
      <point x="95" y="320" type="line"/>
      <point x="95" y="313" type="line"/>
      <point x="141" y="301"/>
      <point x="198" y="269"/>
      <point x="198" y="159" type="curve" smooth="yes"/>
      <point x="198" y="62"/>
      <point x="253" y="-3"/>
    </contour>
  </outline>
</glyph>
<glyph name="braceright" format="2">
  <advance width="400"/>
  <unicode hex="007D"/>
  <outline>
    <contour>
      <point x="72" y="681" type="curve" smooth="yes"/>
      <point x="35" y="699"/>
      <point x="29" y="692"/>
      <point x="48" y="676" type="curve" smooth="yes"/>
      <point x="105" y="628"/>
      <point x="105" y="520"/>
      <point x="105" y="520" type="curve" smooth="yes"/>
      <point x="105" y="385"/>
      <point x="134" y="356"/>
      <point x="202" y="320" type="curve"/>
      <point x="305" y="320" type="line"/>
      <point x="305" y="327" type="line"/>
      <point x="259" y="339"/>
      <point x="202" y="371"/>
      <point x="202" y="481" type="curve" smooth="yes"/>
      <point x="202" y="578"/>
      <point x="147" y="643"/>
    </contour>
    <component base="_part.brace" xScale="-1" yScale="-1" xOffset="400" yOffset="640" identifier="BF0BC1C3"/>
  </outline>
</glyph>
<glyph name="exclamdown" format="2">
  <advance width="285"/>
  <unicode hex="00A1"/>
  <anchor x="126" y="-49" name="bottom"/>
  <anchor x="71" y="-90" name="bottomSerif-length"/>
  <anchor x="126" y="406.28846" name="top"/>
  <anchor x="35" y="348" name="topSerif"/>
  <anchor x="266.6" y="53.1" name="tail"/>
  <outline>
    <component base="period" xOffset="-13" yOffset="513"/>
    <contour>
      <point x="181" y="-14" type="curve"/>
      <point x="181" y="403" type="line"/>
      <point x="181" y="414"/>
      <point x="178" y="435"/>
      <point x="172" y="438" type="curve" smooth="yes"/>
      <point x="164" y="442"/>
      <point x="25" y="358"/>
      <point x="25" y="348" type="curve" smooth="yes"/>
      <point x="25" y="336"/>
      <point x="71" y="354"/>
      <point x="71" y="295" type="curve" smooth="yes"/>
      <point x="71" y="-49" type="line"/>
      <point x="71" y="-52"/>
      <point x="71" y="-84"/>
      <point x="71" y="-84" type="curve" smooth="yes"/>
      <point x="71" y="-84"/>
      <point x="181" y="-14"/>
    </contour>
    <contour>
      <point x="71" y="-60" type="curve"/>
      <point x="71" y="-95" type="line"/>
      <point x="96" y="-95"/>
      <point x="233" y="-1"/>
      <point x="274" y="50" type="curve" smooth="yes"/>
      <point x="282" y="61"/>
      <point x="278" y="67"/>
      <point x="263" y="57" type="curve" smooth="yes"/>
      <point x="208" y="23"/>
      <point x="171" y="-1"/>
    </contour>
  </outline>
</glyph>
<glyph name="acute" format="2">
  <advance width="300"/>
  <unicode hex="00B4"/>
  <anchor x="149" y="640" name="_top"/>
  <outline>
    <contour>
      <point x="75" y="740" type="curve" smooth="yes"/>
      <point x="75" y="736"/>
      <point x="81" y="732"/>
      <point x="85" y="732" type="curve" smooth="yes"/>
      <point x="95" y="732"/>
      <point x="247" y="792"/>
      <point x="247" y="798" type="curve" smooth="yes"/>
      <point x="247" y="804"/>
      <point x="214" y="841"/>
      <point x="207" y="841" type="curve" smooth="yes"/>
      <point x="200" y="841"/>
      <point x="75" y="747"/>
    </contour>
  </outline>
</glyph>
<glyph name="cedilla" format="2">
  <advance width="300"/>
  <unicode hex="00B8"/>
  <anchor x="87" y="0" name="_ogonek"/>
  <outline>
    <contour>
      <point x="154" y="22" type="curve"/>
      <point x="55" y="0" type="line"/>
      <point x="38" y="-49"/>
      <point x="19" y="-89"/>
      <point x="19" y="-93" type="curve" smooth="yes"/>
      <point x="19" y="-103"/>
      <point x="123" y="-111"/>
      <point x="123" y="-152" type="curve" smooth="yes"/>
      <point x="123" y="-180"/>
      <point x="73" y="-203"/>
      <point x="58" y="-217" type="curve" smooth="yes"/>
      <point x="41" y="-233"/>
      <point x="49" y="-232"/>
      <point x="65" y="-226" type="curve" smooth="yes"/>
      <point x="120" y="-206"/>
      <point x="183" y="-172"/>
      <point x="183" y="-134" type="curve" smooth="yes"/>
      <point x="183" y="-102"/>
      <point x="138" y="-85"/>
      <point x="73" y="-88" type="curve"/>
      <point x="87" y="-73"/>
      <point x="143" y="-7"/>
    </contour>
  </outline>
</glyph>
<glyph name="guillemetright" format="2">
  <advance width="570"/>
  <unicode hex="00BB"/>
  <outline>
    <contour>
      <point x="300" y="459" type="curve" smooth="yes"/>
      <point x="284" y="459"/>
      <point x="253" y="456"/>
      <point x="253" y="452" type="curve" smooth="yes"/>
      <point x="253" y="443"/>
      <point x="336" y="376"/>
      <point x="418" y="320" type="curve"/>
      <point x="520" y="320" type="line"/>
      <point x="456" y="367"/>
      <point x="330" y="459"/>
    </contour>
    <component base="_part.guilsingl" xScale="-1" yScale="-1" xOffset="630" yOffset="640" identifier="334076B0"/>
    <contour>
      <point x="130" y="459" type="curve" smooth="yes"/>
      <point x="114" y="459"/>
      <point x="83" y="456"/>
      <point x="83" y="452" type="curve" smooth="yes"/>
      <point x="83" y="443"/>
      <point x="166" y="376"/>
      <point x="248" y="320" type="curve"/>
      <point x="350" y="320" type="line"/>
      <point x="286" y="367"/>
      <point x="160" y="459"/>
    </contour>
    <component base="_part.guilsingl" xScale="-1" yScale="-1" xOffset="460" yOffset="640" identifier="29D0BF09"/>
  </outline>
</glyph>
